<?xml version="1.0" encoding="utf-8"?>
<!-- Generator: Adobe Illustrator 19.2.0, SVG Export Plug-In . SVG Version: 6.00 Build 0)  -->
<svg version="1.1" id="Layer_1" xmlns="http://www.w3.org/2000/svg" xmlns:xlink="http://www.w3.org/1999/xlink" x="0px" y="0px"
	 viewBox="0 0 151.2 151.2" style="enable-background:new 0 0 151.2 151.2;" xml:space="preserve">
<style type="text/css">
	.st0{fill:#BCBEC0;}
	.st1{fill:#212744;}
	.st2{fill:#F9C739;}
</style>
<rect x="-699.5" y="690.8" class="st0" width="34.4" height="34.4"/>
<rect x="-738.2" y="690.8" class="st0" width="34.4" height="34.4"/>
<path class="st1" d="M-669.1,671.2h-26.5v13.5h26.5V671.2z M-691.4,680.3v-5.1h18.1v5.1H-691.4z"/>
<rect x="-691.4" y="675.3" class="st2" width="18.1" height="5.1"/>
<path class="st1" d="M-630.2,671.2h-26.5v13.5h26.5V671.2z M-652.5,680.3v-5.1h18.1v5.1H-652.5z"/>
<rect x="-652.5" y="675.3" class="st2" width="18.1" height="5.1"/>
<path class="st1" d="M-606.7,759.8v-26.5h-13.5v26.5H-606.7z M-616,737.6h5.1v18.1h-5.1V737.6z"/>
<rect x="-616" y="737.6" class="st2" width="5.1" height="18.1"/>
<path class="st1" d="M-744.5,721.2v-26.5H-758v26.5H-744.5z M-753.7,698.9h5.1V717h-5.1V698.9z"/>
<rect x="-753.7" y="698.9" class="st2" width="5.1" height="18.1"/>
<path class="st1" d="M-744.5,759.8v-26.5H-758v26.5H-744.5z M-753.7,737.6h5.1v18.1h-5.1V737.6z"/>
<rect x="-753.7" y="737.6" class="st2" width="5.1" height="18.1"/>
<path class="st1" d="M-744.5,798.8v-26.5H-758v26.5H-744.5z M-753.7,776.4h5.1v18.1h-5.1V776.4z"/>
<rect x="-753.7" y="776.4" class="st2" width="5.1" height="18.1"/>
<path class="st1" d="M389.6,2136.1h-26.5v13.5h26.5V2136.1z M367.3,2145.3v-5.1h18.1v5.1H367.3z"/>
<rect x="367.3" y="2140.3" class="st2" width="18.1" height="5.1"/>
<path class="st1" d="M428.5,2136.1H402v13.5h26.5V2136.1z M406.2,2145.3v-5.1h18.1v5.1H406.2z"/>
<rect x="406.2" y="2140.3" class="st2" width="18.1" height="5.1"/>
<rect x="-660.9" y="690.8" class="st0" width="34.4" height="34.4"/>
<rect x="-699.5" y="729.6" class="st2" width="34.4" height="34.4"/>
<rect x="-738.2" y="729.6" class="st0" width="34.4" height="34.4"/>
<rect x="-660.9" y="729.6" class="st0" width="34.4" height="34.4"/>
<rect x="-699.5" y="768.2" class="st0" width="34.4" height="34.4"/>
<path class="st1" d="M-742.4,686.7v120.1h120.1V686.7H-742.4z M-738.2,690.8h34.4v34.4h-34.4V690.8z M-703.7,802.7h-34.5v-34.4h34.4
	L-703.7,802.7L-703.7,802.7z M-738.2,763.9v-34.4h34.4v34.4H-738.2z M-665.1,802.7h-34.4v-34.4h34.4V802.7z M-665.1,763.9h-34.4
	v-34.4h34.4V763.9z M-665.1,725.3h-34.4v-34.4h34.4V725.3z M-626.5,802.7H-661v-34.4h34.4V802.7z M-626.5,763.9H-661v-34.4h34.4
	V763.9z M-626.5,725.3H-661v-34.4h34.4V725.3z"/>
<rect x="-738.2" y="768.2" class="st0" width="34.4" height="34.4"/>
<rect x="-660.9" y="768.2" class="st0" width="34.4" height="34.4"/>
<rect x="-699.5" y="475.1" class="st2" width="34.4" height="34.4"/>
<rect x="-738.2" y="475.1" class="st0" width="34.4" height="34.4"/>
<path class="st1" d="M-606.7,505.4v-26.5h-13.5v26.5H-606.7z M-616,483.2h5.1v18.1h-5.1V483.2z"/>
<rect x="-616" y="483.2" class="st2" width="5.1" height="18.1"/>
<path class="st1" d="M-606.7,544.1v-26.5h-13.5v26.5H-606.7z M-616,521.8h5.1v18.1h-5.1V521.8z"/>
<rect x="-616" y="521.8" class="st2" width="5.1" height="18.1"/>
<path class="st1" d="M-606.7,582.9v-26.5h-13.5v26.5H-606.7z M-616,560.7h5.1v18.1h-5.1V560.7z"/>
<rect x="-616" y="560.7" class="st2" width="5.1" height="18.1"/>
<path class="st1" d="M-744.5,505.4v-26.5H-758v26.5H-744.5z M-753.7,483.2h5.1v18.1h-5.1V483.2z"/>
<rect x="-753.7" y="483.2" class="st2" width="5.1" height="18.1"/>
<path class="st1" d="M-744.5,544.1v-26.5H-758v26.5H-744.5z M-753.7,521.8h5.1v18.1h-5.1V521.8z"/>
<rect x="-753.7" y="521.8" class="st2" width="5.1" height="18.1"/>
<path class="st1" d="M-744.5,582.9v-26.5H-758v26.5H-744.5z M-753.7,560.7h5.1v18.1h-5.1V560.7z"/>
<rect x="-753.7" y="560.7" class="st2" width="5.1" height="18.1"/>
<rect x="-660.9" y="475.1" class="st0" width="34.4" height="34.4"/>
<rect x="-699.5" y="513.7" class="st2" width="34.4" height="34.4"/>
<rect x="-738.2" y="513.7" class="st0" width="34.4" height="34.4"/>
<rect x="-660.9" y="513.7" class="st0" width="34.4" height="34.4"/>
<rect x="-699.5" y="552.3" class="st2" width="34.4" height="34.4"/>
<path class="st1" d="M-742.4,470.8v120.1h120.1V470.8H-742.4z M-738.2,475.1h34.4v34.4h-34.4V475.1z M-703.7,586.8h-34.5v-34.4h34.4
	L-703.7,586.8L-703.7,586.8z M-738.2,548.2v-34.4h34.4v34.4H-738.2z M-665.1,586.8h-34.4v-34.4h34.4V586.8z M-665.1,548.2h-34.4
	v-34.4h34.4V548.2z M-665.1,509.4h-34.4V475h34.4V509.4z M-626.5,586.8H-661v-34.4h34.4V586.8z M-626.5,548.2H-661v-34.4h34.4V548.2
	z M-626.5,509.4H-661V475h34.4V509.4z"/>
<rect x="-738.2" y="552.3" class="st0" width="34.4" height="34.4"/>
<rect x="-660.9" y="552.3" class="st0" width="34.4" height="34.4"/>
<rect x="-439.2" y="475.1" class="st0" width="34.4" height="34.4"/>
<rect x="-477.8" y="475.1" class="st2" width="34.4" height="34.4"/>
<path class="st1" d="M-408.7,455.2h-26.5v13.5h26.5V455.2z M-431,464.6v-5.1h18.1v5.1H-431z"/>
<rect x="-431" y="459.4" class="st2" width="18.1" height="5.1"/>
<path class="st1" d="M-346.4,544.1v-26.5h-13.5v26.5H-346.4z M-355.6,521.8h5.1v18.1h-5.1V521.8z"/>
<rect x="-355.6" y="521.8" class="st2" width="5.1" height="18.1"/>
<path class="st1" d="M-484.1,544.1v-26.5h-13.5v26.5H-484.1z M-493.4,521.8h5.1v18.1h-5.1V521.8z"/>
<rect x="-493.4" y="521.8" class="st2" width="5.1" height="18.1"/>
<path class="st1" d="M-408.7,593.1h-26.5v13.5h26.5V593.1z M-431,602.3v-5.1h18.1v5.1H-431z"/>
<rect x="-431" y="597.2" class="st2" width="18.1" height="5.1"/>
<rect x="-400.6" y="475.1" class="st2" width="34.4" height="34.4"/>
<rect x="-439.2" y="513.7" class="st2" width="34.4" height="34.4"/>
<rect x="-477.8" y="513.7" class="st0" width="34.4" height="34.4"/>
<rect x="-400.6" y="513.7" class="st0" width="34.4" height="34.4"/>
<rect x="-439.2" y="552.3" class="st0" width="34.4" height="34.4"/>
<path class="st1" d="M-482,470.8v120.1H-362V470.8H-482z M-477.8,475.1h34.4v34.4h-34.4V475.1z M-443.4,586.8h-34.4v-34.4h34.4
	V586.8z M-477.8,548.2v-34.4h34.4v34.4H-477.8z M-404.8,586.8h-34.4v-34.4h34.4V586.8z M-404.8,548.2h-34.4v-34.4h34.4V548.2z
	 M-404.8,509.4h-34.4V475h34.4V509.4z M-366.1,586.8h-34.4v-34.4h34.4V586.8z M-366.1,548.2h-34.4v-34.4h34.4V548.2z M-366.1,509.4
	h-34.4V475h34.4V509.4z"/>
<rect x="-477.8" y="552.3" class="st2" width="34.4" height="34.4"/>
<rect x="-400.6" y="552.3" class="st2" width="34.4" height="34.4"/>
<rect x="-180.4" y="475.1" class="st0" width="34.4" height="34.4"/>
<rect x="-218.9" y="475.1" class="st2" width="34.4" height="34.4"/>
<path class="st1" d="M-149.9,455.2h-26.5v13.5h26.5V455.2z M-172.1,464.6v-5.1h18.1v5.1H-172.1z"/>
<rect x="-172.1" y="459.4" class="st2" width="18.1" height="5.1"/>
<path class="st1" d="M-87.4,544.1v-26.5h-13.5v26.5H-87.4z M-96.7,521.8h5.1v18.1h-5.1V521.8z"/>
<rect x="-96.7" y="521.8" class="st2" width="5.1" height="18.1"/>
<path class="st1" d="M-87.4,582.9v-26.5h-13.5v26.5H-87.4z M-96.7,560.7h5.1v18.1h-5.1V560.7z"/>
<rect x="-96.7" y="560.7" class="st2" width="5.1" height="18.1"/>
<path class="st1" d="M-225.2,544.1v-26.5h-13.5v26.5H-225.2z M-234.5,521.8h5.1v18.1h-5.1V521.8z"/>
<rect x="-234.5" y="521.8" class="st2" width="5.1" height="18.1"/>
<path class="st1" d="M-225.2,582.9v-26.5h-13.5v26.5H-225.2z M-234.5,560.7h5.1v18.1h-5.1V560.7z"/>
<rect x="-234.5" y="560.7" class="st2" width="5.1" height="18.1"/>
<path class="st1" d="M-149.9,593.1h-26.5v13.5h26.5V593.1z M-172.1,602.3v-5.1h18.1v5.1H-172.1z"/>
<rect x="-172.1" y="597.2" class="st2" width="18.1" height="5.1"/>
<rect x="-141.6" y="475.1" class="st2" width="34.4" height="34.4"/>
<rect x="-180.2" y="513.7" class="st2" width="34.4" height="34.4"/>
<rect x="-218.9" y="513.7" class="st0" width="34.4" height="34.4"/>
<rect x="-141.6" y="513.7" class="st0" width="34.4" height="34.4"/>
<rect x="-180.4" y="552.3" class="st0" width="34.4" height="34.4"/>
<path class="st1" d="M-223.1,470.8v120.1H-103V470.8H-223.1z M-218.9,475.1h34.4v34.4h-34.4V475.1z M-184.5,586.8h-34.4v-34.4h34.4
	V586.8z M-218.9,548.2v-34.4h34.4v34.4H-218.9z M-145.9,586.8h-34.4v-34.4h34.4V586.8z M-145.9,548.2h-34.4v-34.4h34.4V548.2z
	 M-145.9,509.4h-34.4V475h34.4V509.4z M-107.2,586.8h-34.4v-34.4h34.4V586.8z M-107.2,548.2h-34.4v-34.4h34.4V548.2z M-107.2,509.4
	h-34.4V475h34.4V509.4z"/>
<rect x="-218.9" y="552.3" class="st0" width="34.4" height="34.4"/>
<rect x="-141.6" y="552.3" class="st0" width="34.4" height="34.4"/>
<rect x="71.1" y="475.1" class="st0" width="34.4" height="34.4"/>
<rect x="32.5" y="475.1" class="st0" width="34.4" height="34.4"/>
<path class="st1" d="M63,455.2H36.5v13.5H63V455.2z M40.6,464.6v-5.1h18.1v5.1H40.6z"/>
<rect x="40.6" y="459.4" class="st2" width="18.1" height="5.1"/>
<path class="st1" d="M101.6,455.2H75.1v13.5h26.5V455.2z M79.4,464.6v-5.1h18.1v5.1H79.4z"/>
<rect x="79.4" y="459.4" class="st2" width="18.1" height="5.1"/>
<path class="st1" d="M140.5,455.2H114v13.5h26.5V455.2z M118.1,464.6v-5.1h18.1v5.1H118.1z"/>
<rect x="118.1" y="459.4" class="st2" width="18.1" height="5.1"/>
<path class="st1" d="M164,544.1v-26.5h-13.5v26.5H164z M154.8,521.8h5.1v18.1h-5.1V521.8z"/>
<rect x="154.8" y="521.8" class="st2" width="5.1" height="18.1"/>
<path class="st1" d="M26.1,544.1v-26.5H12.8v26.5H26.1z M17,521.8h5.1v18.1H17V521.8z"/>
<rect x="17" y="521.8" class="st2" width="5.1" height="18.1"/>
<path class="st1" d="M101.6,593.1H75.1v13.5h26.5V593.1z M79.4,602.3v-5.1h18.1v5.1H79.4z"/>
<rect x="79.4" y="597.2" class="st2" width="18.1" height="5.1"/>
<rect x="109.8" y="475.1" class="st0" width="34.4" height="34.4"/>
<rect x="71.1" y="513.7" class="st2" width="34.4" height="34.4"/>
<rect x="32.5" y="513.7" class="st0" width="34.4" height="34.4"/>
<rect x="109.8" y="513.7" class="st0" width="34.4" height="34.4"/>
<rect x="71.1" y="552.3" class="st0" width="34.4" height="34.4"/>
<path class="st1" d="M28.3,470.8v120.1h120.1V470.8H28.3z M32.5,475.1h34.4v34.4H32.5V475.1z M67,586.8H32.6v-34.4H67V586.8z
	 M32.5,548.2v-34.4h34.4v34.4H32.5z M105.6,586.8H71.2v-34.4h34.4V586.8z M105.6,548.2H71.2v-34.4h34.4V548.2z M105.6,509.4H71.2
	V475h34.4V509.4z M144.3,586.8h-34.5v-34.4h34.4v34.4H144.3z M144.3,548.2h-34.5v-34.4h34.4v34.4H144.3z M144.3,509.4h-34.5V475
	h34.4v34.4H144.3z"/>
<rect x="32.5" y="552.3" class="st2" width="34.4" height="34.4"/>
<rect x="109.8" y="552.3" class="st2" width="34.4" height="34.4"/>
<rect x="327.1" y="475.1" class="st0" width="34.4" height="34.4"/>
<rect x="288.5" y="475.1" class="st2" width="34.4" height="34.4"/>
<path class="st1" d="M357.6,455.2h-26.5v13.5h26.5V455.2z M335.3,464.6v-5.1h18.1v5.1H335.3z"/>
<rect x="335.3" y="459.4" class="st2" width="18.1" height="5.1"/>
<path class="st1" d="M396.5,455.2H370v13.5h26.5V455.2z M374.1,464.6v-5.1h18.1v5.1H374.1z"/>
<rect x="374.1" y="459.4" class="st2" width="18.1" height="5.1"/>
<path class="st1" d="M420,544.1v-26.5h-13.5v26.5H420z M410.6,521.8h5.1v18.1h-5.1V521.8z"/>
<rect x="410.6" y="521.8" class="st2" width="5.1" height="18.1"/>
<path class="st1" d="M282.1,544.1v-26.5h-13.5v26.5H282.1z M272.9,521.8h5.1v18.1h-5.1V521.8z"/>
<rect x="272.9" y="521.8" class="st2" width="5.1" height="18.1"/>
<path class="st1" d="M282.1,582.9v-26.5h-13.5v26.5H282.1z M272.9,560.7h5.1v18.1h-5.1V560.7z"/>
<rect x="272.9" y="560.7" class="st2" width="5.1" height="18.1"/>
<path class="st1" d="M357.6,593.1h-26.5v13.5h26.5V593.1z M335.3,602.3v-5.1h18.1v5.1H335.3z"/>
<rect x="335.3" y="597.2" class="st2" width="18.1" height="5.1"/>
<rect x="365.8" y="475.1" class="st0" width="34.4" height="34.4"/>
<rect x="327.1" y="513.7" class="st2" width="34.4" height="34.4"/>
<rect x="288.5" y="513.7" class="st0" width="34.4" height="34.4"/>
<rect x="365.8" y="513.7" class="st0" width="34.4" height="34.4"/>
<rect x="327.1" y="552.3" class="st0" width="34.4" height="34.4"/>
<path class="st1" d="M284.3,470.8v120.1h120.1V470.8H284.3z M288.5,475.1h34.4v34.4h-34.4V475.1z M322.9,586.8h-34.4v-34.4h34.4
	V586.8z M288.5,548.2v-34.4h34.4v34.4H288.5z M361.6,586.8h-34.4v-34.4h34.4V586.8z M361.6,548.2h-34.4v-34.4h34.4V548.2z
	 M361.6,509.4h-34.4V475h34.4V509.4z M400.1,586.8h-34.4v-34.4h34.4V586.8z M400.1,548.2h-34.4v-34.4h34.4V548.2z M400.1,509.4
	h-34.4V475h34.4V509.4z"/>
<rect x="288.5" y="552.3" class="st0" width="34.4" height="34.4"/>
<rect x="365.8" y="552.3" class="st2" width="34.4" height="34.4"/>
<rect x="577.1" y="475.1" class="st0" width="34.4" height="34.4"/>
<rect x="538.5" y="475.1" class="st0" width="34.4" height="34.4"/>
<path class="st1" d="M569,455.2h-26.5v13.5H569V455.2z M546.6,464.6v-5.1h18.1v5.1H546.6z"/>
<rect x="546.6" y="459.4" class="st2" width="18.1" height="5.1"/>
<path class="st1" d="M607.6,455.2h-26.5v13.5h26.5V455.2z M585.3,464.6v-5.1h18.1v5.1H585.3z"/>
<rect x="585.3" y="459.4" class="st2" width="18.1" height="5.1"/>
<path class="st1" d="M670,505.4v-26.5h-13.5v26.5H670z M660.6,483.2h5.1v18.1h-5.1V483.2z"/>
<rect x="660.6" y="483.2" class="st2" width="5.1" height="18.1"/>
<path class="st1" d="M670,544.1v-26.5h-13.5v26.5H670z M660.6,521.8h5.1v18.1h-5.1V521.8z"/>
<rect x="660.6" y="521.8" class="st2" width="5.1" height="18.1"/>
<path class="st1" d="M532.1,544.1v-26.5h-13.5v26.5H532.1z M522.9,521.8h5.1v18.1h-5.1V521.8z"/>
<rect x="522.9" y="521.8" class="st2" width="5.1" height="18.1"/>
<path class="st1" d="M532.1,582.9v-26.5h-13.5v26.5H532.1z M522.9,560.7h5.1v18.1h-5.1V560.7z"/>
<rect x="522.9" y="560.7" class="st2" width="5.1" height="18.1"/>
<path class="st1" d="M607.6,593.1h-26.5v13.5h26.5V593.1z M585.3,602.3v-5.1h18.1v5.1H585.3z"/>
<rect x="585.3" y="597.2" class="st2" width="18.1" height="5.1"/>
<rect x="615.8" y="475.1" class="st0" width="34.4" height="34.4"/>
<rect x="577.1" y="513.7" class="st2" width="34.4" height="34.4"/>
<rect x="538.5" y="513.7" class="st0" width="34.4" height="34.4"/>
<rect x="615.8" y="513.7" class="st0" width="34.4" height="34.4"/>
<rect x="577.1" y="552.3" class="st0" width="34.4" height="34.4"/>
<path class="st1" d="M534.3,470.8v120.1h120.1V470.8H534.3z M538.5,475.1h34.4v34.4h-34.4V475.1z M572.9,586.8h-34.4v-34.4h34.4
	V586.8z M538.5,548.2v-34.4h34.4v34.4H538.5z M611.6,586.8h-34.4v-34.4h34.4V586.8z M611.6,548.2h-34.4v-34.4h34.4V548.2z
	 M611.6,509.4h-34.4V475h34.4V509.4z M650.1,586.8h-34.4v-34.4h34.4V586.8z M650.1,548.2h-34.4v-34.4h34.4V548.2z M650.1,509.4
	h-34.4V475h34.4V509.4z"/>
<rect x="538.5" y="552.3" class="st0" width="34.4" height="34.4"/>
<rect x="615.8" y="552.3" class="st2" width="34.4" height="34.4"/>
<rect x="833.8" y="475.1" class="st0" width="34.4" height="34.4"/>
<rect x="795.1" y="475.1" class="st0" width="34.4" height="34.4"/>
<path class="st1" d="M864.1,455.2h-26.5v13.5h26.5V455.2z M841.9,464.6v-5.1H860v5.1H841.9z"/>
<rect x="841.9" y="459.4" class="st2" width="18.1" height="5.1"/>
<path class="st1" d="M926.6,544.1v-26.5h-13.5v26.5H926.6z M917.3,521.8h5.1v18.1h-5.1V521.8z"/>
<rect x="917.3" y="521.8" class="st2" width="5.1" height="18.1"/>
<path class="st1" d="M926.6,582.9v-26.5h-13.5v26.5H926.6z M917.3,560.7h5.1v18.1h-5.1V560.7z"/>
<rect x="917.3" y="560.7" class="st2" width="5.1" height="18.1"/>
<path class="st1" d="M788.8,505.4v-26.5h-13.5v26.5H788.8z M779.6,483.2h5.1v18.1h-5.1V483.2z"/>
<rect x="779.6" y="483.2" class="st2" width="5.1" height="18.1"/>
<path class="st1" d="M788.8,544.1v-26.5h-13.5v26.5H788.8z M779.6,521.8h5.1v18.1h-5.1V521.8z"/>
<rect x="779.6" y="521.8" class="st2" width="5.1" height="18.1"/>
<path class="st1" d="M825.6,593.1h-26.5v13.5h26.5V593.1z M803.3,602.3v-5.1h18.1v5.1H803.3z"/>
<rect x="803.3" y="597.2" class="st2" width="18.1" height="5.1"/>
<path class="st1" d="M864.1,593.1h-26.5v13.5h26.5V593.1z M841.9,602.3v-5.1H860v5.1H841.9z"/>
<rect x="841.9" y="597.2" class="st2" width="18.1" height="5.1"/>
<rect x="872.4" y="475.1" class="st2" width="34.4" height="34.4"/>
<rect x="833.8" y="513.7" class="st2" width="34.4" height="34.4"/>
<rect x="795.1" y="513.7" class="st0" width="34.4" height="34.4"/>
<rect x="872.4" y="513.7" class="st0" width="34.4" height="34.4"/>
<rect x="833.8" y="552.3" class="st0" width="34.4" height="34.4"/>
<path class="st1" d="M790.9,470.8v120.1H911V470.8H790.9z M795.1,475.1h34.4v34.4h-34.4V475.1z M829.6,586.8h-34.4v-34.4h34.4V586.8
	z M795.1,548.2v-34.4h34.4v34.4H795.1z M868.1,586.8h-34.4v-34.4h34.4V586.8z M868.1,548.2h-34.4v-34.4h34.4V548.2z M868.1,509.4
	h-34.4V475h34.4V509.4z M906.8,586.8h-34.4v-34.4h34.4V586.8z M906.8,548.2h-34.4v-34.4h34.4V548.2z M906.8,509.4h-34.4V475h34.4
	V509.4z"/>
<rect x="795.1" y="552.3" class="st0" width="34.4" height="34.4"/>
<rect x="872.4" y="552.3" class="st0" width="34.4" height="34.4"/>
<rect x="58.4" y="19.7" class="st2" width="34.4" height="34.4"/>
<rect x="19.8" y="19.7" class="st0" width="34.4" height="34.4"/>
<path class="st1" d="M50.3,0H23.8v13.5h26.5V0z M27.9,9.2V4.1h18.1v5.1H27.9z"/>
<rect x="27.9" y="4.1" class="st2" width="18.1" height="5.1"/>
<path class="st1" d="M151.3,50.1V23.6h-13.5v26.5H151.3z M141.9,27.7h5.1v18.1h-5.1V27.7z"/>
<rect x="141.9" y="27.7" class="st2" width="5.1" height="18.1"/>
<path class="st1" d="M151.3,88.6V62.1h-13.5v26.5H151.3z M141.9,66.5h5.1v18.1h-5.1V66.5z"/>
<rect x="141.9" y="66.5" class="st2" width="5.1" height="18.1"/>
<path class="st1" d="M151.3,127.6v-26.5h-13.5v26.5H151.3z M141.9,105.2h5.1v18.1h-5.1V105.2z"/>
<rect x="141.9" y="105.2" class="st2" width="5.1" height="18.1"/>
<path class="st1" d="M13.4,88.6V62.1H-0.1v26.5H13.4z M4.2,66.5h5.1v18.1H4.2V66.5z"/>
<rect x="4.2" y="66.5" class="st2" width="5.1" height="18.1"/>
<path class="st1" d="M50.3,137.7H23.8v13.5h26.5V137.7z M27.9,147v-5.1h18.1v5.1H27.9z"/>
<rect x="27.9" y="142" class="st2" width="18.1" height="5.1"/>
<rect x="97.1" y="19.7" class="st0" width="34.4" height="34.4"/>
<rect x="58.4" y="58.4" class="st2" width="34.4" height="34.4"/>
<rect x="19.8" y="58.4" class="st0" width="34.4" height="34.4"/>
<rect x="97.1" y="58.4" class="st0" width="34.4" height="34.4"/>
<rect x="58.4" y="97" class="st2" width="34.4" height="34.4"/>
<path class="st1" d="M15.6,15.6v120.1h120.1V15.6H15.6z M19.8,19.7h34.4v34.4H19.8V19.7z M54.2,131.5H19.8V97.1h34.4V131.5z
	 M19.8,92.7V58.3h34.4v34.4H19.8z M92.9,131.5H58.5V97.1h34.4V131.5z M92.9,92.7H58.5V58.3h34.4V92.7z M92.9,54.1H58.5V19.7h34.4
	V54.1z M131.4,131.5H97.1V97.1h34.4V131.5z M131.4,92.7H97.1V58.3h34.4V92.7z M131.4,54.1H97.1V19.7h34.4V54.1z"/>
<rect x="19.8" y="97" class="st0" width="34.4" height="34.4"/>
<rect x="97.1" y="97" class="st0" width="34.4" height="34.4"/>
<rect x="587" y="223.9" class="st0" width="34.4" height="34.4"/>
<rect x="548.4" y="223.9" class="st0" width="34.4" height="34.4"/>
<path class="st1" d="M617.5,204.2H591v13.5h26.5V204.2z M595.1,213.4v-5.1h18.1v5.1H595.1z"/>
<rect x="595.1" y="208.3" class="st2" width="18.1" height="5.1"/>
<path class="st1" d="M656.3,204.2h-26.5v13.5h26.5V204.2z M634,213.4v-5.1h18.1v5.1H634z"/>
<rect x="634" y="208.3" class="st2" width="18.1" height="5.1"/>
<path class="st1" d="M542.1,254.2v-26.5h-13.5v26.5H542.1z M532.8,231.9h5.1V250h-5.1V231.9z"/>
<rect x="532.8" y="231.9" class="st2" width="5.1" height="18.1"/>
<path class="st1" d="M542.1,331.8v-26.5h-13.5v26.5H542.1z M532.8,309.4h5.1v18.1h-5.1V309.4z"/>
<rect x="532.8" y="309.4" class="st2" width="5.1" height="18.1"/>
<path class="st1" d="M617.5,341.9H591v13.5h26.5V341.9z M595.1,351.2v-5.1h18.1v5.1H595.1z"/>
<rect x="595.1" y="346.2" class="st2" width="18.1" height="5.1"/>
<path class="st1" d="M656.3,341.9h-26.5v13.5h26.5V341.9z M634,351.2v-5.1h18.1v5.1H634z"/>
<rect x="634" y="346.2" class="st2" width="18.1" height="5.1"/>
<rect x="625.6" y="223.9" class="st0" width="34.4" height="34.4"/>
<rect x="587" y="262.6" class="st2" width="34.4" height="34.4"/>
<rect x="548.4" y="262.6" class="st2" width="34.4" height="34.4"/>
<rect x="625.6" y="262.6" class="st2" width="34.4" height="34.4"/>
<rect x="587" y="301.2" class="st0" width="34.4" height="34.4"/>
<path class="st1" d="M544.1,219.7v120.1h120.1V219.7H544.1z M548.4,223.9h34.4v34.4h-34.4V223.9z M582.8,335.7h-34.4v-34.4h34.4
	V335.7z M548.4,296.9v-34.4h34.4v34.4H548.4z M621.4,335.7H587v-34.4h34.4V335.7z M621.4,296.9H587v-34.4h34.4V296.9z M621.4,258.3
	H587v-34.4h34.4V258.3z M660.1,335.7h-34.4v-34.4h34.4V335.7z M660.1,296.9h-34.4v-34.4h34.4V296.9z M660.1,258.3h-34.4v-34.4h34.4
	V258.3z"/>
<rect x="548.4" y="301.2" class="st0" width="34.4" height="34.4"/>
<rect x="625.6" y="301.2" class="st0" width="34.4" height="34.4"/>
<rect x="833.8" y="223.9" class="st0" width="34.4" height="34.4"/>
<rect x="795.1" y="223.9" class="st0" width="34.4" height="34.4"/>
<path class="st1" d="M864.1,204.2h-26.5v13.5h26.5V204.2z M841.9,213.4v-5.1H860v5.1H841.9z"/>
<rect x="841.9" y="208.3" class="st2" width="18.1" height="5.1"/>
<path class="st1" d="M926.6,254.2v-26.5h-13.5v26.5H926.6z M917.3,231.9h5.1V250h-5.1V231.9z"/>
<rect x="917.3" y="231.9" class="st2" width="5.1" height="18.1"/>
<path class="st1" d="M926.6,331.8v-26.5h-13.5v26.5H926.6z M917.3,309.4h5.1v18.1h-5.1V309.4z"/>
<rect x="917.3" y="309.4" class="st2" width="5.1" height="18.1"/>
<path class="st1" d="M788.8,254.2v-26.5h-13.5v26.5H788.8z M779.6,231.9h5.1V250h-5.1V231.9z"/>
<rect x="779.6" y="231.9" class="st2" width="5.1" height="18.1"/>
<path class="st1" d="M788.8,331.8v-26.5h-13.5v26.5H788.8z M779.6,309.4h5.1v18.1h-5.1V309.4z"/>
<rect x="779.6" y="309.4" class="st2" width="5.1" height="18.1"/>
<path class="st1" d="M864.1,341.9h-26.5v13.5h26.5V341.9z M841.9,351.2v-5.1H860v5.1H841.9z"/>
<rect x="841.9" y="346.2" class="st2" width="18.1" height="5.1"/>
<rect x="872.4" y="223.9" class="st0" width="34.4" height="34.4"/>
<rect x="833.8" y="262.6" class="st2" width="34.4" height="34.4"/>
<rect x="795.1" y="262.6" class="st2" width="34.4" height="34.4"/>
<rect x="872.4" y="262.6" class="st2" width="34.4" height="34.4"/>
<rect x="833.8" y="301.2" class="st0" width="34.4" height="34.4"/>
<path class="st1" d="M790.9,219.7v120.1H911V219.7H790.9z M795.1,223.9h34.4v34.4h-34.4V223.9z M829.6,335.7h-34.4v-34.4h34.4V335.7
	z M795.1,296.9v-34.4h34.4v34.4H795.1z M868.1,335.7h-34.4v-34.4h34.4V335.7z M868.1,296.9h-34.4v-34.4h34.4V296.9z M868.1,258.3
	h-34.4v-34.4h34.4V258.3z M906.8,335.7h-34.4v-34.4h34.4V335.7z M906.8,296.9h-34.4v-34.4h34.4V296.9z M906.8,258.3h-34.4v-34.4
	h34.4V258.3z"/>
<rect x="795.1" y="301.2" class="st0" width="34.4" height="34.4"/>
<rect x="872.4" y="301.2" class="st0" width="34.4" height="34.4"/>
</svg>
