<?xml version="1.0" encoding="utf-8"?>
<!-- Generator: Adobe Illustrator 19.2.0, SVG Export Plug-In . SVG Version: 6.00 Build 0)  -->
<svg version="1.1" id="Layer_1" xmlns="http://www.w3.org/2000/svg" xmlns:xlink="http://www.w3.org/1999/xlink" x="0px" y="0px"
	 viewBox="0 0 151.2 151.2" style="enable-background:new 0 0 151.2 151.2;" xml:space="preserve">
<style type="text/css">
	.st0{fill:#BCBEC0;}
	.st1{fill:#212744;}
	.st2{fill:#F9C739;}
</style>
<rect x="210.2" y="1052.4" class="st0" width="34.4" height="34.4"/>
<rect x="171.5" y="1052.4" class="st0" width="34.4" height="34.4"/>
<path class="st1" d="M240.6,1032.7h-26.5v13.5h26.5V1032.7z M218.3,1041.9v-5.1h18.1v5.1H218.3z"/>
<rect x="218.3" y="1036.9" class="st2" width="18.1" height="5.1"/>
<path class="st1" d="M279.5,1032.7H253v13.5h26.5V1032.7z M257.2,1041.9v-5.1h18.1v5.1H257.2z"/>
<rect x="257.2" y="1036.9" class="st2" width="18.1" height="5.1"/>
<path class="st1" d="M303,1121.4v-26.5h-13.5v26.5H303z M293.7,1099.1h5.1v18.1h-5.1V1099.1z"/>
<rect x="293.7" y="1099.1" class="st2" width="5.1" height="18.1"/>
<path class="st1" d="M165.2,1082.8v-26.5h-13.5v26.5H165.2z M156,1060.5h5.1v18.1H156V1060.5z"/>
<rect x="156" y="1060.5" class="st2" width="5.1" height="18.1"/>
<path class="st1" d="M165.2,1121.4v-26.5h-13.5v26.5H165.2z M156,1099.1h5.1v18.1H156V1099.1z"/>
<rect x="156" y="1099.1" class="st2" width="5.1" height="18.1"/>
<path class="st1" d="M165.2,1160.3v-26.5h-13.5v26.5H165.2z M156,1138h5.1v18.1H156V1138z"/>
<rect x="156" y="1138" class="st2" width="5.1" height="18.1"/>
<path class="st1" d="M389.6,2136.1h-26.5v13.5h26.5V2136.1z M367.3,2145.3v-5.1h18.1v5.1H367.3z"/>
<rect x="367.3" y="2140.3" class="st2" width="18.1" height="5.1"/>
<path class="st1" d="M428.5,2136.1H402v13.5h26.5V2136.1z M406.2,2145.3v-5.1h18.1v5.1H406.2z"/>
<rect x="406.2" y="2140.3" class="st2" width="18.1" height="5.1"/>
<rect x="248.8" y="1052.4" class="st0" width="34.4" height="34.4"/>
<rect x="210.2" y="1091.1" class="st2" width="34.4" height="34.4"/>
<rect x="171.5" y="1091.1" class="st0" width="34.4" height="34.4"/>
<rect x="248.8" y="1091.1" class="st0" width="34.4" height="34.4"/>
<rect x="210.2" y="1129.7" class="st0" width="34.4" height="34.4"/>
<path class="st1" d="M167.3,1048.2v120.1h120.1v-120.1H167.3z M171.5,1052.4h34.4v34.4h-34.4V1052.4z M206,1164.2h-34.5v-34.4h34.4
	L206,1164.2L206,1164.2z M171.5,1125.5v-34.4h34.4v34.4H171.5z M244.6,1164.2h-34.4v-34.4h34.4V1164.2z M244.6,1125.5h-34.4v-34.4
	h34.4V1125.5z M244.6,1086.9h-34.4v-34.4h34.4V1086.9z M283.2,1164.2h-34.4v-34.4h34.4V1164.2z M283.2,1125.5h-34.4v-34.4h34.4
	V1125.5z M283.2,1086.9h-34.4v-34.4h34.4V1086.9z"/>
<rect x="171.5" y="1129.7" class="st0" width="34.4" height="34.4"/>
<rect x="248.8" y="1129.7" class="st0" width="34.4" height="34.4"/>
<rect x="210.2" y="836.6" class="st2" width="34.4" height="34.4"/>
<rect x="171.5" y="836.6" class="st0" width="34.4" height="34.4"/>
<path class="st1" d="M303,867v-26.5h-13.5V867H303z M293.7,844.7h5.1v18.1h-5.1V844.7z"/>
<rect x="293.7" y="844.7" class="st2" width="5.1" height="18.1"/>
<path class="st1" d="M303,905.6v-26.5h-13.5v26.5H303z M293.7,883.3h5.1v18.1h-5.1V883.3z"/>
<rect x="293.7" y="883.3" class="st2" width="5.1" height="18.1"/>
<path class="st1" d="M303,944.5V918h-13.5v26.5H303z M293.7,922.2h5.1v18.1h-5.1V922.2z"/>
<rect x="293.7" y="922.2" class="st2" width="5.1" height="18.1"/>
<path class="st1" d="M165.2,867v-26.5h-13.5V867H165.2z M156,844.7h5.1v18.1H156V844.7z"/>
<rect x="156" y="844.7" class="st2" width="5.1" height="18.1"/>
<path class="st1" d="M165.2,905.6v-26.5h-13.5v26.5H165.2z M156,883.3h5.1v18.1H156V883.3z"/>
<rect x="156" y="883.3" class="st2" width="5.1" height="18.1"/>
<path class="st1" d="M165.2,944.5V918h-13.5v26.5H165.2z M156,922.2h5.1v18.1H156V922.2z"/>
<rect x="156" y="922.2" class="st2" width="5.1" height="18.1"/>
<rect x="248.8" y="836.6" class="st0" width="34.4" height="34.4"/>
<rect x="210.2" y="875.2" class="st2" width="34.4" height="34.4"/>
<rect x="171.5" y="875.2" class="st0" width="34.4" height="34.4"/>
<rect x="248.8" y="875.2" class="st0" width="34.4" height="34.4"/>
<rect x="210.2" y="913.9" class="st2" width="34.4" height="34.4"/>
<path class="st1" d="M167.3,832.4v120.1h120.1V832.4H167.3z M171.5,836.6h34.4V871h-34.4V836.6z M206,948.3h-34.5v-34.4h34.4
	L206,948.3L206,948.3z M171.5,909.7v-34.4h34.4v34.4H171.5z M244.6,948.3h-34.4v-34.4h34.4V948.3z M244.6,909.7h-34.4v-34.4h34.4
	V909.7z M244.6,871h-34.4v-34.4h34.4V871z M283.2,948.3h-34.4v-34.4h34.4V948.3z M283.2,909.7h-34.4v-34.4h34.4V909.7z M283.2,871
	h-34.4v-34.4h34.4V871z"/>
<rect x="171.5" y="913.9" class="st0" width="34.4" height="34.4"/>
<rect x="248.8" y="913.9" class="st0" width="34.4" height="34.4"/>
<rect x="470.5" y="836.6" class="st0" width="34.4" height="34.4"/>
<rect x="431.9" y="836.6" class="st2" width="34.4" height="34.4"/>
<path class="st1" d="M501,816.8h-26.5v13.5H501V816.8z M478.7,826.1V821h18.1v5.1H478.7z"/>
<rect x="478.7" y="821" class="st2" width="18.1" height="5.1"/>
<path class="st1" d="M563.3,905.6v-26.5h-13.5v26.5H563.3z M554.1,883.3h5.1v18.1h-5.1V883.3z"/>
<rect x="554.1" y="883.3" class="st2" width="5.1" height="18.1"/>
<path class="st1" d="M425.6,905.6v-26.5h-13.5v26.5H425.6z M416.3,883.3h5.1v18.1h-5.1V883.3z"/>
<rect x="416.3" y="883.3" class="st2" width="5.1" height="18.1"/>
<path class="st1" d="M501,954.6h-26.5v13.5H501V954.6z M478.7,963.9v-5.1h18.1v5.1H478.7z"/>
<rect x="478.7" y="958.8" class="st2" width="18.1" height="5.1"/>
<rect x="509.1" y="836.6" class="st2" width="34.4" height="34.4"/>
<rect x="470.5" y="875.2" class="st2" width="34.4" height="34.4"/>
<rect x="431.9" y="875.2" class="st0" width="34.4" height="34.4"/>
<rect x="509.1" y="875.2" class="st0" width="34.4" height="34.4"/>
<rect x="470.5" y="913.9" class="st0" width="34.4" height="34.4"/>
<path class="st1" d="M427.7,832.4v120.1h120.1V832.4H427.7z M431.9,836.6h34.4V871h-34.4V836.6z M466.3,948.3h-34.4v-34.4h34.4
	V948.3z M431.9,909.7v-34.4h34.4v34.4H431.9z M504.9,948.3h-34.4v-34.4h34.4V948.3z M504.9,909.7h-34.4v-34.4h34.4V909.7z
	 M504.9,871h-34.4v-34.4h34.4V871z M543.6,948.3h-34.4v-34.4h34.4V948.3z M543.6,909.7h-34.4v-34.4h34.4V909.7z M543.6,871h-34.4
	v-34.4h34.4V871z"/>
<rect x="431.9" y="913.9" class="st2" width="34.4" height="34.4"/>
<rect x="509.1" y="913.9" class="st2" width="34.4" height="34.4"/>
<rect x="729.4" y="836.6" class="st0" width="34.4" height="34.4"/>
<rect x="690.8" y="836.6" class="st2" width="34.4" height="34.4"/>
<path class="st1" d="M759.9,816.8h-26.5v13.5h26.5V816.8z M737.6,826.1V821h18.1v5.1H737.6z"/>
<rect x="737.6" y="821" class="st2" width="18.1" height="5.1"/>
<path class="st1" d="M822.3,905.6v-26.5h-13.5v26.5H822.3z M813,883.3h5.1v18.1H813V883.3z"/>
<rect x="813" y="883.3" class="st2" width="5.1" height="18.1"/>
<path class="st1" d="M822.3,944.5V918h-13.5v26.5H822.3z M813,922.2h5.1v18.1H813V922.2z"/>
<rect x="813" y="922.2" class="st2" width="5.1" height="18.1"/>
<path class="st1" d="M684.5,905.6v-26.5H671v26.5H684.5z M675.2,883.3h5.1v18.1h-5.1V883.3z"/>
<rect x="675.2" y="883.3" class="st2" width="5.1" height="18.1"/>
<path class="st1" d="M684.5,944.5V918H671v26.5H684.5z M675.2,922.2h5.1v18.1h-5.1V922.2z"/>
<rect x="675.2" y="922.2" class="st2" width="5.1" height="18.1"/>
<path class="st1" d="M759.9,954.6h-26.5v13.5h26.5V954.6z M737.6,963.9v-5.1h18.1v5.1H737.6z"/>
<rect x="737.6" y="958.8" class="st2" width="18.1" height="5.1"/>
<rect x="768.1" y="836.6" class="st2" width="34.4" height="34.4"/>
<rect x="729.5" y="875.2" class="st2" width="34.4" height="34.4"/>
<rect x="690.8" y="875.2" class="st0" width="34.4" height="34.4"/>
<rect x="768.1" y="875.2" class="st0" width="34.4" height="34.4"/>
<rect x="729.4" y="913.9" class="st0" width="34.4" height="34.4"/>
<path class="st1" d="M686.6,832.4v120.1h120.1V832.4H686.6z M690.8,836.6h34.4V871h-34.4V836.6z M725.2,948.3h-34.4v-34.4h34.4
	V948.3z M690.8,909.7v-34.4h34.4v34.4H690.8z M763.9,948.3h-34.4v-34.4h34.4V948.3z M763.9,909.7h-34.4v-34.4h34.4V909.7z
	 M763.9,871h-34.4v-34.4h34.4V871z M802.5,948.3h-34.4v-34.4h34.4V948.3z M802.5,909.7h-34.4v-34.4h34.4V909.7z M802.5,871h-34.4
	v-34.4h34.4V871z"/>
<rect x="690.8" y="913.9" class="st0" width="34.4" height="34.4"/>
<rect x="768.1" y="913.9" class="st0" width="34.4" height="34.4"/>
<rect x="980.9" y="836.6" class="st0" width="34.4" height="34.4"/>
<rect x="942.2" y="836.6" class="st0" width="34.4" height="34.4"/>
<path class="st1" d="M972.7,816.8h-26.5v13.5h26.5V816.8z M950.4,826.1V821h18.1v5.1H950.4z"/>
<rect x="950.4" y="821" class="st2" width="18.1" height="5.1"/>
<path class="st1" d="M1011.3,816.8h-26.5v13.5h26.5V816.8z M989.1,826.1V821h18.1v5.1H989.1z"/>
<rect x="989.1" y="821" class="st2" width="18.1" height="5.1"/>
<path class="st1" d="M1050.2,816.8h-26.5v13.5h26.5V816.8z M1027.9,826.1V821h18.1v5.1H1027.9z"/>
<rect x="1027.9" y="821" class="st2" width="18.1" height="5.1"/>
<path class="st1" d="M1073.7,905.6v-26.5h-13.5v26.5H1073.7z M1064.5,883.3h5.1v18.1h-5.1V883.3z"/>
<rect x="1064.5" y="883.3" class="st2" width="5.1" height="18.1"/>
<path class="st1" d="M935.9,905.6v-26.5h-13.4v26.5H935.9z M926.7,883.3h5.1v18.1h-5.1V883.3z"/>
<rect x="926.7" y="883.3" class="st2" width="5.1" height="18.1"/>
<path class="st1" d="M1011.3,954.6h-26.5v13.5h26.5V954.6z M989.1,963.9v-5.1h18.1v5.1H989.1z"/>
<rect x="989.1" y="958.8" class="st2" width="18.1" height="5.1"/>
<rect x="1019.5" y="836.6" class="st0" width="34.4" height="34.4"/>
<rect x="980.9" y="875.2" class="st2" width="34.4" height="34.4"/>
<rect x="942.2" y="875.2" class="st0" width="34.4" height="34.4"/>
<rect x="1019.5" y="875.2" class="st0" width="34.4" height="34.4"/>
<rect x="980.9" y="913.9" class="st0" width="34.4" height="34.4"/>
<path class="st1" d="M938,832.4v120.1h120.1V832.4H938z M942.2,836.6h34.4V871h-34.4V836.6z M976.7,948.3h-34.4v-34.4h34.4V948.3z
	 M942.2,909.7v-34.4h34.4v34.4H942.2z M1015.3,948.3h-34.4v-34.4h34.4V948.3z M1015.3,909.7h-34.4v-34.4h34.4V909.7z M1015.3,871
	h-34.4v-34.4h34.4V871z M1054,948.3h-34.5v-34.4h34.4v34.4H1054z M1054,909.7h-34.5v-34.4h34.4v34.4H1054z M1054,871h-34.5v-34.4
	h34.4V871H1054z"/>
<rect x="942.2" y="913.9" class="st2" width="34.4" height="34.4"/>
<rect x="1019.5" y="913.9" class="st2" width="34.4" height="34.4"/>
<rect x="1236.8" y="836.6" class="st0" width="34.4" height="34.4"/>
<rect x="1198.2" y="836.6" class="st2" width="34.4" height="34.4"/>
<path class="st1" d="M1267.3,816.8h-26.5v13.5h26.5V816.8z M1245,826.1V821h18.1v5.1H1245z"/>
<rect x="1245" y="821" class="st2" width="18.1" height="5.1"/>
<path class="st1" d="M1306.2,816.8h-26.5v13.5h26.5V816.8z M1283.9,826.1V821h18.1v5.1H1283.9z"/>
<rect x="1283.9" y="821" class="st2" width="18.1" height="5.1"/>
<path class="st1" d="M1329.7,905.6v-26.5h-13.5v26.5H1329.7z M1320.4,883.3h5.1v18.1h-5.1V883.3z"/>
<rect x="1320.4" y="883.3" class="st2" width="5.1" height="18.1"/>
<path class="st1" d="M1191.9,905.6v-26.5h-13.5v26.5H1191.9z M1182.6,883.3h5.1v18.1h-5.1V883.3z"/>
<rect x="1182.6" y="883.3" class="st2" width="5.1" height="18.1"/>
<path class="st1" d="M1191.9,944.5V918h-13.5v26.5H1191.9z M1182.6,922.2h5.1v18.1h-5.1V922.2z"/>
<rect x="1182.6" y="922.2" class="st2" width="5.1" height="18.1"/>
<path class="st1" d="M1267.3,954.6h-26.5v13.5h26.5V954.6z M1245,963.9v-5.1h18.1v5.1H1245z"/>
<rect x="1245" y="958.8" class="st2" width="18.1" height="5.1"/>
<rect x="1275.5" y="836.6" class="st0" width="34.4" height="34.4"/>
<rect x="1236.8" y="875.2" class="st2" width="34.4" height="34.4"/>
<rect x="1198.2" y="875.2" class="st0" width="34.4" height="34.4"/>
<rect x="1275.5" y="875.2" class="st0" width="34.4" height="34.4"/>
<rect x="1236.8" y="913.9" class="st0" width="34.4" height="34.4"/>
<path class="st1" d="M1194,832.4v120.1h120.1V832.4H1194z M1198.2,836.6h34.4V871h-34.4V836.6z M1232.6,948.3h-34.4v-34.4h34.4
	V948.3z M1198.2,909.7v-34.4h34.4v34.4H1198.2z M1271.3,948.3h-34.4v-34.4h34.4V948.3z M1271.3,909.7h-34.4v-34.4h34.4V909.7z
	 M1271.3,871h-34.4v-34.4h34.4V871z M1309.9,948.3h-34.4v-34.4h34.4V948.3z M1309.9,909.7h-34.4v-34.4h34.4V909.7z M1309.9,871
	h-34.4v-34.4h34.4V871z"/>
<rect x="1198.2" y="913.9" class="st0" width="34.4" height="34.4"/>
<rect x="1275.5" y="913.9" class="st2" width="34.4" height="34.4"/>
<rect x="1486.8" y="836.6" class="st0" width="34.4" height="34.4"/>
<rect x="1448.2" y="836.6" class="st0" width="34.4" height="34.4"/>
<path class="st1" d="M1478.7,816.8h-26.5v13.5h26.5V816.8z M1456.4,826.1V821h18.1v5.1H1456.4z"/>
<rect x="1456.4" y="821" class="st2" width="18.1" height="5.1"/>
<path class="st1" d="M1517.3,816.8h-26.5v13.5h26.5V816.8z M1495,826.1V821h18.1v5.1H1495z"/>
<rect x="1495" y="821" class="st2" width="18.1" height="5.1"/>
<path class="st1" d="M1579.7,867v-26.5h-13.5V867H1579.7z M1570.4,844.7h5.1v18.1h-5.1V844.7z"/>
<rect x="1570.4" y="844.7" class="st2" width="5.1" height="18.1"/>
<path class="st1" d="M1579.7,905.6v-26.5h-13.5v26.5H1579.7z M1570.4,883.3h5.1v18.1h-5.1V883.3z"/>
<rect x="1570.4" y="883.3" class="st2" width="5.1" height="18.1"/>
<path class="st1" d="M1441.9,905.6v-26.5h-13.5v26.5H1441.9z M1432.6,883.3h5.1v18.1h-5.1V883.3z"/>
<rect x="1432.6" y="883.3" class="st2" width="5.1" height="18.1"/>
<path class="st1" d="M1441.9,944.5V918h-13.5v26.5H1441.9z M1432.6,922.2h5.1v18.1h-5.1V922.2z"/>
<rect x="1432.6" y="922.2" class="st2" width="5.1" height="18.1"/>
<path class="st1" d="M1517.3,954.6h-26.5v13.5h26.5V954.6z M1495,963.9v-5.1h18.1v5.1H1495z"/>
<rect x="1495" y="958.8" class="st2" width="18.1" height="5.1"/>
<rect x="1525.5" y="836.6" class="st0" width="34.4" height="34.4"/>
<rect x="1486.8" y="875.2" class="st2" width="34.4" height="34.4"/>
<rect x="1448.2" y="875.2" class="st0" width="34.4" height="34.4"/>
<rect x="1525.5" y="875.2" class="st0" width="34.4" height="34.4"/>
<rect x="1486.8" y="913.9" class="st0" width="34.4" height="34.4"/>
<path class="st1" d="M1444,832.4v120.1h120.1V832.4H1444z M1448.2,836.6h34.4V871h-34.4V836.6z M1482.6,948.3h-34.4v-34.4h34.4
	V948.3z M1448.2,909.7v-34.4h34.4v34.4H1448.2z M1521.3,948.3h-34.4v-34.4h34.4V948.3z M1521.3,909.7h-34.4v-34.4h34.4V909.7z
	 M1521.3,871h-34.4v-34.4h34.4V871z M1559.9,948.3h-34.4v-34.4h34.4V948.3z M1559.9,909.7h-34.4v-34.4h34.4V909.7z M1559.9,871
	h-34.4v-34.4h34.4V871z"/>
<rect x="1448.2" y="913.9" class="st0" width="34.4" height="34.4"/>
<rect x="1525.5" y="913.9" class="st2" width="34.4" height="34.4"/>
<rect x="1743.5" y="836.6" class="st0" width="34.4" height="34.4"/>
<rect x="1704.8" y="836.6" class="st0" width="34.4" height="34.4"/>
<path class="st1" d="M1773.9,816.8h-26.5v13.5h26.5V816.8z M1751.6,826.1V821h18.1v5.1H1751.6z"/>
<rect x="1751.6" y="821" class="st2" width="18.1" height="5.1"/>
<path class="st1" d="M1836.3,905.6v-26.5h-13.5v26.5H1836.3z M1827,883.3h5.1v18.1h-5.1V883.3z"/>
<rect x="1827" y="883.3" class="st2" width="5.1" height="18.1"/>
<path class="st1" d="M1836.3,944.5V918h-13.5v26.5H1836.3z M1827,922.2h5.1v18.1h-5.1V922.2z"/>
<rect x="1827" y="922.2" class="st2" width="5.1" height="18.1"/>
<path class="st1" d="M1698.5,867v-26.5H1685V867H1698.5z M1689.3,844.7h5.1v18.1h-5.1V844.7z"/>
<rect x="1689.3" y="844.7" class="st2" width="5.1" height="18.1"/>
<path class="st1" d="M1698.5,905.6v-26.5H1685v26.5H1698.5z M1689.3,883.3h5.1v18.1h-5.1V883.3z"/>
<rect x="1689.3" y="883.3" class="st2" width="5.1" height="18.1"/>
<path class="st1" d="M1735.3,954.6h-26.5v13.5h26.5V954.6z M1713,963.9v-5.1h18.1v5.1H1713z"/>
<rect x="1713" y="958.8" class="st2" width="18.1" height="5.1"/>
<path class="st1" d="M1773.9,954.6h-26.5v13.5h26.5V954.6z M1751.6,963.9v-5.1h18.1v5.1H1751.6z"/>
<rect x="1751.6" y="958.8" class="st2" width="18.1" height="5.1"/>
<rect x="1782.1" y="836.6" class="st2" width="34.4" height="34.4"/>
<rect x="1743.5" y="875.2" class="st2" width="34.4" height="34.4"/>
<rect x="1704.8" y="875.2" class="st0" width="34.4" height="34.4"/>
<rect x="1782.1" y="875.2" class="st0" width="34.4" height="34.4"/>
<rect x="1743.5" y="913.9" class="st0" width="34.4" height="34.4"/>
<path class="st1" d="M1700.6,832.4v120.1h120.1V832.4H1700.6z M1704.8,836.6h34.4V871h-34.4V836.6z M1739.3,948.3h-34.4v-34.4h34.4
	V948.3z M1704.8,909.7v-34.4h34.4v34.4H1704.8z M1777.9,948.3h-34.4v-34.4h34.4V948.3z M1777.9,909.7h-34.4v-34.4h34.4V909.7z
	 M1777.9,871h-34.4v-34.4h34.4V871z M1816.5,948.3h-34.4v-34.4h34.4V948.3z M1816.5,909.7h-34.4v-34.4h34.4V909.7z M1816.5,871
	h-34.4v-34.4h34.4V871z"/>
<rect x="1704.8" y="913.9" class="st0" width="34.4" height="34.4"/>
<rect x="1782.1" y="913.9" class="st0" width="34.4" height="34.4"/>
<rect x="200.3" y="585.5" class="st2" width="34.4" height="34.4"/>
<rect x="161.6" y="585.5" class="st0" width="34.4" height="34.4"/>
<path class="st1" d="M192.1,565.7h-26.5v13.5h26.5V565.7z M169.8,575v-5.1h18.1v5.1H169.8z"/>
<rect x="169.8" y="569.9" class="st2" width="18.1" height="5.1"/>
<path class="st1" d="M293.1,615.8v-26.5h-13.5v26.5H293.1z M283.9,593.5h5.1v18.1h-5.1V593.5z"/>
<rect x="283.9" y="593.5" class="st2" width="5.1" height="18.1"/>
<path class="st1" d="M293.1,654.4v-26.5h-13.5v26.5H293.1z M283.9,632.2h5.1v18.1h-5.1V632.2z"/>
<rect x="283.9" y="632.2" class="st2" width="5.1" height="18.1"/>
<path class="st1" d="M293.1,693.3v-26.5h-13.5v26.5H293.1z M283.9,671h5.1v18.1h-5.1V671z"/>
<rect x="283.9" y="671" class="st2" width="5.1" height="18.1"/>
<path class="st1" d="M192.1,703.5h-26.5V717h26.5V703.5z M169.8,712.7v-5.1h18.1v5.1H169.8z"/>
<rect x="169.8" y="707.7" class="st2" width="18.1" height="5.1"/>
<path class="st1" d="M230.7,703.5h-26.5V717h26.5V703.5z M208.5,712.7v-5.1h18.1v5.1H208.5z"/>
<rect x="208.5" y="707.7" class="st2" width="18.1" height="5.1"/>
<rect x="238.9" y="585.5" class="st0" width="34.4" height="34.4"/>
<rect x="200.3" y="624.1" class="st2" width="34.4" height="34.4"/>
<rect x="161.6" y="624.1" class="st2" width="34.4" height="34.4"/>
<rect x="238.9" y="624.1" class="st0" width="34.4" height="34.4"/>
<rect x="200.3" y="662.7" class="st0" width="34.4" height="34.4"/>
<path class="st1" d="M157.4,581.3v120.1h120.1V581.3H157.4z M161.6,585.5H196v34.4h-34.4V585.5z M196.1,697.2h-34.4v-34.4h34.4
	V697.2z M161.6,658.5v-34.4H196v34.4H161.6z M234.7,697.2h-34.4v-34.4h34.4V697.2z M234.7,658.5h-34.4v-34.4h34.4V658.5z
	 M234.7,619.9h-34.4v-34.4h34.4V619.9z M273.4,697.2H239v-34.4h34.4V697.2z M273.4,658.5H239v-34.4h34.4V658.5z M273.4,619.9H239
	v-34.4h34.4V619.9z"/>
<rect x="161.6" y="662.7" class="st0" width="34.4" height="34.4"/>
<rect x="238.9" y="662.7" class="st0" width="34.4" height="34.4"/>
<rect x="480.4" y="585.5" class="st2" width="34.4" height="34.4"/>
<rect x="441.7" y="585.5" class="st0" width="34.4" height="34.4"/>
<path class="st1" d="M549.7,565.7h-26.5v13.5h26.5V565.7z M527.4,575v-5.1h18.1v5.1H527.4z"/>
<rect x="527.4" y="569.9" class="st2" width="18.1" height="5.1"/>
<path class="st1" d="M435.5,615.8v-26.5H422v26.5H435.5z M426.2,593.5h5.1v18.1h-5.1V593.5z"/>
<rect x="426.2" y="593.5" class="st2" width="5.1" height="18.1"/>
<path class="st1" d="M435.5,654.4v-26.5H422v26.5H435.5z M426.2,632.2h5.1v18.1h-5.1V632.2z"/>
<rect x="426.2" y="632.2" class="st2" width="5.1" height="18.1"/>
<path class="st1" d="M435.5,693.3v-26.5H422v26.5H435.5z M426.2,671h5.1v18.1h-5.1V671z"/>
<rect x="426.2" y="671" class="st2" width="5.1" height="18.1"/>
<path class="st1" d="M510.9,703.5h-26.5V717h26.5V703.5z M488.6,712.7v-5.1h18.1v5.1H488.6z"/>
<rect x="488.6" y="707.7" class="st2" width="18.1" height="5.1"/>
<path class="st1" d="M549.7,703.5h-26.5V717h26.5V703.5z M527.4,712.7v-5.1h18.1v5.1H527.4z"/>
<rect x="527.4" y="707.7" class="st2" width="18.1" height="5.1"/>
<rect x="519" y="585.5" class="st0" width="34.4" height="34.4"/>
<rect x="480.4" y="624.1" class="st2" width="34.4" height="34.4"/>
<rect x="441.8" y="624.1" class="st0" width="34.4" height="34.4"/>
<rect x="519" y="624.1" class="st2" width="34.4" height="34.4"/>
<rect x="480.4" y="662.7" class="st0" width="34.4" height="34.4"/>
<path class="st1" d="M437.6,581.3v120.1h120.1V581.3H437.6z M441.8,585.5h34.4v34.4h-34.4V585.5z M476.2,697.2h-34.4v-34.4h34.4
	V697.2z M441.8,658.5v-34.4h34.4v34.4H441.8z M514.8,697.2h-34.4v-34.4h34.4V697.2z M514.8,658.5h-34.4v-34.4h34.4V658.5z
	 M514.8,619.9h-34.4v-34.4h34.4V619.9z M553.5,697.2h-34.4v-34.4h34.4V697.2z M553.5,658.5h-34.4v-34.4h34.4V658.5z M553.5,619.9
	h-34.4v-34.4h34.4V619.9z"/>
<rect x="441.7" y="662.7" class="st0" width="34.4" height="34.4"/>
<rect x="519" y="662.7" class="st0" width="34.4" height="34.4"/>
<rect x="729.4" y="575.6" class="st2" width="34.4" height="34.4"/>
<rect x="690.8" y="575.6" class="st0" width="34.4" height="34.4"/>
<path class="st1" d="M822.3,605.9v-26.5h-13.5v26.5H822.3z M813,583.6h5.1v18.1H813V583.6z"/>
<rect x="813" y="583.6" class="st2" width="5.1" height="18.1"/>
<path class="st1" d="M822.3,644.6v-26.5h-13.5v26.5H822.3z M813,622.3h5.1v18.1H813V622.3z"/>
<rect x="813" y="622.3" class="st2" width="5.1" height="18.1"/>
<path class="st1" d="M822.3,683.4v-26.5h-13.5v26.5H822.3z M813,661.1h5.1v18.1H813V661.1z"/>
<rect x="813" y="661.1" class="st2" width="5.1" height="18.1"/>
<path class="st1" d="M684.5,605.9v-26.5H671v26.5H684.5z M675.2,583.6h5.1v18.1h-5.1V583.6z"/>
<rect x="675.2" y="583.6" class="st2" width="5.1" height="18.1"/>
<path class="st1" d="M684.5,683.4v-26.5H671v26.5H684.5z M675.2,661.1h5.1v18.1h-5.1V661.1z"/>
<rect x="675.2" y="661.1" class="st2" width="5.1" height="18.1"/>
<path class="st1" d="M759.9,693.6h-26.5v13.5h26.5V693.6z M737.6,702.9v-5.1h18.1v5.1H737.6z"/>
<rect x="737.6" y="697.8" class="st2" width="18.1" height="5.1"/>
<rect x="768.1" y="575.6" class="st0" width="34.4" height="34.4"/>
<rect x="729.5" y="614.2" class="st2" width="34.4" height="34.4"/>
<rect x="690.8" y="614.2" class="st2" width="34.4" height="34.4"/>
<rect x="768.1" y="614.2" class="st0" width="34.4" height="34.4"/>
<rect x="729.4" y="652.8" class="st0" width="34.4" height="34.4"/>
<path class="st1" d="M686.6,571.4v120.1h120.1V571.4H686.6z M690.8,575.6h34.4V610h-34.4V575.6z M725.2,687.3h-34.4v-34.4h34.4
	V687.3z M690.8,648.6v-34.4h34.4v34.4H690.8z M763.9,687.3h-34.4v-34.4h34.4V687.3z M763.9,648.6h-34.4v-34.4h34.4V648.6z
	 M763.9,610h-34.4v-34.4h34.4V610z M802.5,687.3h-34.4v-34.4h34.4V687.3z M802.5,648.6h-34.4v-34.4h34.4V648.6z M802.5,610h-34.4
	v-34.4h34.4V610z"/>
<rect x="690.8" y="652.8" class="st0" width="34.4" height="34.4"/>
<rect x="768.1" y="652.8" class="st0" width="34.4" height="34.4"/>
<rect x="980.9" y="575.6" class="st2" width="34.4" height="34.4"/>
<rect x="942.2" y="575.6" class="st0" width="34.4" height="34.4"/>
<path class="st1" d="M1073.7,605.9v-26.5h-13.5v26.5H1073.7z M1064.5,583.6h5.1v18.1h-5.1V583.6z"/>
<rect x="1064.5" y="583.6" class="st2" width="5.1" height="18.1"/>
<path class="st1" d="M1073.7,683.4v-26.5h-13.5v26.5H1073.7z M1064.5,661.1h5.1v18.1h-5.1V661.1z"/>
<rect x="1064.5" y="661.1" class="st2" width="5.1" height="18.1"/>
<path class="st1" d="M935.9,605.9v-26.5h-13.4v26.5H935.9z M926.7,583.6h5.1v18.1h-5.1V583.6z"/>
<rect x="926.7" y="583.6" class="st2" width="5.1" height="18.1"/>
<path class="st1" d="M935.9,644.6v-26.5h-13.4v26.5H935.9z M926.7,622.3h5.1v18.1h-5.1V622.3z"/>
<rect x="926.7" y="622.3" class="st2" width="5.1" height="18.1"/>
<path class="st1" d="M935.9,683.4v-26.5h-13.4v26.5H935.9z M926.7,661.1h5.1v18.1h-5.1V661.1z"/>
<rect x="926.7" y="661.1" class="st2" width="5.1" height="18.1"/>
<path class="st1" d="M1011.3,693.6h-26.5v13.5h26.5V693.6z M989.1,702.9v-5.1h18.1v5.1H989.1z"/>
<rect x="989.1" y="697.8" class="st2" width="18.1" height="5.1"/>
<rect x="1019.5" y="575.6" class="st0" width="34.4" height="34.4"/>
<rect x="980.9" y="614.2" class="st2" width="34.4" height="34.4"/>
<rect x="942.2" y="614.2" class="st0" width="34.4" height="34.4"/>
<rect x="1019.5" y="614.2" class="st2" width="34.4" height="34.4"/>
<rect x="980.9" y="652.8" class="st0" width="34.4" height="34.4"/>
<path class="st1" d="M938,571.4v120.1h120.1V571.4H938z M942.2,575.6h34.4V610h-34.4V575.6z M976.7,687.3h-34.4v-34.4h34.4V687.3z
	 M942.2,648.6v-34.4h34.4v34.4H942.2z M1015.3,687.3h-34.4v-34.4h34.4V687.3z M1015.3,648.6h-34.4v-34.4h34.4V648.6z M1015.3,610
	h-34.4v-34.4h34.4V610z M1054,687.3h-34.5v-34.4h34.4v34.4H1054z M1054,648.6h-34.5v-34.4h34.4v34.4H1054z M1054,610h-34.5v-34.4
	h34.4V610H1054z"/>
<rect x="942.2" y="652.8" class="st0" width="34.4" height="34.4"/>
<rect x="1019.5" y="652.8" class="st0" width="34.4" height="34.4"/>
<rect x="1236.8" y="585.5" class="st2" width="34.4" height="34.4"/>
<rect x="1198.2" y="585.5" class="st0" width="34.4" height="34.4"/>
<path class="st1" d="M1228.7,565.7h-26.5v13.5h26.5V565.7z M1206.4,575v-5.1h18.1v5.1H1206.4z"/>
<rect x="1206.4" y="569.9" class="st2" width="18.1" height="5.1"/>
<path class="st1" d="M1329.7,615.8v-26.5h-13.5v26.5H1329.7z M1320.4,593.5h5.1v18.1h-5.1V593.5z"/>
<rect x="1320.4" y="593.5" class="st2" width="5.1" height="18.1"/>
<path class="st1" d="M1329.7,654.4v-26.5h-13.5v26.5H1329.7z M1320.4,632.2h5.1v18.1h-5.1V632.2z"/>
<rect x="1320.4" y="632.2" class="st2" width="5.1" height="18.1"/>
<path class="st1" d="M1329.7,693.3v-26.5h-13.5v26.5H1329.7z M1320.4,671h5.1v18.1h-5.1V671z"/>
<rect x="1320.4" y="671" class="st2" width="5.1" height="18.1"/>
<path class="st1" d="M1191.9,654.4v-26.5h-13.5v26.5H1191.9z M1182.6,632.2h5.1v18.1h-5.1V632.2z"/>
<rect x="1182.6" y="632.2" class="st2" width="5.1" height="18.1"/>
<path class="st1" d="M1228.7,703.5h-26.5V717h26.5V703.5z M1206.4,712.7v-5.1h18.1v5.1H1206.4z"/>
<rect x="1206.4" y="707.7" class="st2" width="18.1" height="5.1"/>
<rect x="1275.5" y="585.5" class="st0" width="34.4" height="34.4"/>
<rect x="1236.8" y="624.1" class="st2" width="34.4" height="34.4"/>
<rect x="1198.2" y="624.1" class="st0" width="34.4" height="34.4"/>
<rect x="1275.5" y="624.1" class="st0" width="34.4" height="34.4"/>
<rect x="1236.8" y="662.7" class="st2" width="34.4" height="34.4"/>
<path class="st1" d="M1194,581.3v120.1h120.1V581.3H1194z M1198.2,585.5h34.4v34.4h-34.4V585.5z M1232.6,697.2h-34.4v-34.4h34.4
	V697.2z M1198.2,658.5v-34.4h34.4v34.4H1198.2z M1271.3,697.2h-34.4v-34.4h34.4V697.2z M1271.3,658.5h-34.4v-34.4h34.4V658.5z
	 M1271.3,619.9h-34.4v-34.4h34.4V619.9z M1309.9,697.2h-34.4v-34.4h34.4V697.2z M1309.9,658.5h-34.4v-34.4h34.4V658.5z
	 M1309.9,619.9h-34.4v-34.4h34.4V619.9z"/>
<rect x="1198.2" y="662.7" class="st0" width="34.4" height="34.4"/>
<rect x="1275.5" y="662.7" class="st0" width="34.4" height="34.4"/>
<rect x="1496.7" y="585.5" class="st0" width="34.4" height="34.4"/>
<rect x="1458.1" y="585.5" class="st0" width="34.4" height="34.4"/>
<path class="st1" d="M1527.2,565.7h-26.5v13.5h26.5V565.7z M1504.9,575v-5.1h18.1v5.1H1504.9z"/>
<rect x="1504.9" y="569.9" class="st2" width="18.1" height="5.1"/>
<path class="st1" d="M1566,565.7h-26.5v13.5h26.5V565.7z M1543.7,575v-5.1h18.1v5.1H1543.7z"/>
<rect x="1543.7" y="569.9" class="st2" width="18.1" height="5.1"/>
<path class="st1" d="M1451.8,615.8v-26.5h-13.5v26.5H1451.8z M1442.5,593.5h5.1v18.1h-5.1V593.5z"/>
<rect x="1442.5" y="593.5" class="st2" width="5.1" height="18.1"/>
<path class="st1" d="M1451.8,693.3v-26.5h-13.5v26.5H1451.8z M1442.5,671h5.1v18.1h-5.1V671z"/>
<rect x="1442.5" y="671" class="st2" width="5.1" height="18.1"/>
<path class="st1" d="M1527.2,703.5h-26.5V717h26.5V703.5z M1504.9,712.7v-5.1h18.1v5.1H1504.9z"/>
<rect x="1504.9" y="707.7" class="st2" width="18.1" height="5.1"/>
<path class="st1" d="M1566,703.5h-26.5V717h26.5V703.5z M1543.7,712.7v-5.1h18.1v5.1H1543.7z"/>
<rect x="1543.7" y="707.7" class="st2" width="18.1" height="5.1"/>
<rect x="1535.3" y="585.5" class="st0" width="34.4" height="34.4"/>
<rect x="1496.7" y="624.1" class="st2" width="34.4" height="34.4"/>
<rect x="1458.1" y="624.1" class="st2" width="34.4" height="34.4"/>
<rect x="1535.3" y="624.1" class="st2" width="34.4" height="34.4"/>
<rect x="1496.7" y="662.7" class="st0" width="34.4" height="34.4"/>
<path class="st1" d="M1453.9,581.3v120.1H1574V581.3H1453.9z M1458.1,585.5h34.4v34.4h-34.4V585.5z M1492.5,697.2h-34.4v-34.4h34.4
	V697.2z M1458.1,658.5v-34.4h34.4v34.4H1458.1z M1531.1,697.2h-34.4v-34.4h34.4V697.2z M1531.1,658.5h-34.4v-34.4h34.4V658.5z
	 M1531.1,619.9h-34.4v-34.4h34.4V619.9z M1569.8,697.2h-34.4v-34.4h34.4V697.2z M1569.8,658.5h-34.4v-34.4h34.4V658.5z
	 M1569.8,619.9h-34.4v-34.4h34.4V619.9z"/>
<rect x="1458.1" y="662.7" class="st0" width="34.4" height="34.4"/>
<rect x="1535.3" y="662.7" class="st0" width="34.4" height="34.4"/>
<rect x="1743.5" y="585.5" class="st0" width="34.4" height="34.4"/>
<rect x="1704.8" y="585.5" class="st0" width="34.4" height="34.4"/>
<path class="st1" d="M1773.9,565.7h-26.5v13.5h26.5V565.7z M1751.6,575v-5.1h18.1v5.1H1751.6z"/>
<rect x="1751.6" y="569.9" class="st2" width="18.1" height="5.1"/>
<path class="st1" d="M1836.3,615.8v-26.5h-13.5v26.5H1836.3z M1827,593.5h5.1v18.1h-5.1V593.5z"/>
<rect x="1827" y="593.5" class="st2" width="5.1" height="18.1"/>
<path class="st1" d="M1836.3,693.3v-26.5h-13.5v26.5H1836.3z M1827,671h5.1v18.1h-5.1V671z"/>
<rect x="1827" y="671" class="st2" width="5.1" height="18.1"/>
<path class="st1" d="M1698.5,615.8v-26.5H1685v26.5H1698.5z M1689.3,593.5h5.1v18.1h-5.1V593.5z"/>
<rect x="1689.3" y="593.5" class="st2" width="5.1" height="18.1"/>
<path class="st1" d="M1698.5,693.3v-26.5H1685v26.5H1698.5z M1689.3,671h5.1v18.1h-5.1V671z"/>
<rect x="1689.3" y="671" class="st2" width="5.1" height="18.1"/>
<path class="st1" d="M1773.9,703.5h-26.5V717h26.5V703.5z M1751.6,712.7v-5.1h18.1v5.1H1751.6z"/>
<rect x="1751.6" y="707.7" class="st2" width="18.1" height="5.1"/>
<rect x="1782.1" y="585.5" class="st0" width="34.4" height="34.4"/>
<rect x="1743.5" y="624.1" class="st2" width="34.4" height="34.4"/>
<rect x="1704.8" y="624.1" class="st2" width="34.4" height="34.4"/>
<rect x="1782.1" y="624.1" class="st2" width="34.4" height="34.4"/>
<rect x="1743.5" y="662.7" class="st0" width="34.4" height="34.4"/>
<path class="st1" d="M1700.6,581.3v120.1h120.1V581.3H1700.6z M1704.8,585.5h34.4v34.4h-34.4V585.5z M1739.3,697.2h-34.4v-34.4h34.4
	V697.2z M1704.8,658.5v-34.4h34.4v34.4H1704.8z M1777.9,697.2h-34.4v-34.4h34.4V697.2z M1777.9,658.5h-34.4v-34.4h34.4V658.5z
	 M1777.9,619.9h-34.4v-34.4h34.4V619.9z M1816.5,697.2h-34.4v-34.4h34.4V697.2z M1816.5,658.5h-34.4v-34.4h34.4V658.5z
	 M1816.5,619.9h-34.4v-34.4h34.4V619.9z"/>
<rect x="1704.8" y="662.7" class="st0" width="34.4" height="34.4"/>
<rect x="1782.1" y="662.7" class="st0" width="34.4" height="34.4"/>
<rect x="58.4" y="19.7" class="st2" width="34.4" height="34.4"/>
<rect x="19.8" y="19.7" class="st0" width="34.4" height="34.4"/>
<path class="st1" d="M50.3-0.1H23.8v13.5h26.5V-0.1z M27.9,9.2V4.1h18.1v5.1H27.9z"/>
<rect x="27.9" y="4.1" class="st2" width="18.1" height="5.1"/>
<path class="st1" d="M151.3,50.1V23.6h-13.5v26.5H151.3z M141.9,27.8h5.1v18.1h-5.1V27.8z"/>
<rect x="141.9" y="27.8" class="st2" width="5.1" height="18.1"/>
<path class="st1" d="M151.3,127.6v-26.5h-13.5v26.5H151.3z M141.9,105.3h5.1v18.1h-5.1V105.3z"/>
<rect x="141.9" y="105.3" class="st2" width="5.1" height="18.1"/>
<path class="st1" d="M13.4,88.7V62.2H-0.1v26.5H13.4z M4.2,66.4h5.1v18.1H4.2V66.4z"/>
<rect x="4.2" y="66.4" class="st2" width="5.1" height="18.1"/>
<path class="st1" d="M50.3,137.8H23.8v13.5h26.5V137.8z M27.9,147v-5.1h18.1v5.1H27.9z"/>
<rect x="27.9" y="141.9" class="st2" width="18.1" height="5.1"/>
<path class="st1" d="M88.9,137.8H62.4v13.5h26.5V137.8z M66.6,147v-5.1h18.1v5.1H66.6z"/>
<rect x="66.6" y="141.9" class="st2" width="18.1" height="5.1"/>
<rect x="97.1" y="19.7" class="st0" width="34.4" height="34.4"/>
<rect x="58.4" y="58.3" class="st2" width="34.4" height="34.4"/>
<rect x="19.8" y="58.3" class="st0" width="34.4" height="34.4"/>
<rect x="97.1" y="58.3" class="st2" width="34.4" height="34.4"/>
<rect x="58.4" y="97" class="st0" width="34.4" height="34.4"/>
<path class="st1" d="M15.6,15.5v120.1h120.1V15.5H15.6z M19.8,19.7h34.4v34.4H19.8V19.7z M54.2,131.4H19.8V97h34.4V131.4z
	 M19.8,92.8V58.4h34.4v34.4H19.8z M92.9,131.4H58.5V97h34.4V131.4z M92.9,92.8H58.5V58.4h34.4V92.8z M92.9,54.1H58.5V19.7h34.4V54.1
	z M131.4,131.4H97.1V97h34.4V131.4z M131.4,92.8H97.1V58.4h34.4V92.8z M131.4,54.1H97.1V19.7h34.4V54.1z"/>
<rect x="19.8" y="97" class="st0" width="34.4" height="34.4"/>
<rect x="97.1" y="97" class="st0" width="34.4" height="34.4"/>
<rect x="1743.5" y="359.1" class="st2" width="34.4" height="34.4"/>
<rect x="1704.8" y="359.1" class="st0" width="34.4" height="34.4"/>
<path class="st1" d="M1812.8,339.3h-26.5v13.5h26.5V339.3z M1790.5,348.6v-5.1h18.1v5.1H1790.5z"/>
<rect x="1790.5" y="343.5" class="st2" width="18.1" height="5.1"/>
<path class="st1" d="M1836.3,428.1v-26.5h-13.5v26.5H1836.3z M1827,405.8h5.1v18.1h-5.1V405.8z"/>
<rect x="1827" y="405.8" class="st2" width="5.1" height="18.1"/>
<path class="st1" d="M1698.5,389.5V363H1685v26.5H1698.5z M1689.3,367.2h5.1v18.1h-5.1V367.2z"/>
<rect x="1689.3" y="367.2" class="st2" width="5.1" height="18.1"/>
<path class="st1" d="M1698.5,467v-26.5H1685V467H1698.5z M1689.3,444.7h5.1v18.1h-5.1V444.7z"/>
<rect x="1689.3" y="444.7" class="st2" width="5.1" height="18.1"/>
<path class="st1" d="M1773.9,477.1h-26.5v13.5h26.5V477.1z M1751.6,486.4v-5.1h18.1v5.1H1751.6z"/>
<rect x="1751.6" y="481.3" class="st2" width="18.1" height="5.1"/>
<path class="st1" d="M1812.8,477.1h-26.5v13.5h26.5V477.1z M1790.5,486.4v-5.1h18.1v5.1H1790.5z"/>
<rect x="1790.5" y="481.3" class="st2" width="18.1" height="5.1"/>
<rect x="1782.1" y="359.1" class="st0" width="34.4" height="34.4"/>
<rect x="1743.5" y="397.7" class="st2" width="34.4" height="34.4"/>
<rect x="1704.8" y="397.7" class="st2" width="34.4" height="34.4"/>
<rect x="1782.1" y="397.7" class="st0" width="34.4" height="34.4"/>
<rect x="1743.5" y="436.4" class="st0" width="34.4" height="34.4"/>
<path class="st1" d="M1700.6,354.9V475h120.1V354.9H1700.6z M1704.8,359.1h34.4v34.4h-34.4V359.1z M1739.3,470.8h-34.4v-34.4h34.4
	V470.8z M1704.8,432.2v-34.4h34.4v34.4H1704.8z M1777.9,470.8h-34.4v-34.4h34.4V470.8z M1777.9,432.2h-34.4v-34.4h34.4V432.2z
	 M1777.9,393.5h-34.4v-34.4h34.4V393.5z M1816.5,470.8h-34.4v-34.4h34.4V470.8z M1816.5,432.2h-34.4v-34.4h34.4V432.2z
	 M1816.5,393.5h-34.4v-34.4h34.4V393.5z"/>
<rect x="1704.8" y="436.4" class="st0" width="34.4" height="34.4"/>
<rect x="1782.1" y="436.4" class="st0" width="34.4" height="34.4"/>
</svg>
