<?xml version="1.0" encoding="utf-8"?>
<!-- Generator: Adobe Illustrator 19.2.0, SVG Export Plug-In . SVG Version: 6.00 Build 0)  -->
<svg version="1.1" id="Layer_1" xmlns="http://www.w3.org/2000/svg" xmlns:xlink="http://www.w3.org/1999/xlink" x="0px" y="0px"
	 viewBox="0 0 151.2 151.2" style="enable-background:new 0 0 151.2 151.2;" xml:space="preserve">
<style type="text/css">
	.st0{fill:#BCBEC0;}
	.st1{fill:#212744;}
	.st2{fill:#F9C739;}
</style>
<rect x="58.4" y="19.7" class="st0" width="34.4" height="34.4"/>
<rect x="19.8" y="19.7" class="st0" width="34.4" height="34.4"/>
<path class="st1" d="M88.8,0H62.3v13.5h26.5V0z M66.6,9.2V4.1h18.1v5.1H66.6z"/>
<rect x="66.6" y="4.2" class="st2" width="18.1" height="5.1"/>
<path class="st1" d="M127.8,0h-26.5v13.5h26.5V0z M105.4,9.2V4.1h18.1v5.1H105.4z"/>
<rect x="105.4" y="4.2" class="st2" width="18.1" height="5.1"/>
<path class="st1" d="M151.3,88.7V62.2h-13.5v26.5H151.3z M141.9,66.4h5.1v18.1h-5.1V66.4z"/>
<rect x="141.9" y="66.4" class="st2" width="5.1" height="18.1"/>
<path class="st1" d="M13.4,50.1V23.6H-0.1v26.5H13.4z M4.3,27.8h5.1v18.1H4.3V27.8z"/>
<rect x="4.3" y="27.8" class="st2" width="5.1" height="18.1"/>
<path class="st1" d="M13.4,88.7V62.2H-0.1v26.5H13.4z M4.3,66.4h5.1v18.1H4.3V66.4z"/>
<rect x="4.3" y="66.4" class="st2" width="5.1" height="18.1"/>
<path class="st1" d="M13.4,127.6v-26.5H-0.1v26.5H13.4z M4.3,105.3h5.1v18.1H4.3V105.3z"/>
<rect x="4.3" y="105.3" class="st2" width="5.1" height="18.1"/>
<path class="st1" d="M389.6,2136.1h-26.5v13.5h26.5V2136.1z M367.3,2145.3v-5.1h18.1v5.1H367.3z"/>
<rect x="367.3" y="2140.3" class="st2" width="18.1" height="5.1"/>
<path class="st1" d="M428.5,2136.1H402v13.5h26.5V2136.1z M406.2,2145.3v-5.1h18.1v5.1H406.2z"/>
<rect x="406.2" y="2140.3" class="st2" width="18.1" height="5.1"/>
<rect x="97.1" y="19.7" class="st0" width="34.4" height="34.4"/>
<rect x="58.4" y="58.4" class="st2" width="34.4" height="34.4"/>
<rect x="19.8" y="58.4" class="st0" width="34.4" height="34.4"/>
<rect x="97.1" y="58.4" class="st0" width="34.4" height="34.4"/>
<rect x="58.4" y="97" class="st0" width="34.4" height="34.4"/>
<path class="st1" d="M15.6,15.5v120.1h120.1V15.5H15.6z M19.8,19.7h34.4v34.4H19.8V19.7z M54.3,131.5H19.8V97.1h34.4L54.3,131.5
	L54.3,131.5z M19.8,92.8V58.4h34.4v34.4H19.8z M92.8,131.5H58.4V97.1h34.4V131.5z M92.8,92.8H58.4V58.4h34.4V92.8z M92.8,54.2H58.4
	V19.8h34.4V54.2z M131.4,131.5H97V97.1h34.4V131.5z M131.4,92.8H97V58.4h34.4V92.8z M131.4,54.2H97V19.8h34.4V54.2z"/>
<rect x="19.8" y="97" class="st0" width="34.4" height="34.4"/>
<rect x="97.1" y="97" class="st0" width="34.4" height="34.4"/>
</svg>
