<?xml version="1.0" encoding="utf-8"?>
<!-- Generator: Adobe Illustrator 19.2.0, SVG Export Plug-In . SVG Version: 6.00 Build 0)  -->
<svg version="1.1" id="Layer_1" xmlns="http://www.w3.org/2000/svg" xmlns:xlink="http://www.w3.org/1999/xlink" x="0px" y="0px"
	 viewBox="0 0 151.2 151.2" style="enable-background:new 0 0 151.2 151.2;" xml:space="preserve">
<style type="text/css">
	.st0{fill:#BCBEC0;}
	.st1{fill:#212744;}
	.st2{fill:#F9C739;}
</style>
<rect x="-699.5" y="690.8" class="st0" width="34.4" height="34.4"/>
<rect x="-738.2" y="690.8" class="st0" width="34.4" height="34.4"/>
<path class="st1" d="M-669.1,671.2h-26.5v13.5h26.5V671.2z M-691.4,680.3v-5.1h18.1v5.1H-691.4z"/>
<rect x="-691.4" y="675.3" class="st2" width="18.1" height="5.1"/>
<path class="st1" d="M-630.2,671.2h-26.5v13.5h26.5V671.2z M-652.5,680.3v-5.1h18.1v5.1H-652.5z"/>
<rect x="-652.5" y="675.3" class="st2" width="18.1" height="5.1"/>
<path class="st1" d="M-606.7,759.8v-26.5h-13.5v26.5H-606.7z M-616,737.6h5.1v18.1h-5.1V737.6z"/>
<rect x="-616" y="737.6" class="st2" width="5.1" height="18.1"/>
<path class="st1" d="M-744.5,721.2v-26.5H-758v26.5H-744.5z M-753.7,698.9h5.1V717h-5.1V698.9z"/>
<rect x="-753.7" y="698.9" class="st2" width="5.1" height="18.1"/>
<path class="st1" d="M-744.5,759.8v-26.5H-758v26.5H-744.5z M-753.7,737.6h5.1v18.1h-5.1V737.6z"/>
<rect x="-753.7" y="737.6" class="st2" width="5.1" height="18.1"/>
<path class="st1" d="M-744.5,798.8v-26.5H-758v26.5H-744.5z M-753.7,776.4h5.1v18.1h-5.1V776.4z"/>
<rect x="-753.7" y="776.4" class="st2" width="5.1" height="18.1"/>
<path class="st1" d="M389.6,2136.1h-26.5v13.5h26.5V2136.1z M367.3,2145.3v-5.1h18.1v5.1H367.3z"/>
<rect x="367.3" y="2140.3" class="st2" width="18.1" height="5.1"/>
<path class="st1" d="M428.5,2136.1H402v13.5h26.5V2136.1z M406.2,2145.3v-5.1h18.1v5.1H406.2z"/>
<rect x="406.2" y="2140.3" class="st2" width="18.1" height="5.1"/>
<rect x="-660.9" y="690.8" class="st0" width="34.4" height="34.4"/>
<rect x="-699.5" y="729.6" class="st2" width="34.4" height="34.4"/>
<rect x="-738.2" y="729.6" class="st0" width="34.4" height="34.4"/>
<rect x="-660.9" y="729.6" class="st0" width="34.4" height="34.4"/>
<rect x="-699.5" y="768.2" class="st0" width="34.4" height="34.4"/>
<path class="st1" d="M-742.4,686.7v120.1h120.1V686.7H-742.4z M-738.2,690.8h34.4v34.4h-34.4V690.8z M-703.7,802.7h-34.5v-34.4h34.4
	L-703.7,802.7L-703.7,802.7z M-738.2,763.9v-34.4h34.4v34.4H-738.2z M-665.1,802.7h-34.4v-34.4h34.4V802.7z M-665.1,763.9h-34.4
	v-34.4h34.4V763.9z M-665.1,725.3h-34.4v-34.4h34.4V725.3z M-626.5,802.7H-661v-34.4h34.4V802.7z M-626.5,763.9H-661v-34.4h34.4
	V763.9z M-626.5,725.3H-661v-34.4h34.4V725.3z"/>
<rect x="-738.2" y="768.2" class="st0" width="34.4" height="34.4"/>
<rect x="-660.9" y="768.2" class="st0" width="34.4" height="34.4"/>
<rect x="58.5" y="19.8" class="st0" width="34.4" height="34.4"/>
<rect x="19.8" y="19.8" class="st0" width="34.4" height="34.4"/>
<path class="st1" d="M88.9-0.1H62.4v13.5h26.5V-0.1z M66.6,9.3V4.2h18.1v5.1H66.6z"/>
<rect x="66.6" y="4.1" class="st2" width="18.1" height="5.1"/>
<path class="st1" d="M151.3,88.8V62.3h-13.5v26.5H151.3z M142,66.4h5.1v18.1H142V66.4z"/>
<rect x="142" y="66.4" class="st2" width="5.1" height="18.1"/>
<path class="st1" d="M151.3,127.6v-26.5h-13.5v26.5H151.3z M142,105.3h5.1v18.1H142V105.3z"/>
<rect x="142" y="105.3" class="st2" width="5.1" height="18.1"/>
<path class="st1" d="M13.5,50.1V23.6H0v26.5H13.5z M4.3,27.8h5.1v18.1H4.3V27.8z"/>
<rect x="4.3" y="27.8" class="st2" width="5.1" height="18.1"/>
<path class="st1" d="M13.5,88.8V62.3H0v26.5H13.5z M4.3,66.4h5.1v18.1H4.3V66.4z"/>
<rect x="4.3" y="66.4" class="st2" width="5.1" height="18.1"/>
<path class="st1" d="M50.3,137.8H23.8v13.5h26.5V137.8z M28,147v-5.1h18.1v5.1H28z"/>
<rect x="28" y="141.9" class="st2" width="18.1" height="5.1"/>
<path class="st1" d="M88.9,137.8H62.4v13.5h26.5V137.8z M66.6,147v-5.1h18.1v5.1H66.6z"/>
<rect x="66.6" y="141.9" class="st2" width="18.1" height="5.1"/>
<rect x="97.1" y="19.8" class="st2" width="34.4" height="34.4"/>
<rect x="58.5" y="58.3" class="st2" width="34.4" height="34.4"/>
<rect x="19.8" y="58.3" class="st0" width="34.4" height="34.4"/>
<rect x="97.1" y="58.3" class="st0" width="34.4" height="34.4"/>
<rect x="58.5" y="97" class="st0" width="34.4" height="34.4"/>
<path class="st1" d="M15.6,15.5v120.1h120.1V15.5H15.6z M19.8,19.8h34.4v34.4H19.8V19.8z M54.3,131.4H19.9V97h34.4V131.4z
	 M19.8,92.8V58.4h34.4v34.4H19.8z M92.9,131.4H58.5V97h34.4V131.4z M92.9,92.8H58.5V58.4h34.4V92.8z M92.9,54.1H58.5V19.7h34.4V54.1
	z M131.5,131.4H97.1V97h34.4V131.4z M131.5,92.8H97.1V58.4h34.4V92.8z M131.5,54.1H97.1V19.7h34.4V54.1z"/>
<rect x="19.8" y="97" class="st0" width="34.4" height="34.4"/>
<rect x="97.1" y="97" class="st0" width="34.4" height="34.4"/>
</svg>
