<?xml version="1.0" encoding="utf-8"?>
<!-- Generator: Adobe Illustrator 19.2.0, SVG Export Plug-In . SVG Version: 6.00 Build 0)  -->
<svg version="1.1" id="Layer_1" xmlns="http://www.w3.org/2000/svg" xmlns:xlink="http://www.w3.org/1999/xlink" x="0px" y="0px"
	 viewBox="0 0 151.2 151.2" style="enable-background:new 0 0 151.2 151.2;" xml:space="preserve">
<style type="text/css">
	.st0{fill:#BCBEC0;}
	.st1{fill:#212744;}
	.st2{fill:#F9C739;}
</style>
<rect x="-699.5" y="690.8" class="st0" width="34.4" height="34.4"/>
<rect x="-738.2" y="690.8" class="st0" width="34.4" height="34.4"/>
<path class="st1" d="M-669.1,671.2h-26.5v13.5h26.5V671.2z M-691.4,680.3v-5.1h18.1v5.1H-691.4z"/>
<rect x="-691.4" y="675.3" class="st2" width="18.1" height="5.1"/>
<path class="st1" d="M-630.2,671.2h-26.5v13.5h26.5V671.2z M-652.5,680.3v-5.1h18.1v5.1H-652.5z"/>
<rect x="-652.5" y="675.3" class="st2" width="18.1" height="5.1"/>
<path class="st1" d="M-606.7,759.8v-26.5h-13.5v26.5H-606.7z M-616,737.6h5.1v18.1h-5.1V737.6z"/>
<rect x="-616" y="737.6" class="st2" width="5.1" height="18.1"/>
<path class="st1" d="M-744.5,721.2v-26.5H-758v26.5H-744.5z M-753.7,698.9h5.1V717h-5.1V698.9z"/>
<rect x="-753.7" y="698.9" class="st2" width="5.1" height="18.1"/>
<path class="st1" d="M-744.5,759.8v-26.5H-758v26.5H-744.5z M-753.7,737.6h5.1v18.1h-5.1V737.6z"/>
<rect x="-753.7" y="737.6" class="st2" width="5.1" height="18.1"/>
<path class="st1" d="M-744.5,798.8v-26.5H-758v26.5H-744.5z M-753.7,776.4h5.1v18.1h-5.1V776.4z"/>
<rect x="-753.7" y="776.4" class="st2" width="5.1" height="18.1"/>
<path class="st1" d="M389.6,2136.1h-26.5v13.5h26.5V2136.1z M367.3,2145.3v-5.1h18.1v5.1H367.3z"/>
<rect x="367.3" y="2140.3" class="st2" width="18.1" height="5.1"/>
<path class="st1" d="M428.5,2136.1H402v13.5h26.5V2136.1z M406.2,2145.3v-5.1h18.1v5.1H406.2z"/>
<rect x="406.2" y="2140.3" class="st2" width="18.1" height="5.1"/>
<rect x="-660.9" y="690.8" class="st0" width="34.4" height="34.4"/>
<rect x="-699.5" y="729.6" class="st2" width="34.4" height="34.4"/>
<rect x="-738.2" y="729.6" class="st0" width="34.4" height="34.4"/>
<rect x="-660.9" y="729.6" class="st0" width="34.4" height="34.4"/>
<rect x="-699.5" y="768.2" class="st0" width="34.4" height="34.4"/>
<path class="st1" d="M-742.4,686.7v120.1h120.1V686.7H-742.4z M-738.2,690.8h34.4v34.4h-34.4V690.8z M-703.7,802.7h-34.5v-34.4h34.4
	L-703.7,802.7L-703.7,802.7z M-738.2,763.9v-34.4h34.4v34.4H-738.2z M-665.1,802.7h-34.4v-34.4h34.4V802.7z M-665.1,763.9h-34.4
	v-34.4h34.4V763.9z M-665.1,725.3h-34.4v-34.4h34.4V725.3z M-626.5,802.7H-661v-34.4h34.4V802.7z M-626.5,763.9H-661v-34.4h34.4
	V763.9z M-626.5,725.3H-661v-34.4h34.4V725.3z"/>
<rect x="-738.2" y="768.2" class="st0" width="34.4" height="34.4"/>
<rect x="-660.9" y="768.2" class="st0" width="34.4" height="34.4"/>
<rect x="58.4" y="19.8" class="st0" width="34.4" height="34.4"/>
<rect x="19.8" y="19.8" class="st0" width="34.4" height="34.4"/>
<path class="st1" d="M50.3-0.1H23.8v13.5h26.5V-0.1z M27.9,9.3V4.2h18.1v5.1H27.9z"/>
<rect x="27.9" y="4.1" class="st2" width="18.1" height="5.1"/>
<path class="st1" d="M88.9-0.1H62.4v13.5h26.5V-0.1z M66.6,9.3V4.2h18.1v5.1H66.6z"/>
<rect x="66.6" y="4.1" class="st2" width="18.1" height="5.1"/>
<path class="st1" d="M151.3,50.1V23.6h-13.5v26.5H151.3z M141.9,27.8h5.1v18.1h-5.1V27.8z"/>
<rect x="141.9" y="27.8" class="st2" width="5.1" height="18.1"/>
<path class="st1" d="M151.3,88.8V62.3h-13.5v26.5H151.3z M141.9,66.4h5.1v18.1h-5.1V66.4z"/>
<rect x="141.9" y="66.4" class="st2" width="5.1" height="18.1"/>
<path class="st1" d="M13.4,88.8V62.3H-0.1v26.5H13.4z M4.2,66.4h5.1v18.1H4.2V66.4z"/>
<rect x="4.2" y="66.4" class="st2" width="5.1" height="18.1"/>
<path class="st1" d="M13.4,127.6v-26.5H-0.1v26.5H13.4z M4.2,105.3h5.1v18.1H4.2V105.3z"/>
<rect x="4.2" y="105.3" class="st2" width="5.1" height="18.1"/>
<path class="st1" d="M88.9,137.8H62.4v13.5h26.5V137.8z M66.6,147v-5.1h18.1v5.1H66.6z"/>
<rect x="66.6" y="141.9" class="st2" width="18.1" height="5.1"/>
<rect x="97.1" y="19.8" class="st0" width="34.4" height="34.4"/>
<rect x="58.4" y="58.3" class="st2" width="34.4" height="34.4"/>
<rect x="19.8" y="58.3" class="st0" width="34.4" height="34.4"/>
<rect x="97.1" y="58.3" class="st0" width="34.4" height="34.4"/>
<rect x="58.4" y="97" class="st0" width="34.4" height="34.4"/>
<path class="st1" d="M15.6,15.5v120.1h120.1V15.5H15.6z M19.8,19.8h34.4v34.4H19.8V19.8z M54.2,131.4H19.8V97h34.4V131.4z
	 M19.8,92.8V58.4h34.4v34.4H19.8z M92.9,131.4H58.5V97h34.4V131.4z M92.9,92.8H58.5V58.4h34.4V92.8z M92.9,54.1H58.5V19.7h34.4V54.1
	z M131.4,131.4H97.1V97h34.4V131.4z M131.4,92.8H97.1V58.4h34.4V92.8z M131.4,54.1H97.1V19.7h34.4V54.1z"/>
<rect x="19.8" y="97" class="st0" width="34.4" height="34.4"/>
<rect x="97.1" y="97" class="st2" width="34.4" height="34.4"/>
<rect x="833.8" y="475.1" class="st0" width="34.4" height="34.4"/>
<rect x="795.1" y="475.1" class="st0" width="34.4" height="34.4"/>
<path class="st1" d="M864.1,455.2h-26.5v13.5h26.5V455.2z M841.9,464.6v-5.1H860v5.1H841.9z"/>
<rect x="841.9" y="459.4" class="st2" width="18.1" height="5.1"/>
<path class="st1" d="M926.6,544.1v-26.5h-13.5v26.5H926.6z M917.3,521.8h5.1v18.1h-5.1V521.8z"/>
<rect x="917.3" y="521.8" class="st2" width="5.1" height="18.1"/>
<path class="st1" d="M926.6,582.9v-26.5h-13.5v26.5H926.6z M917.3,560.7h5.1v18.1h-5.1V560.7z"/>
<rect x="917.3" y="560.7" class="st2" width="5.1" height="18.1"/>
<path class="st1" d="M788.8,505.4v-26.5h-13.5v26.5H788.8z M779.6,483.2h5.1v18.1h-5.1V483.2z"/>
<rect x="779.6" y="483.2" class="st2" width="5.1" height="18.1"/>
<path class="st1" d="M788.8,544.1v-26.5h-13.5v26.5H788.8z M779.6,521.8h5.1v18.1h-5.1V521.8z"/>
<rect x="779.6" y="521.8" class="st2" width="5.1" height="18.1"/>
<path class="st1" d="M825.6,593.1h-26.5v13.5h26.5V593.1z M803.3,602.3v-5.1h18.1v5.1H803.3z"/>
<rect x="803.3" y="597.2" class="st2" width="18.1" height="5.1"/>
<path class="st1" d="M864.1,593.1h-26.5v13.5h26.5V593.1z M841.9,602.3v-5.1H860v5.1H841.9z"/>
<rect x="841.9" y="597.2" class="st2" width="18.1" height="5.1"/>
<rect x="872.4" y="475.1" class="st2" width="34.4" height="34.4"/>
<rect x="833.8" y="513.7" class="st2" width="34.4" height="34.4"/>
<rect x="795.1" y="513.7" class="st0" width="34.4" height="34.4"/>
<rect x="872.4" y="513.7" class="st0" width="34.4" height="34.4"/>
<rect x="833.8" y="552.3" class="st0" width="34.4" height="34.4"/>
<path class="st1" d="M790.9,470.8v120.1H911V470.8H790.9z M795.1,475.1h34.4v34.4h-34.4V475.1z M829.6,586.8h-34.4v-34.4h34.4V586.8
	z M795.1,548.2v-34.4h34.4v34.4H795.1z M868.1,586.8h-34.4v-34.4h34.4V586.8z M868.1,548.2h-34.4v-34.4h34.4V548.2z M868.1,509.4
	h-34.4V475h34.4V509.4z M906.8,586.8h-34.4v-34.4h34.4V586.8z M906.8,548.2h-34.4v-34.4h34.4V548.2z M906.8,509.4h-34.4V475h34.4
	V509.4z"/>
<rect x="795.1" y="552.3" class="st0" width="34.4" height="34.4"/>
<rect x="872.4" y="552.3" class="st0" width="34.4" height="34.4"/>
</svg>
