<?xml version="1.0" encoding="utf-8"?>
<!-- Generator: Adobe Illustrator 19.2.0, SVG Export Plug-In . SVG Version: 6.00 Build 0)  -->
<svg version="1.1" id="Layer_1" xmlns="http://www.w3.org/2000/svg" xmlns:xlink="http://www.w3.org/1999/xlink" x="0px" y="0px"
	 viewBox="0 0 151.2 151.2" style="enable-background:new 0 0 151.2 151.2;" xml:space="preserve">
<style type="text/css">
	.st0{fill:#BCBEC0;}
	.st1{fill:#212744;}
	.st2{fill:#F9C739;}
</style>
<rect x="359.2" y="2018" class="st0" width="34.4" height="34.4"/>
<rect x="320.5" y="2018" class="st0" width="34.4" height="34.4"/>
<path class="st1" d="M389.6,1998.3h-26.5v13.5h26.5V1998.3z M367.3,2007.5v-5.1h18.1v5.1H367.3z"/>
<rect x="367.3" y="2002.5" class="st2" width="18.1" height="5.1"/>
<path class="st1" d="M428.5,1998.3H402v13.5h26.5V1998.3z M406.2,2007.5v-5.1h18.1v5.1H406.2z"/>
<rect x="406.2" y="2002.5" class="st2" width="18.1" height="5.1"/>
<path class="st1" d="M452,2087v-26.5h-13.5v26.5H452z M442.7,2064.7h5.1v18.1h-5.1V2064.7z"/>
<rect x="442.7" y="2064.7" class="st2" width="5.1" height="18.1"/>
<path class="st1" d="M314.2,2048.4v-26.5h-13.5v26.5H314.2z M305,2026.1h5.1v18.1H305V2026.1z"/>
<rect x="305" y="2026.1" class="st2" width="5.1" height="18.1"/>
<path class="st1" d="M314.2,2087v-26.5h-13.5v26.5H314.2z M305,2064.7h5.1v18.1H305V2064.7z"/>
<rect x="305" y="2064.7" class="st2" width="5.1" height="18.1"/>
<path class="st1" d="M314.2,2125.9v-26.5h-13.5v26.5H314.2z M305,2103.6h5.1v18.1H305V2103.6z"/>
<rect x="305" y="2103.6" class="st2" width="5.1" height="18.1"/>
<path class="st1" d="M389.6,2136.1h-26.5v13.5h26.5V2136.1z M367.3,2145.3v-5.1h18.1v5.1H367.3z"/>
<rect x="367.3" y="2140.3" class="st2" width="18.1" height="5.1"/>
<path class="st1" d="M428.5,2136.1H402v13.5h26.5V2136.1z M406.2,2145.3v-5.1h18.1v5.1H406.2z"/>
<rect x="406.2" y="2140.3" class="st2" width="18.1" height="5.1"/>
<rect x="397.8" y="2018" class="st0" width="34.4" height="34.4"/>
<rect x="359.2" y="2056.7" class="st2" width="34.4" height="34.4"/>
<rect x="320.5" y="2056.7" class="st0" width="34.4" height="34.4"/>
<rect x="397.8" y="2056.7" class="st0" width="34.4" height="34.4"/>
<rect x="359.2" y="2095.3" class="st0" width="34.4" height="34.4"/>
<path class="st1" d="M316.3,2013.8v120.1h120.1v-120.1H316.3z M320.5,2018h34.4v34.4h-34.4V2018z M355,2129.8h-34.5v-34.4h34.4
	L355,2129.8L355,2129.8z M320.5,2091.1v-34.4h34.4v34.4H320.5z M393.6,2129.8h-34.4v-34.4h34.4V2129.8z M393.6,2091.1h-34.4v-34.4
	h34.4V2091.1z M393.6,2052.5h-34.4v-34.4h34.4V2052.5z M432.2,2129.8h-34.4v-34.4h34.4V2129.8z M432.2,2091.1h-34.4v-34.4h34.4
	V2091.1z M432.2,2052.5h-34.4v-34.4h34.4V2052.5z"/>
<rect x="320.5" y="2095.3" class="st0" width="34.4" height="34.4"/>
<rect x="397.8" y="2095.3" class="st0" width="34.4" height="34.4"/>
<rect x="359.2" y="1802.2" class="st2" width="34.4" height="34.4"/>
<rect x="320.5" y="1802.2" class="st0" width="34.4" height="34.4"/>
<path class="st1" d="M452,1832.6v-26.5h-13.5v26.5H452z M442.7,1810.3h5.1v18.1h-5.1V1810.3z"/>
<rect x="442.7" y="1810.3" class="st2" width="5.1" height="18.1"/>
<path class="st1" d="M452,1871.2v-26.5h-13.5v26.5H452z M442.7,1848.9h5.1v18.1h-5.1V1848.9z"/>
<rect x="442.7" y="1848.9" class="st2" width="5.1" height="18.1"/>
<path class="st1" d="M452,1910.1v-26.5h-13.5v26.5H452z M442.7,1887.8h5.1v18.1h-5.1V1887.8z"/>
<rect x="442.7" y="1887.8" class="st2" width="5.1" height="18.1"/>
<path class="st1" d="M314.2,1832.6v-26.5h-13.5v26.5H314.2z M305,1810.3h5.1v18.1H305V1810.3z"/>
<rect x="305" y="1810.3" class="st2" width="5.1" height="18.1"/>
<path class="st1" d="M314.2,1871.2v-26.5h-13.5v26.5H314.2z M305,1848.9h5.1v18.1H305V1848.9z"/>
<rect x="305" y="1848.9" class="st2" width="5.1" height="18.1"/>
<path class="st1" d="M314.2,1910.1v-26.5h-13.5v26.5H314.2z M305,1887.8h5.1v18.1H305V1887.8z"/>
<rect x="305" y="1887.8" class="st2" width="5.1" height="18.1"/>
<rect x="397.8" y="1802.2" class="st0" width="34.4" height="34.4"/>
<rect x="359.2" y="1840.8" class="st2" width="34.4" height="34.4"/>
<rect x="320.5" y="1840.8" class="st0" width="34.4" height="34.4"/>
<rect x="397.8" y="1840.8" class="st0" width="34.4" height="34.4"/>
<rect x="359.2" y="1879.5" class="st2" width="34.4" height="34.4"/>
<path class="st1" d="M316.3,1798v120.1h120.1V1798H316.3z M320.5,1802.2h34.4v34.4h-34.4V1802.2z M355,1913.9h-34.5v-34.4h34.4
	L355,1913.9L355,1913.9z M320.5,1875.3v-34.4h34.4v34.4H320.5z M393.6,1913.9h-34.4v-34.4h34.4V1913.9z M393.6,1875.3h-34.4v-34.4
	h34.4V1875.3z M393.6,1836.6h-34.4v-34.4h34.4V1836.6z M432.2,1913.9h-34.4v-34.4h34.4V1913.9z M432.2,1875.3h-34.4v-34.4h34.4
	V1875.3z M432.2,1836.6h-34.4v-34.4h34.4V1836.6z"/>
<rect x="320.5" y="1879.5" class="st0" width="34.4" height="34.4"/>
<rect x="397.8" y="1879.5" class="st0" width="34.4" height="34.4"/>
<rect x="619.5" y="1802.2" class="st0" width="34.4" height="34.4"/>
<rect x="580.9" y="1802.2" class="st2" width="34.4" height="34.4"/>
<path class="st1" d="M650,1782.4h-26.5v13.5H650V1782.4z M627.7,1791.7v-5.1h18.1v5.1H627.7z"/>
<rect x="627.7" y="1786.6" class="st2" width="18.1" height="5.1"/>
<path class="st1" d="M712.3,1871.2v-26.5h-13.5v26.5H712.3z M703.1,1848.9h5.1v18.1h-5.1V1848.9z"/>
<rect x="703.1" y="1848.9" class="st2" width="5.1" height="18.1"/>
<path class="st1" d="M574.6,1871.2v-26.5h-13.5v26.5H574.6z M565.3,1848.9h5.1v18.1h-5.1V1848.9z"/>
<rect x="565.3" y="1848.9" class="st2" width="5.1" height="18.1"/>
<path class="st1" d="M650,1920.2h-26.5v13.5H650V1920.2z M627.7,1929.5v-5.1h18.1v5.1H627.7z"/>
<rect x="627.7" y="1924.4" class="st2" width="18.1" height="5.1"/>
<rect x="658.1" y="1802.2" class="st2" width="34.4" height="34.4"/>
<rect x="619.5" y="1840.8" class="st2" width="34.4" height="34.4"/>
<rect x="580.9" y="1840.8" class="st0" width="34.4" height="34.4"/>
<rect x="658.1" y="1840.8" class="st0" width="34.4" height="34.4"/>
<rect x="619.5" y="1879.5" class="st0" width="34.4" height="34.4"/>
<path class="st1" d="M576.7,1798v120.1h120.1V1798H576.7z M580.9,1802.2h34.4v34.4h-34.4V1802.2z M615.3,1913.9h-34.4v-34.4h34.4
	V1913.9z M580.9,1875.3v-34.4h34.4v34.4H580.9z M653.9,1913.9h-34.4v-34.4h34.4V1913.9z M653.9,1875.3h-34.4v-34.4h34.4V1875.3z
	 M653.9,1836.6h-34.4v-34.4h34.4V1836.6z M692.6,1913.9h-34.4v-34.4h34.4V1913.9z M692.6,1875.3h-34.4v-34.4h34.4V1875.3z
	 M692.6,1836.6h-34.4v-34.4h34.4V1836.6z"/>
<rect x="580.9" y="1879.5" class="st2" width="34.4" height="34.4"/>
<rect x="658.1" y="1879.5" class="st2" width="34.4" height="34.4"/>
<rect x="878.4" y="1802.2" class="st0" width="34.4" height="34.4"/>
<rect x="839.8" y="1802.2" class="st2" width="34.4" height="34.4"/>
<path class="st1" d="M908.9,1782.4h-26.5v13.5h26.5V1782.4z M886.6,1791.7v-5.1h18.1v5.1H886.6z"/>
<rect x="886.6" y="1786.6" class="st2" width="18.1" height="5.1"/>
<path class="st1" d="M971.3,1871.2v-26.5h-13.5v26.5H971.3z M962,1848.9h5.1v18.1H962V1848.9z"/>
<rect x="962" y="1848.9" class="st2" width="5.1" height="18.1"/>
<path class="st1" d="M971.3,1910.1v-26.5h-13.5v26.5H971.3z M962,1887.8h5.1v18.1H962V1887.8z"/>
<rect x="962" y="1887.8" class="st2" width="5.1" height="18.1"/>
<path class="st1" d="M833.5,1871.2v-26.5H820v26.5H833.5z M824.2,1848.9h5.1v18.1h-5.1V1848.9z"/>
<rect x="824.2" y="1848.9" class="st2" width="5.1" height="18.1"/>
<path class="st1" d="M833.5,1910.1v-26.5H820v26.5H833.5z M824.2,1887.8h5.1v18.1h-5.1V1887.8z"/>
<rect x="824.2" y="1887.8" class="st2" width="5.1" height="18.1"/>
<path class="st1" d="M908.9,1920.2h-26.5v13.5h26.5V1920.2z M886.6,1929.5v-5.1h18.1v5.1H886.6z"/>
<rect x="886.6" y="1924.4" class="st2" width="18.1" height="5.1"/>
<rect x="917.1" y="1802.2" class="st2" width="34.4" height="34.4"/>
<rect x="878.5" y="1840.8" class="st2" width="34.4" height="34.4"/>
<rect x="839.8" y="1840.8" class="st0" width="34.4" height="34.4"/>
<rect x="917.1" y="1840.8" class="st0" width="34.4" height="34.4"/>
<rect x="878.4" y="1879.5" class="st0" width="34.4" height="34.4"/>
<path class="st1" d="M835.6,1798v120.1h120.1V1798H835.6z M839.8,1802.2h34.4v34.4h-34.4V1802.2z M874.2,1913.9h-34.4v-34.4h34.4
	V1913.9z M839.8,1875.3v-34.4h34.4v34.4H839.8z M912.9,1913.9h-34.4v-34.4h34.4V1913.9z M912.9,1875.3h-34.4v-34.4h34.4V1875.3z
	 M912.9,1836.6h-34.4v-34.4h34.4V1836.6z M951.5,1913.9h-34.4v-34.4h34.4V1913.9z M951.5,1875.3h-34.4v-34.4h34.4V1875.3z
	 M951.5,1836.6h-34.4v-34.4h34.4V1836.6z"/>
<rect x="839.8" y="1879.5" class="st0" width="34.4" height="34.4"/>
<rect x="917.1" y="1879.5" class="st0" width="34.4" height="34.4"/>
<rect x="1129.9" y="1802.2" class="st0" width="34.4" height="34.4"/>
<rect x="1091.2" y="1802.2" class="st0" width="34.4" height="34.4"/>
<path class="st1" d="M1121.7,1782.4h-26.5v13.5h26.5V1782.4z M1099.4,1791.7v-5.1h18.1v5.1H1099.4z"/>
<rect x="1099.4" y="1786.6" class="st2" width="18.1" height="5.1"/>
<path class="st1" d="M1160.3,1782.4h-26.5v13.5h26.5V1782.4z M1138.1,1791.7v-5.1h18.1v5.1H1138.1z"/>
<rect x="1138.1" y="1786.6" class="st2" width="18.1" height="5.1"/>
<path class="st1" d="M1199.2,1782.4h-26.5v13.5h26.5V1782.4z M1176.9,1791.7v-5.1h18.1v5.1H1176.9z"/>
<rect x="1176.9" y="1786.6" class="st2" width="18.1" height="5.1"/>
<path class="st1" d="M1222.7,1871.2v-26.5h-13.5v26.5H1222.7z M1213.5,1848.9h5.1v18.1h-5.1V1848.9z"/>
<rect x="1213.5" y="1848.9" class="st2" width="5.1" height="18.1"/>
<path class="st1" d="M1084.9,1871.2v-26.5h-13.4v26.5H1084.9z M1075.7,1848.9h5.1v18.1h-5.1V1848.9z"/>
<rect x="1075.7" y="1848.9" class="st2" width="5.1" height="18.1"/>
<path class="st1" d="M1160.3,1920.2h-26.5v13.5h26.5V1920.2z M1138.1,1929.5v-5.1h18.1v5.1H1138.1z"/>
<rect x="1138.1" y="1924.4" class="st2" width="18.1" height="5.1"/>
<rect x="1168.5" y="1802.2" class="st0" width="34.4" height="34.4"/>
<rect x="1129.9" y="1840.8" class="st2" width="34.4" height="34.4"/>
<rect x="1091.2" y="1840.8" class="st0" width="34.4" height="34.4"/>
<rect x="1168.5" y="1840.8" class="st0" width="34.4" height="34.4"/>
<rect x="1129.9" y="1879.5" class="st0" width="34.4" height="34.4"/>
<path class="st1" d="M1087,1798v120.1h120.1V1798H1087z M1091.2,1802.2h34.4v34.4h-34.4V1802.2z M1125.7,1913.9h-34.4v-34.4h34.4
	V1913.9z M1091.2,1875.3v-34.4h34.4v34.4H1091.2z M1164.3,1913.9h-34.4v-34.4h34.4V1913.9z M1164.3,1875.3h-34.4v-34.4h34.4V1875.3z
	 M1164.3,1836.6h-34.4v-34.4h34.4V1836.6z M1203,1913.9h-34.5v-34.4h34.4v34.4H1203z M1203,1875.3h-34.5v-34.4h34.4v34.4H1203z
	 M1203,1836.6h-34.5v-34.4h34.4v34.4H1203z"/>
<rect x="1091.2" y="1879.5" class="st2" width="34.4" height="34.4"/>
<rect x="1168.5" y="1879.5" class="st2" width="34.4" height="34.4"/>
<rect x="1385.8" y="1802.2" class="st0" width="34.4" height="34.4"/>
<rect x="1347.2" y="1802.2" class="st2" width="34.4" height="34.4"/>
<path class="st1" d="M1416.3,1782.4h-26.5v13.5h26.5V1782.4z M1394,1791.7v-5.1h18.1v5.1H1394z"/>
<rect x="1394" y="1786.6" class="st2" width="18.1" height="5.1"/>
<path class="st1" d="M1455.2,1782.4h-26.5v13.5h26.5V1782.4z M1432.9,1791.7v-5.1h18.1v5.1H1432.9z"/>
<rect x="1432.9" y="1786.6" class="st2" width="18.1" height="5.1"/>
<path class="st1" d="M1478.7,1871.2v-26.5h-13.5v26.5H1478.7z M1469.4,1848.9h5.1v18.1h-5.1V1848.9z"/>
<rect x="1469.4" y="1848.9" class="st2" width="5.1" height="18.1"/>
<path class="st1" d="M1340.9,1871.2v-26.5h-13.5v26.5H1340.9z M1331.6,1848.9h5.1v18.1h-5.1V1848.9z"/>
<rect x="1331.6" y="1848.9" class="st2" width="5.1" height="18.1"/>
<path class="st1" d="M1340.9,1910.1v-26.5h-13.5v26.5H1340.9z M1331.6,1887.8h5.1v18.1h-5.1V1887.8z"/>
<rect x="1331.6" y="1887.8" class="st2" width="5.1" height="18.1"/>
<path class="st1" d="M1416.3,1920.2h-26.5v13.5h26.5V1920.2z M1394,1929.5v-5.1h18.1v5.1H1394z"/>
<rect x="1394" y="1924.4" class="st2" width="18.1" height="5.1"/>
<rect x="1424.5" y="1802.2" class="st0" width="34.4" height="34.4"/>
<rect x="1385.8" y="1840.8" class="st2" width="34.4" height="34.4"/>
<rect x="1347.2" y="1840.8" class="st0" width="34.4" height="34.4"/>
<rect x="1424.5" y="1840.8" class="st0" width="34.4" height="34.4"/>
<rect x="1385.8" y="1879.5" class="st0" width="34.4" height="34.4"/>
<path class="st1" d="M1343,1798v120.1h120.1V1798H1343z M1347.2,1802.2h34.4v34.4h-34.4V1802.2z M1381.6,1913.9h-34.4v-34.4h34.4
	V1913.9z M1347.2,1875.3v-34.4h34.4v34.4H1347.2z M1420.3,1913.9h-34.4v-34.4h34.4V1913.9z M1420.3,1875.3h-34.4v-34.4h34.4V1875.3z
	 M1420.3,1836.6h-34.4v-34.4h34.4V1836.6z M1458.9,1913.9h-34.4v-34.4h34.4V1913.9z M1458.9,1875.3h-34.4v-34.4h34.4V1875.3z
	 M1458.9,1836.6h-34.4v-34.4h34.4V1836.6z"/>
<rect x="1347.2" y="1879.5" class="st0" width="34.4" height="34.4"/>
<rect x="1424.5" y="1879.5" class="st2" width="34.4" height="34.4"/>
<rect x="1635.8" y="1802.2" class="st0" width="34.4" height="34.4"/>
<rect x="1597.2" y="1802.2" class="st0" width="34.4" height="34.4"/>
<path class="st1" d="M1627.7,1782.4h-26.5v13.5h26.5V1782.4z M1605.4,1791.7v-5.1h18.1v5.1H1605.4z"/>
<rect x="1605.4" y="1786.6" class="st2" width="18.1" height="5.1"/>
<path class="st1" d="M1666.3,1782.4h-26.5v13.5h26.5V1782.4z M1644,1791.7v-5.1h18.1v5.1H1644z"/>
<rect x="1644" y="1786.6" class="st2" width="18.1" height="5.1"/>
<path class="st1" d="M1728.7,1832.6v-26.5h-13.5v26.5H1728.7z M1719.4,1810.3h5.1v18.1h-5.1V1810.3z"/>
<rect x="1719.4" y="1810.3" class="st2" width="5.1" height="18.1"/>
<path class="st1" d="M1728.7,1871.2v-26.5h-13.5v26.5H1728.7z M1719.4,1848.9h5.1v18.1h-5.1V1848.9z"/>
<rect x="1719.4" y="1848.9" class="st2" width="5.1" height="18.1"/>
<path class="st1" d="M1590.9,1871.2v-26.5h-13.5v26.5H1590.9z M1581.6,1848.9h5.1v18.1h-5.1V1848.9z"/>
<rect x="1581.6" y="1848.9" class="st2" width="5.1" height="18.1"/>
<path class="st1" d="M1590.9,1910.1v-26.5h-13.5v26.5H1590.9z M1581.6,1887.8h5.1v18.1h-5.1V1887.8z"/>
<rect x="1581.6" y="1887.8" class="st2" width="5.1" height="18.1"/>
<path class="st1" d="M1666.3,1920.2h-26.5v13.5h26.5V1920.2z M1644,1929.5v-5.1h18.1v5.1H1644z"/>
<rect x="1644" y="1924.4" class="st2" width="18.1" height="5.1"/>
<rect x="1674.5" y="1802.2" class="st0" width="34.4" height="34.4"/>
<rect x="1635.8" y="1840.8" class="st2" width="34.4" height="34.4"/>
<rect x="1597.2" y="1840.8" class="st0" width="34.4" height="34.4"/>
<rect x="1674.5" y="1840.8" class="st0" width="34.4" height="34.4"/>
<rect x="1635.8" y="1879.5" class="st0" width="34.4" height="34.4"/>
<path class="st1" d="M1593,1798v120.1h120.1V1798H1593z M1597.2,1802.2h34.4v34.4h-34.4V1802.2z M1631.6,1913.9h-34.4v-34.4h34.4
	V1913.9z M1597.2,1875.3v-34.4h34.4v34.4H1597.2z M1670.3,1913.9h-34.4v-34.4h34.4V1913.9z M1670.3,1875.3h-34.4v-34.4h34.4V1875.3z
	 M1670.3,1836.6h-34.4v-34.4h34.4V1836.6z M1708.9,1913.9h-34.4v-34.4h34.4V1913.9z M1708.9,1875.3h-34.4v-34.4h34.4V1875.3z
	 M1708.9,1836.6h-34.4v-34.4h34.4V1836.6z"/>
<rect x="1597.2" y="1879.5" class="st0" width="34.4" height="34.4"/>
<rect x="1674.5" y="1879.5" class="st2" width="34.4" height="34.4"/>
<rect x="1892.5" y="1802.2" class="st0" width="34.4" height="34.4"/>
<rect x="1853.8" y="1802.2" class="st0" width="34.4" height="34.4"/>
<path class="st1" d="M1922.9,1782.4h-26.5v13.5h26.5V1782.4z M1900.6,1791.7v-5.1h18.1v5.1H1900.6z"/>
<rect x="1900.6" y="1786.6" class="st2" width="18.1" height="5.1"/>
<path class="st1" d="M1985.3,1871.2v-26.5h-13.5v26.5H1985.3z M1976,1848.9h5.1v18.1h-5.1V1848.9z"/>
<rect x="1976" y="1848.9" class="st2" width="5.1" height="18.1"/>
<path class="st1" d="M1985.3,1910.1v-26.5h-13.5v26.5H1985.3z M1976,1887.8h5.1v18.1h-5.1V1887.8z"/>
<rect x="1976" y="1887.8" class="st2" width="5.1" height="18.1"/>
<path class="st1" d="M1847.5,1832.6v-26.5H1834v26.5H1847.5z M1838.3,1810.3h5.1v18.1h-5.1V1810.3z"/>
<rect x="1838.3" y="1810.3" class="st2" width="5.1" height="18.1"/>
<path class="st1" d="M1847.5,1871.2v-26.5H1834v26.5H1847.5z M1838.3,1848.9h5.1v18.1h-5.1V1848.9z"/>
<rect x="1838.3" y="1848.9" class="st2" width="5.1" height="18.1"/>
<path class="st1" d="M1884.3,1920.2h-26.5v13.5h26.5V1920.2z M1862,1929.5v-5.1h18.1v5.1H1862z"/>
<rect x="1862" y="1924.4" class="st2" width="18.1" height="5.1"/>
<path class="st1" d="M1922.9,1920.2h-26.5v13.5h26.5V1920.2z M1900.6,1929.5v-5.1h18.1v5.1H1900.6z"/>
<rect x="1900.6" y="1924.4" class="st2" width="18.1" height="5.1"/>
<rect x="1931.1" y="1802.2" class="st2" width="34.4" height="34.4"/>
<rect x="1892.5" y="1840.8" class="st2" width="34.4" height="34.4"/>
<rect x="1853.8" y="1840.8" class="st0" width="34.4" height="34.4"/>
<rect x="1931.1" y="1840.8" class="st0" width="34.4" height="34.4"/>
<rect x="1892.5" y="1879.5" class="st0" width="34.4" height="34.4"/>
<path class="st1" d="M1849.6,1798v120.1h120.1V1798H1849.6z M1853.8,1802.2h34.4v34.4h-34.4V1802.2z M1888.3,1913.9h-34.4v-34.4
	h34.4V1913.9z M1853.8,1875.3v-34.4h34.4v34.4H1853.8z M1926.9,1913.9h-34.4v-34.4h34.4V1913.9z M1926.9,1875.3h-34.4v-34.4h34.4
	V1875.3z M1926.9,1836.6h-34.4v-34.4h34.4V1836.6z M1965.5,1913.9h-34.4v-34.4h34.4V1913.9z M1965.5,1875.3h-34.4v-34.4h34.4V1875.3
	z M1965.5,1836.6h-34.4v-34.4h34.4V1836.6z"/>
<rect x="1853.8" y="1879.5" class="st0" width="34.4" height="34.4"/>
<rect x="1931.1" y="1879.5" class="st0" width="34.4" height="34.4"/>
<rect x="349.3" y="1551.1" class="st2" width="34.4" height="34.4"/>
<rect x="310.6" y="1551.1" class="st0" width="34.4" height="34.4"/>
<path class="st1" d="M341.1,1531.3h-26.5v13.5h26.5V1531.3z M318.8,1540.6v-5.1h18.1v5.1H318.8z"/>
<rect x="318.8" y="1535.5" class="st2" width="18.1" height="5.1"/>
<path class="st1" d="M442.1,1581.4v-26.5h-13.5v26.5H442.1z M432.9,1559.1h5.1v18.1h-5.1V1559.1z"/>
<rect x="432.9" y="1559.1" class="st2" width="5.1" height="18.1"/>
<path class="st1" d="M442.1,1620v-26.5h-13.5v26.5H442.1z M432.9,1597.8h5.1v18.1h-5.1V1597.8z"/>
<rect x="432.9" y="1597.8" class="st2" width="5.1" height="18.1"/>
<path class="st1" d="M442.1,1658.9v-26.5h-13.5v26.5H442.1z M432.9,1636.6h5.1v18.1h-5.1V1636.6z"/>
<rect x="432.9" y="1636.6" class="st2" width="5.1" height="18.1"/>
<path class="st1" d="M341.1,1669.1h-26.5v13.5h26.5V1669.1z M318.8,1678.3v-5.1h18.1v5.1H318.8z"/>
<rect x="318.8" y="1673.3" class="st2" width="18.1" height="5.1"/>
<path class="st1" d="M379.7,1669.1h-26.5v13.5h26.5V1669.1z M357.5,1678.3v-5.1h18.1v5.1H357.5z"/>
<rect x="357.5" y="1673.3" class="st2" width="18.1" height="5.1"/>
<rect x="387.9" y="1551.1" class="st0" width="34.4" height="34.4"/>
<rect x="349.3" y="1589.7" class="st2" width="34.4" height="34.4"/>
<rect x="310.6" y="1589.7" class="st2" width="34.4" height="34.4"/>
<rect x="387.9" y="1589.7" class="st0" width="34.4" height="34.4"/>
<rect x="349.3" y="1628.3" class="st0" width="34.4" height="34.4"/>
<path class="st1" d="M306.4,1546.9V1667h120.1v-120.1H306.4z M310.6,1551.1H345v34.4h-34.4V1551.1z M345.1,1662.8h-34.4v-34.4h34.4
	V1662.8z M310.6,1624.1v-34.4H345v34.4H310.6z M383.7,1662.8h-34.4v-34.4h34.4V1662.8z M383.7,1624.1h-34.4v-34.4h34.4V1624.1z
	 M383.7,1585.5h-34.4v-34.4h34.4V1585.5z M422.4,1662.8H388v-34.4h34.4V1662.8z M422.4,1624.1H388v-34.4h34.4V1624.1z M422.4,1585.5
	H388v-34.4h34.4V1585.5z"/>
<rect x="310.6" y="1628.3" class="st0" width="34.4" height="34.4"/>
<rect x="387.9" y="1628.3" class="st0" width="34.4" height="34.4"/>
<rect x="629.4" y="1551.1" class="st2" width="34.4" height="34.4"/>
<rect x="590.7" y="1551.1" class="st0" width="34.4" height="34.4"/>
<path class="st1" d="M698.7,1531.3h-26.5v13.5h26.5V1531.3z M676.4,1540.6v-5.1h18.1v5.1H676.4z"/>
<rect x="676.4" y="1535.5" class="st2" width="18.1" height="5.1"/>
<path class="st1" d="M584.5,1581.4v-26.5H571v26.5H584.5z M575.2,1559.1h5.1v18.1h-5.1V1559.1z"/>
<rect x="575.2" y="1559.1" class="st2" width="5.1" height="18.1"/>
<path class="st1" d="M584.5,1620v-26.5H571v26.5H584.5z M575.2,1597.8h5.1v18.1h-5.1V1597.8z"/>
<rect x="575.2" y="1597.8" class="st2" width="5.1" height="18.1"/>
<path class="st1" d="M584.5,1658.9v-26.5H571v26.5H584.5z M575.2,1636.6h5.1v18.1h-5.1V1636.6z"/>
<rect x="575.2" y="1636.6" class="st2" width="5.1" height="18.1"/>
<path class="st1" d="M659.9,1669.1h-26.5v13.5h26.5V1669.1z M637.6,1678.3v-5.1h18.1v5.1H637.6z"/>
<rect x="637.6" y="1673.3" class="st2" width="18.1" height="5.1"/>
<path class="st1" d="M698.7,1669.1h-26.5v13.5h26.5V1669.1z M676.4,1678.3v-5.1h18.1v5.1H676.4z"/>
<rect x="676.4" y="1673.3" class="st2" width="18.1" height="5.1"/>
<rect x="668" y="1551.1" class="st0" width="34.4" height="34.4"/>
<rect x="629.4" y="1589.7" class="st2" width="34.4" height="34.4"/>
<rect x="590.8" y="1589.7" class="st0" width="34.4" height="34.4"/>
<rect x="668" y="1589.7" class="st2" width="34.4" height="34.4"/>
<rect x="629.4" y="1628.3" class="st0" width="34.4" height="34.4"/>
<path class="st1" d="M586.6,1546.9V1667h120.1v-120.1H586.6z M590.8,1551.1h34.4v34.4h-34.4V1551.1z M625.2,1662.8h-34.4v-34.4h34.4
	V1662.8z M590.8,1624.1v-34.4h34.4v34.4H590.8z M663.8,1662.8h-34.4v-34.4h34.4V1662.8z M663.8,1624.1h-34.4v-34.4h34.4V1624.1z
	 M663.8,1585.5h-34.4v-34.4h34.4V1585.5z M702.5,1662.8h-34.4v-34.4h34.4V1662.8z M702.5,1624.1h-34.4v-34.4h34.4V1624.1z
	 M702.5,1585.5h-34.4v-34.4h34.4V1585.5z"/>
<rect x="590.7" y="1628.3" class="st0" width="34.4" height="34.4"/>
<rect x="668" y="1628.3" class="st0" width="34.4" height="34.4"/>
<rect x="878.4" y="1541.2" class="st2" width="34.4" height="34.4"/>
<rect x="839.8" y="1541.2" class="st0" width="34.4" height="34.4"/>
<path class="st1" d="M971.3,1571.5V1545h-13.5v26.5H971.3z M962,1549.2h5.1v18.1H962V1549.2z"/>
<rect x="962" y="1549.2" class="st2" width="5.1" height="18.1"/>
<path class="st1" d="M971.3,1610.2v-26.5h-13.5v26.5H971.3z M962,1587.9h5.1v18.1H962V1587.9z"/>
<rect x="962" y="1587.9" class="st2" width="5.1" height="18.1"/>
<path class="st1" d="M971.3,1649v-26.5h-13.5v26.5H971.3z M962,1626.7h5.1v18.1H962V1626.7z"/>
<rect x="962" y="1626.7" class="st2" width="5.1" height="18.1"/>
<path class="st1" d="M833.5,1571.5V1545H820v26.5H833.5z M824.2,1549.2h5.1v18.1h-5.1V1549.2z"/>
<rect x="824.2" y="1549.2" class="st2" width="5.1" height="18.1"/>
<path class="st1" d="M833.5,1649v-26.5H820v26.5H833.5z M824.2,1626.7h5.1v18.1h-5.1V1626.7z"/>
<rect x="824.2" y="1626.7" class="st2" width="5.1" height="18.1"/>
<path class="st1" d="M908.9,1659.2h-26.5v13.5h26.5V1659.2z M886.6,1668.5v-5.1h18.1v5.1H886.6z"/>
<rect x="886.6" y="1663.4" class="st2" width="18.1" height="5.1"/>
<rect x="917.1" y="1541.2" class="st0" width="34.4" height="34.4"/>
<rect x="878.5" y="1579.8" class="st2" width="34.4" height="34.4"/>
<rect x="839.8" y="1579.8" class="st2" width="34.4" height="34.4"/>
<rect x="917.1" y="1579.8" class="st0" width="34.4" height="34.4"/>
<rect x="878.4" y="1618.4" class="st0" width="34.4" height="34.4"/>
<path class="st1" d="M835.6,1537v120.1h120.1V1537H835.6z M839.8,1541.2h34.4v34.4h-34.4V1541.2z M874.2,1652.9h-34.4v-34.4h34.4
	V1652.9z M839.8,1614.2v-34.4h34.4v34.4H839.8z M912.9,1652.9h-34.4v-34.4h34.4V1652.9z M912.9,1614.2h-34.4v-34.4h34.4V1614.2z
	 M912.9,1575.6h-34.4v-34.4h34.4V1575.6z M951.5,1652.9h-34.4v-34.4h34.4V1652.9z M951.5,1614.2h-34.4v-34.4h34.4V1614.2z
	 M951.5,1575.6h-34.4v-34.4h34.4V1575.6z"/>
<rect x="839.8" y="1618.4" class="st0" width="34.4" height="34.4"/>
<rect x="917.1" y="1618.4" class="st0" width="34.4" height="34.4"/>
<rect x="1129.9" y="1541.2" class="st2" width="34.4" height="34.4"/>
<rect x="1091.2" y="1541.2" class="st0" width="34.4" height="34.4"/>
<path class="st1" d="M1222.7,1571.5V1545h-13.5v26.5H1222.7z M1213.5,1549.2h5.1v18.1h-5.1V1549.2z"/>
<rect x="1213.5" y="1549.2" class="st2" width="5.1" height="18.1"/>
<path class="st1" d="M1222.7,1649v-26.5h-13.5v26.5H1222.7z M1213.5,1626.7h5.1v18.1h-5.1V1626.7z"/>
<rect x="1213.5" y="1626.7" class="st2" width="5.1" height="18.1"/>
<path class="st1" d="M1084.9,1571.5V1545h-13.4v26.5H1084.9z M1075.7,1549.2h5.1v18.1h-5.1V1549.2z"/>
<rect x="1075.7" y="1549.2" class="st2" width="5.1" height="18.1"/>
<path class="st1" d="M1084.9,1610.2v-26.5h-13.4v26.5H1084.9z M1075.7,1587.9h5.1v18.1h-5.1V1587.9z"/>
<rect x="1075.7" y="1587.9" class="st2" width="5.1" height="18.1"/>
<path class="st1" d="M1084.9,1649v-26.5h-13.4v26.5H1084.9z M1075.7,1626.7h5.1v18.1h-5.1V1626.7z"/>
<rect x="1075.7" y="1626.7" class="st2" width="5.1" height="18.1"/>
<path class="st1" d="M1160.3,1659.2h-26.5v13.5h26.5V1659.2z M1138.1,1668.5v-5.1h18.1v5.1H1138.1z"/>
<rect x="1138.1" y="1663.4" class="st2" width="18.1" height="5.1"/>
<rect x="1168.5" y="1541.2" class="st0" width="34.4" height="34.4"/>
<rect x="1129.9" y="1579.8" class="st2" width="34.4" height="34.4"/>
<rect x="1091.2" y="1579.8" class="st0" width="34.4" height="34.4"/>
<rect x="1168.5" y="1579.8" class="st2" width="34.4" height="34.4"/>
<rect x="1129.9" y="1618.4" class="st0" width="34.4" height="34.4"/>
<path class="st1" d="M1087,1537v120.1h120.1V1537H1087z M1091.2,1541.2h34.4v34.4h-34.4V1541.2z M1125.7,1652.9h-34.4v-34.4h34.4
	V1652.9z M1091.2,1614.2v-34.4h34.4v34.4H1091.2z M1164.3,1652.9h-34.4v-34.4h34.4V1652.9z M1164.3,1614.2h-34.4v-34.4h34.4V1614.2z
	 M1164.3,1575.6h-34.4v-34.4h34.4V1575.6z M1203,1652.9h-34.5v-34.4h34.4v34.4H1203z M1203,1614.2h-34.5v-34.4h34.4v34.4H1203z
	 M1203,1575.6h-34.5v-34.4h34.4v34.4H1203z"/>
<rect x="1091.2" y="1618.4" class="st0" width="34.4" height="34.4"/>
<rect x="1168.5" y="1618.4" class="st0" width="34.4" height="34.4"/>
<rect x="1385.8" y="1551.1" class="st2" width="34.4" height="34.4"/>
<rect x="1347.2" y="1551.1" class="st0" width="34.4" height="34.4"/>
<path class="st1" d="M1377.7,1531.3h-26.5v13.5h26.5V1531.3z M1355.4,1540.6v-5.1h18.1v5.1H1355.4z"/>
<rect x="1355.4" y="1535.5" class="st2" width="18.1" height="5.1"/>
<path class="st1" d="M1478.7,1581.4v-26.5h-13.5v26.5H1478.7z M1469.4,1559.1h5.1v18.1h-5.1V1559.1z"/>
<rect x="1469.4" y="1559.1" class="st2" width="5.1" height="18.1"/>
<path class="st1" d="M1478.7,1620v-26.5h-13.5v26.5H1478.7z M1469.4,1597.8h5.1v18.1h-5.1V1597.8z"/>
<rect x="1469.4" y="1597.8" class="st2" width="5.1" height="18.1"/>
<path class="st1" d="M1478.7,1658.9v-26.5h-13.5v26.5H1478.7z M1469.4,1636.6h5.1v18.1h-5.1V1636.6z"/>
<rect x="1469.4" y="1636.6" class="st2" width="5.1" height="18.1"/>
<path class="st1" d="M1340.9,1620v-26.5h-13.5v26.5H1340.9z M1331.6,1597.8h5.1v18.1h-5.1V1597.8z"/>
<rect x="1331.6" y="1597.8" class="st2" width="5.1" height="18.1"/>
<path class="st1" d="M1377.7,1669.1h-26.5v13.5h26.5V1669.1z M1355.4,1678.3v-5.1h18.1v5.1H1355.4z"/>
<rect x="1355.4" y="1673.3" class="st2" width="18.1" height="5.1"/>
<rect x="1424.5" y="1551.1" class="st0" width="34.4" height="34.4"/>
<rect x="1385.8" y="1589.7" class="st2" width="34.4" height="34.4"/>
<rect x="1347.2" y="1589.7" class="st0" width="34.4" height="34.4"/>
<rect x="1424.5" y="1589.7" class="st0" width="34.4" height="34.4"/>
<rect x="1385.8" y="1628.3" class="st2" width="34.4" height="34.4"/>
<path class="st1" d="M1343,1546.9V1667h120.1v-120.1H1343z M1347.2,1551.1h34.4v34.4h-34.4V1551.1z M1381.6,1662.8h-34.4v-34.4h34.4
	V1662.8z M1347.2,1624.1v-34.4h34.4v34.4H1347.2z M1420.3,1662.8h-34.4v-34.4h34.4V1662.8z M1420.3,1624.1h-34.4v-34.4h34.4V1624.1z
	 M1420.3,1585.5h-34.4v-34.4h34.4V1585.5z M1458.9,1662.8h-34.4v-34.4h34.4V1662.8z M1458.9,1624.1h-34.4v-34.4h34.4V1624.1z
	 M1458.9,1585.5h-34.4v-34.4h34.4V1585.5z"/>
<rect x="1347.2" y="1628.3" class="st0" width="34.4" height="34.4"/>
<rect x="1424.5" y="1628.3" class="st0" width="34.4" height="34.4"/>
<rect x="1645.7" y="1551.1" class="st0" width="34.4" height="34.4"/>
<rect x="1607.1" y="1551.1" class="st0" width="34.4" height="34.4"/>
<path class="st1" d="M1676.2,1531.3h-26.5v13.5h26.5V1531.3z M1653.9,1540.6v-5.1h18.1v5.1H1653.9z"/>
<rect x="1653.9" y="1535.5" class="st2" width="18.1" height="5.1"/>
<path class="st1" d="M1715,1531.3h-26.5v13.5h26.5V1531.3z M1692.7,1540.6v-5.1h18.1v5.1H1692.7z"/>
<rect x="1692.7" y="1535.5" class="st2" width="18.1" height="5.1"/>
<path class="st1" d="M1600.8,1581.4v-26.5h-13.5v26.5H1600.8z M1591.5,1559.1h5.1v18.1h-5.1V1559.1z"/>
<rect x="1591.5" y="1559.1" class="st2" width="5.1" height="18.1"/>
<path class="st1" d="M1600.8,1658.9v-26.5h-13.5v26.5H1600.8z M1591.5,1636.6h5.1v18.1h-5.1V1636.6z"/>
<rect x="1591.5" y="1636.6" class="st2" width="5.1" height="18.1"/>
<path class="st1" d="M1676.2,1669.1h-26.5v13.5h26.5V1669.1z M1653.9,1678.3v-5.1h18.1v5.1H1653.9z"/>
<rect x="1653.9" y="1673.3" class="st2" width="18.1" height="5.1"/>
<path class="st1" d="M1715,1669.1h-26.5v13.5h26.5V1669.1z M1692.7,1678.3v-5.1h18.1v5.1H1692.7z"/>
<rect x="1692.7" y="1673.3" class="st2" width="18.1" height="5.1"/>
<rect x="1684.3" y="1551.1" class="st0" width="34.4" height="34.4"/>
<rect x="1645.7" y="1589.7" class="st2" width="34.4" height="34.4"/>
<rect x="1607.1" y="1589.7" class="st2" width="34.4" height="34.4"/>
<rect x="1684.3" y="1589.7" class="st2" width="34.4" height="34.4"/>
<rect x="1645.7" y="1628.3" class="st0" width="34.4" height="34.4"/>
<path class="st1" d="M1602.9,1546.9V1667H1723v-120.1H1602.9z M1607.1,1551.1h34.4v34.4h-34.4V1551.1z M1641.5,1662.8h-34.4v-34.4
	h34.4V1662.8z M1607.1,1624.1v-34.4h34.4v34.4H1607.1z M1680.1,1662.8h-34.4v-34.4h34.4V1662.8z M1680.1,1624.1h-34.4v-34.4h34.4
	V1624.1z M1680.1,1585.5h-34.4v-34.4h34.4V1585.5z M1718.8,1662.8h-34.4v-34.4h34.4V1662.8z M1718.8,1624.1h-34.4v-34.4h34.4V1624.1
	z M1718.8,1585.5h-34.4v-34.4h34.4V1585.5z"/>
<rect x="1607.1" y="1628.3" class="st0" width="34.4" height="34.4"/>
<rect x="1684.3" y="1628.3" class="st0" width="34.4" height="34.4"/>
<rect x="1892.5" y="1551.1" class="st0" width="34.4" height="34.4"/>
<rect x="1853.8" y="1551.1" class="st0" width="34.4" height="34.4"/>
<path class="st1" d="M1922.9,1531.3h-26.5v13.5h26.5V1531.3z M1900.6,1540.6v-5.1h18.1v5.1H1900.6z"/>
<rect x="1900.6" y="1535.5" class="st2" width="18.1" height="5.1"/>
<path class="st1" d="M1985.3,1581.4v-26.5h-13.5v26.5H1985.3z M1976,1559.1h5.1v18.1h-5.1V1559.1z"/>
<rect x="1976" y="1559.1" class="st2" width="5.1" height="18.1"/>
<path class="st1" d="M1985.3,1658.9v-26.5h-13.5v26.5H1985.3z M1976,1636.6h5.1v18.1h-5.1V1636.6z"/>
<rect x="1976" y="1636.6" class="st2" width="5.1" height="18.1"/>
<path class="st1" d="M1847.5,1581.4v-26.5H1834v26.5H1847.5z M1838.3,1559.1h5.1v18.1h-5.1V1559.1z"/>
<rect x="1838.3" y="1559.1" class="st2" width="5.1" height="18.1"/>
<path class="st1" d="M1847.5,1658.9v-26.5H1834v26.5H1847.5z M1838.3,1636.6h5.1v18.1h-5.1V1636.6z"/>
<rect x="1838.3" y="1636.6" class="st2" width="5.1" height="18.1"/>
<path class="st1" d="M1922.9,1669.1h-26.5v13.5h26.5V1669.1z M1900.6,1678.3v-5.1h18.1v5.1H1900.6z"/>
<rect x="1900.6" y="1673.3" class="st2" width="18.1" height="5.1"/>
<rect x="1931.1" y="1551.1" class="st0" width="34.4" height="34.4"/>
<rect x="1892.5" y="1589.7" class="st2" width="34.4" height="34.4"/>
<rect x="1853.8" y="1589.7" class="st2" width="34.4" height="34.4"/>
<rect x="1931.1" y="1589.7" class="st2" width="34.4" height="34.4"/>
<rect x="1892.5" y="1628.3" class="st0" width="34.4" height="34.4"/>
<path class="st1" d="M1849.6,1546.9V1667h120.1v-120.1H1849.6z M1853.8,1551.1h34.4v34.4h-34.4V1551.1z M1888.3,1662.8h-34.4v-34.4
	h34.4V1662.8z M1853.8,1624.1v-34.4h34.4v34.4H1853.8z M1926.9,1662.8h-34.4v-34.4h34.4V1662.8z M1926.9,1624.1h-34.4v-34.4h34.4
	V1624.1z M1926.9,1585.5h-34.4v-34.4h34.4V1585.5z M1965.5,1662.8h-34.4v-34.4h34.4V1662.8z M1965.5,1624.1h-34.4v-34.4h34.4V1624.1
	z M1965.5,1585.5h-34.4v-34.4h34.4V1585.5z"/>
<rect x="1853.8" y="1628.3" class="st0" width="34.4" height="34.4"/>
<rect x="1931.1" y="1628.3" class="st0" width="34.4" height="34.4"/>
<rect x="359.2" y="1324.7" class="st2" width="34.4" height="34.4"/>
<rect x="320.5" y="1324.7" class="st0" width="34.4" height="34.4"/>
<path class="st1" d="M428.5,1304.9H402v13.5h26.5V1304.9z M406.2,1314.2v-5.1h18.1v5.1H406.2z"/>
<rect x="406.2" y="1309.1" class="st2" width="18.1" height="5.1"/>
<path class="st1" d="M452,1393.7v-26.5h-13.5v26.5H452z M442.7,1371.4h5.1v18.1h-5.1V1371.4z"/>
<rect x="442.7" y="1371.4" class="st2" width="5.1" height="18.1"/>
<path class="st1" d="M314.2,1355.1v-26.5h-13.5v26.5H314.2z M305,1332.8h5.1v18.1H305V1332.8z"/>
<rect x="305" y="1332.8" class="st2" width="5.1" height="18.1"/>
<path class="st1" d="M351,1442.7h-26.5v13.5H351V1442.7z M328.7,1452v-5.1h18.1v5.1H328.7z"/>
<rect x="328.7" y="1446.9" class="st2" width="18.1" height="5.1"/>
<path class="st1" d="M389.6,1442.7h-26.5v13.5h26.5V1442.7z M367.3,1452v-5.1h18.1v5.1H367.3z"/>
<rect x="367.3" y="1446.9" class="st2" width="18.1" height="5.1"/>
<rect x="397.8" y="1324.7" class="st0" width="34.4" height="34.4"/>
<rect x="359.2" y="1363.3" class="st2" width="34.4" height="34.4"/>
<rect x="320.5" y="1363.3" class="st2" width="34.4" height="34.4"/>
<rect x="397.8" y="1363.3" class="st0" width="34.4" height="34.4"/>
<rect x="359.2" y="1402" class="st0" width="34.4" height="34.4"/>
<path class="st1" d="M316.3,1320.5v120.1h120.1v-120.1H316.3z M320.5,1324.7h34.4v34.4h-34.4V1324.7z M355,1436.4h-34.5V1402h34.4
	L355,1436.4L355,1436.4z M320.5,1397.8v-34.4h34.4v34.4H320.5z M393.6,1436.4h-34.4V1402h34.4V1436.4z M393.6,1397.8h-34.4v-34.4
	h34.4V1397.8z M393.6,1359.1h-34.4v-34.4h34.4V1359.1z M432.2,1436.4h-34.4V1402h34.4V1436.4z M432.2,1397.8h-34.4v-34.4h34.4
	V1397.8z M432.2,1359.1h-34.4v-34.4h34.4V1359.1z"/>
<rect x="320.5" y="1402" class="st0" width="34.4" height="34.4"/>
<rect x="397.8" y="1402" class="st2" width="34.4" height="34.4"/>
<rect x="619.5" y="1324.7" class="st0" width="34.4" height="34.4"/>
<rect x="580.9" y="1324.7" class="st2" width="34.4" height="34.4"/>
<path class="st1" d="M650,1304.9h-26.5v13.5H650V1304.9z M627.7,1314.2v-5.1h18.1v5.1H627.7z"/>
<rect x="627.7" y="1309.1" class="st2" width="18.1" height="5.1"/>
<path class="st1" d="M712.3,1355.1v-26.5h-13.5v26.5H712.3z M703.1,1332.8h5.1v18.1h-5.1V1332.8z"/>
<rect x="703.1" y="1332.8" class="st2" width="5.1" height="18.1"/>
<path class="st1" d="M712.3,1393.7v-26.5h-13.5v26.5H712.3z M703.1,1371.4h5.1v18.1h-5.1V1371.4z"/>
<rect x="703.1" y="1371.4" class="st2" width="5.1" height="18.1"/>
<path class="st1" d="M574.6,1432.6v-26.5h-13.5v26.5H574.6z M565.3,1410.3h5.1v18.1h-5.1V1410.3z"/>
<rect x="565.3" y="1410.3" class="st2" width="5.1" height="18.1"/>
<path class="st1" d="M688.8,1442.7h-26.5v13.5h26.5V1442.7z M666.6,1452v-5.1h18.1v5.1H666.6z"/>
<rect x="666.6" y="1446.9" class="st2" width="18.1" height="5.1"/>
<rect x="658.1" y="1324.7" class="st0" width="34.4" height="34.4"/>
<rect x="619.5" y="1363.3" class="st2" width="34.4" height="34.4"/>
<rect x="580.9" y="1363.3" class="st2" width="34.4" height="34.4"/>
<rect x="658.1" y="1363.3" class="st0" width="34.4" height="34.4"/>
<rect x="619.5" y="1402" class="st2" width="34.4" height="34.4"/>
<path class="st1" d="M576.7,1320.5v120.1h120.1v-120.1H576.7z M580.9,1324.7h34.4v34.4h-34.4V1324.7z M615.3,1436.4h-34.4V1402h34.4
	V1436.4z M580.9,1397.8v-34.4h34.4v34.4H580.9z M653.9,1436.4h-34.4V1402h34.4V1436.4z M653.9,1397.8h-34.4v-34.4h34.4V1397.8z
	 M653.9,1359.1h-34.4v-34.4h34.4V1359.1z M692.6,1436.4h-34.4V1402h34.4V1436.4z M692.6,1397.8h-34.4v-34.4h34.4V1397.8z
	 M692.6,1359.1h-34.4v-34.4h34.4V1359.1z"/>
<rect x="580.9" y="1402" class="st0" width="34.4" height="34.4"/>
<rect x="658.1" y="1402" class="st0" width="34.4" height="34.4"/>
<rect x="878.4" y="1324.7" class="st0" width="34.4" height="34.4"/>
<rect x="839.8" y="1324.7" class="st0" width="34.4" height="34.4"/>
<path class="st1" d="M908.9,1304.9h-26.5v13.5h26.5V1304.9z M886.6,1314.2v-5.1h18.1v5.1H886.6z"/>
<rect x="886.6" y="1309.1" class="st2" width="18.1" height="5.1"/>
<path class="st1" d="M975.5,1432.6v-26.5H962v26.5H975.5z M966.2,1410.3h5.1v18.1h-5.1V1410.3z"/>
<rect x="966.2" y="1410.3" class="st2" width="5.1" height="18.1"/>
<path class="st1" d="M833.5,1355.1v-26.5H820v26.5H833.5z M824.2,1332.8h5.1v18.1h-5.1V1332.8z"/>
<rect x="824.2" y="1332.8" class="st2" width="5.1" height="18.1"/>
<path class="st1" d="M833.5,1393.7v-26.5H820v26.5H833.5z M824.2,1371.4h5.1v18.1h-5.1V1371.4z"/>
<rect x="824.2" y="1371.4" class="st2" width="5.1" height="18.1"/>
<path class="st1" d="M870.3,1442.7h-26.5v13.5h26.5V1442.7z M848,1452v-5.1h18.1v5.1H848z"/>
<rect x="848" y="1446.9" class="st2" width="18.1" height="5.1"/>
<rect x="917.1" y="1324.7" class="st2" width="34.4" height="34.4"/>
<rect x="878.5" y="1363.3" class="st2" width="34.4" height="34.4"/>
<rect x="839.8" y="1363.3" class="st0" width="34.4" height="34.4"/>
<rect x="917.1" y="1363.3" class="st2" width="34.4" height="34.4"/>
<rect x="878.4" y="1402" class="st2" width="34.4" height="34.4"/>
<path class="st1" d="M835.6,1320.5v120.1h120.1v-120.1H835.6z M839.8,1324.7h34.4v34.4h-34.4V1324.7z M874.2,1436.4h-34.4V1402h34.4
	V1436.4z M839.8,1397.8v-34.4h34.4v34.4H839.8z M912.9,1436.4h-34.4V1402h34.4V1436.4z M912.9,1397.8h-34.4v-34.4h34.4V1397.8z
	 M912.9,1359.1h-34.4v-34.4h34.4V1359.1z M951.5,1436.4h-34.4V1402h34.4V1436.4z M951.5,1397.8h-34.4v-34.4h34.4V1397.8z
	 M951.5,1359.1h-34.4v-34.4h34.4V1359.1z"/>
<rect x="839.8" y="1402" class="st0" width="34.4" height="34.4"/>
<rect x="917.1" y="1402" class="st0" width="34.4" height="34.4"/>
<rect x="1120" y="1324.7" class="st0" width="34.4" height="34.4"/>
<rect x="1081.4" y="1324.7" class="st2" width="34.4" height="34.4"/>
<path class="st1" d="M1150.5,1304.9H1124v13.5h26.5V1304.9z M1128.2,1314.2v-5.1h18.1v5.1H1128.2z"/>
<rect x="1128.2" y="1309.1" class="st2" width="18.1" height="5.1"/>
<path class="st1" d="M1189.3,1304.9h-26.5v13.5h26.5V1304.9z M1167,1314.2v-5.1h18.1v5.1H1167z"/>
<rect x="1167" y="1309.1" class="st2" width="18.1" height="5.1"/>
<path class="st1" d="M1212.8,1393.7v-26.5h-13.5v26.5H1212.8z M1203.6,1371.4h5.1v18.1h-5.1V1371.4z"/>
<rect x="1203.6" y="1371.4" class="st2" width="5.1" height="18.1"/>
<path class="st1" d="M1212.8,1432.6v-26.5h-13.5v26.5H1212.8z M1203.6,1410.3h5.1v18.1h-5.1V1410.3z"/>
<rect x="1203.6" y="1410.3" class="st2" width="5.1" height="18.1"/>
<path class="st1" d="M1111.8,1442.7h-26.5v13.5h26.5V1442.7z M1089.5,1452v-5.1h18.1v5.1H1089.5z"/>
<rect x="1089.5" y="1446.9" class="st2" width="18.1" height="5.1"/>
<rect x="1158.6" y="1324.7" class="st0" width="34.4" height="34.4"/>
<rect x="1120" y="1363.3" class="st2" width="34.4" height="34.4"/>
<rect x="1081.4" y="1363.3" class="st2" width="34.4" height="34.4"/>
<rect x="1158.6" y="1363.3" class="st0" width="34.4" height="34.4"/>
<rect x="1120" y="1402" class="st2" width="34.4" height="34.4"/>
<path class="st1" d="M1077.2,1320.5v120.1h120.1v-120.1H1077.2z M1081.4,1324.7h34.4v34.4h-34.4V1324.7z M1115.8,1436.4h-34.4V1402
	h34.4V1436.4z M1081.4,1397.8v-34.4h34.4v34.4H1081.4z M1154.4,1436.4H1120V1402h34.4V1436.4z M1154.4,1397.8H1120v-34.4h34.4
	V1397.8z M1154.4,1359.1H1120v-34.4h34.4V1359.1z M1193.1,1436.4h-34.4V1402h34.4V1436.4z M1193.1,1397.8h-34.4v-34.4h34.4V1397.8z
	 M1193.1,1359.1h-34.4v-34.4h34.4V1359.1z"/>
<rect x="1081.4" y="1402" class="st0" width="34.4" height="34.4"/>
<rect x="1158.6" y="1402" class="st0" width="34.4" height="34.4"/>
<rect x="1376" y="1324.7" class="st2" width="34.4" height="34.4"/>
<rect x="1337.3" y="1324.7" class="st0" width="34.4" height="34.4"/>
<path class="st1" d="M1367.8,1304.9h-26.5v13.5h26.5V1304.9z M1345.5,1314.2v-5.1h18.1v5.1H1345.5z"/>
<rect x="1345.5" y="1309.1" class="st2" width="18.1" height="5.1"/>
<path class="st1" d="M1468.8,1355.1v-26.5h-13.5v26.5H1468.8z M1459.5,1332.8h5.1v18.1h-5.1V1332.8z"/>
<rect x="1459.5" y="1332.8" class="st2" width="5.1" height="18.1"/>
<path class="st1" d="M1468.8,1393.7v-26.5h-13.5v26.5H1468.8z M1459.5,1371.4h5.1v18.1h-5.1V1371.4z"/>
<rect x="1459.5" y="1371.4" class="st2" width="5.1" height="18.1"/>
<path class="st1" d="M1406.4,1442.7h-26.5v13.5h26.5V1442.7z M1384.1,1452v-5.1h18.1v5.1H1384.1z"/>
<rect x="1384.1" y="1446.9" class="st2" width="18.1" height="5.1"/>
<path class="st1" d="M1445.3,1442.7h-26.5v13.5h26.5V1442.7z M1423,1452v-5.1h18.1v5.1H1423z"/>
<rect x="1423" y="1446.9" class="st2" width="18.1" height="5.1"/>
<rect x="1414.6" y="1324.7" class="st0" width="34.4" height="34.4"/>
<rect x="1376" y="1363.3" class="st2" width="34.4" height="34.4"/>
<rect x="1337.3" y="1363.3" class="st2" width="34.4" height="34.4"/>
<rect x="1414.6" y="1363.3" class="st0" width="34.4" height="34.4"/>
<rect x="1376" y="1402" class="st0" width="34.4" height="34.4"/>
<path class="st1" d="M1333.1,1320.5v120.1h120.1v-120.1H1333.1z M1337.3,1324.7h34.4v34.4h-34.4V1324.7z M1371.8,1436.4h-34.4V1402
	h34.4V1436.4z M1337.3,1397.8v-34.4h34.4v34.4H1337.3z M1410.4,1436.4H1376V1402h34.4V1436.4z M1410.4,1397.8H1376v-34.4h34.4
	V1397.8z M1410.4,1359.1H1376v-34.4h34.4V1359.1z M1449,1436.4h-34.4V1402h34.4V1436.4z M1449,1397.8h-34.4v-34.4h34.4V1397.8z
	 M1449,1359.1h-34.4v-34.4h34.4V1359.1z"/>
<rect x="1337.3" y="1402" class="st2" width="34.4" height="34.4"/>
<rect x="1414.6" y="1402" class="st0" width="34.4" height="34.4"/>
<rect x="1635.8" y="1324.7" class="st2" width="34.4" height="34.4"/>
<rect x="1597.2" y="1324.7" class="st0" width="34.4" height="34.4"/>
<path class="st1" d="M1627.7,1304.9h-26.5v13.5h26.5V1304.9z M1605.4,1314.2v-5.1h18.1v5.1H1605.4z"/>
<rect x="1605.4" y="1309.1" class="st2" width="18.1" height="5.1"/>
<path class="st1" d="M1728.7,1355.1v-26.5h-13.5v26.5H1728.7z M1719.4,1332.8h5.1v18.1h-5.1V1332.8z"/>
<rect x="1719.4" y="1332.8" class="st2" width="5.1" height="18.1"/>
<path class="st1" d="M1728.7,1432.6v-26.5h-13.5v26.5H1728.7z M1719.4,1410.3h5.1v18.1h-5.1V1410.3z"/>
<rect x="1719.4" y="1410.3" class="st2" width="5.1" height="18.1"/>
<path class="st1" d="M1590.9,1393.7v-26.5h-13.5v26.5H1590.9z M1581.6,1371.4h5.1v18.1h-5.1V1371.4z"/>
<rect x="1581.6" y="1371.4" class="st2" width="5.1" height="18.1"/>
<path class="st1" d="M1627.7,1442.7h-26.5v13.5h26.5V1442.7z M1605.4,1452v-5.1h18.1v5.1H1605.4z"/>
<rect x="1605.4" y="1446.9" class="st2" width="18.1" height="5.1"/>
<path class="st1" d="M1666.3,1442.7h-26.5v13.5h26.5V1442.7z M1644,1452v-5.1h18.1v5.1H1644z"/>
<rect x="1644" y="1446.9" class="st2" width="18.1" height="5.1"/>
<rect x="1674.5" y="1324.7" class="st0" width="34.4" height="34.4"/>
<rect x="1635.8" y="1363.3" class="st2" width="34.4" height="34.4"/>
<rect x="1597.2" y="1363.3" class="st0" width="34.4" height="34.4"/>
<rect x="1674.5" y="1363.3" class="st2" width="34.4" height="34.4"/>
<rect x="1635.8" y="1402" class="st0" width="34.4" height="34.4"/>
<path class="st1" d="M1593,1320.5v120.1h120.1v-120.1H1593z M1597.2,1324.7h34.4v34.4h-34.4V1324.7z M1631.6,1436.4h-34.4V1402h34.4
	V1436.4z M1597.2,1397.8v-34.4h34.4v34.4H1597.2z M1670.3,1436.4h-34.4V1402h34.4V1436.4z M1670.3,1397.8h-34.4v-34.4h34.4V1397.8z
	 M1670.3,1359.1h-34.4v-34.4h34.4V1359.1z M1708.9,1436.4h-34.4V1402h34.4V1436.4z M1708.9,1397.8h-34.4v-34.4h34.4V1397.8z
	 M1708.9,1359.1h-34.4v-34.4h34.4V1359.1z"/>
<rect x="1597.2" y="1402" class="st0" width="34.4" height="34.4"/>
<rect x="1674.5" y="1402" class="st0" width="34.4" height="34.4"/>
<rect x="1892.5" y="1324.7" class="st2" width="34.4" height="34.4"/>
<rect x="1853.8" y="1324.7" class="st0" width="34.4" height="34.4"/>
<path class="st1" d="M1961.8,1304.9h-26.5v13.5h26.5V1304.9z M1939.5,1314.2v-5.1h18.1v5.1H1939.5z"/>
<rect x="1939.5" y="1309.1" class="st2" width="18.1" height="5.1"/>
<path class="st1" d="M1985.3,1393.7v-26.5h-13.5v26.5H1985.3z M1976,1371.4h5.1v18.1h-5.1V1371.4z"/>
<rect x="1976" y="1371.4" class="st2" width="5.1" height="18.1"/>
<path class="st1" d="M1847.5,1355.1v-26.5H1834v26.5H1847.5z M1838.3,1332.8h5.1v18.1h-5.1V1332.8z"/>
<rect x="1838.3" y="1332.8" class="st2" width="5.1" height="18.1"/>
<path class="st1" d="M1847.5,1432.6v-26.5H1834v26.5H1847.5z M1838.3,1410.3h5.1v18.1h-5.1V1410.3z"/>
<rect x="1838.3" y="1410.3" class="st2" width="5.1" height="18.1"/>
<path class="st1" d="M1922.9,1442.7h-26.5v13.5h26.5V1442.7z M1900.6,1452v-5.1h18.1v5.1H1900.6z"/>
<rect x="1900.6" y="1446.9" class="st2" width="18.1" height="5.1"/>
<path class="st1" d="M1961.8,1442.7h-26.5v13.5h26.5V1442.7z M1939.5,1452v-5.1h18.1v5.1H1939.5z"/>
<rect x="1939.5" y="1446.9" class="st2" width="18.1" height="5.1"/>
<rect x="1931.1" y="1324.7" class="st0" width="34.4" height="34.4"/>
<rect x="1892.5" y="1363.3" class="st2" width="34.4" height="34.4"/>
<rect x="1853.8" y="1363.3" class="st2" width="34.4" height="34.4"/>
<rect x="1931.1" y="1363.3" class="st0" width="34.4" height="34.4"/>
<rect x="1892.5" y="1402" class="st0" width="34.4" height="34.4"/>
<path class="st1" d="M1849.6,1320.5v120.1h120.1v-120.1H1849.6z M1853.8,1324.7h34.4v34.4h-34.4V1324.7z M1888.3,1436.4h-34.4V1402
	h34.4V1436.4z M1853.8,1397.8v-34.4h34.4v34.4H1853.8z M1926.9,1436.4h-34.4V1402h34.4V1436.4z M1926.9,1397.8h-34.4v-34.4h34.4
	V1397.8z M1926.9,1359.1h-34.4v-34.4h34.4V1359.1z M1965.5,1436.4h-34.4V1402h34.4V1436.4z M1965.5,1397.8h-34.4v-34.4h34.4V1397.8z
	 M1965.5,1359.1h-34.4v-34.4h34.4V1359.1z"/>
<rect x="1853.8" y="1402" class="st0" width="34.4" height="34.4"/>
<rect x="1931.1" y="1402" class="st0" width="34.4" height="34.4"/>
<rect x="359.2" y="1001" class="st0" width="34.4" height="34.4"/>
<rect x="320.5" y="1001" class="st2" width="34.4" height="34.4"/>
<path class="st1" d="M389.6,981.2h-26.5v13.5h26.5V981.2z M367.3,990.5v-5.1h18.1v5.1H367.3z"/>
<rect x="367.3" y="985.4" class="st2" width="18.1" height="5.1"/>
<path class="st1" d="M452,1031.3v-26.5h-13.5v26.5H452z M442.7,1009h5.1v18.1h-5.1V1009z"/>
<rect x="442.7" y="1009" class="st2" width="5.1" height="18.1"/>
<path class="st1" d="M314.2,1108.8v-26.5h-13.5v26.5H314.2z M305,1086.6h5.1v18.1H305V1086.6z"/>
<rect x="305" y="1086.6" class="st2" width="5.1" height="18.1"/>
<path class="st1" d="M389.6,1119h-26.5v13.5h26.5V1119z M367.3,1128.3v-5.1h18.1v5.1H367.3z"/>
<rect x="367.3" y="1123.2" class="st2" width="18.1" height="5.1"/>
<path class="st1" d="M428.5,1119H402v13.5h26.5V1119z M406.2,1128.3v-5.1h18.1v5.1H406.2z"/>
<rect x="406.2" y="1123.2" class="st2" width="18.1" height="5.1"/>
<rect x="397.8" y="1001" class="st0" width="34.4" height="34.4"/>
<rect x="359.2" y="1039.6" class="st2" width="34.4" height="34.4"/>
<rect x="320.5" y="1039.6" class="st2" width="34.4" height="34.4"/>
<rect x="397.8" y="1039.6" class="st2" width="34.4" height="34.4"/>
<rect x="359.2" y="1078.2" class="st0" width="34.4" height="34.4"/>
<path class="st1" d="M316.3,996.8v120.1h120.1V996.8H316.3z M320.5,1001h34.4v34.4h-34.4V1001z M355,1112.7h-34.5v-34.4h34.4
	L355,1112.7L355,1112.7z M320.5,1074.1v-34.4h34.4v34.4H320.5z M393.6,1112.7h-34.4v-34.4h34.4V1112.7z M393.6,1074.1h-34.4v-34.4
	h34.4V1074.1z M393.6,1035.4h-34.4V1001h34.4V1035.4z M432.2,1112.7h-34.4v-34.4h34.4V1112.7z M432.2,1074.1h-34.4v-34.4h34.4
	V1074.1z M432.2,1035.4h-34.4V1001h34.4V1035.4z"/>
<rect x="320.5" y="1078.2" class="st0" width="34.4" height="34.4"/>
<rect x="397.8" y="1078.2" class="st0" width="34.4" height="34.4"/>
<rect x="619.5" y="1001" class="st0" width="34.4" height="34.4"/>
<rect x="580.9" y="1001" class="st0" width="34.4" height="34.4"/>
<path class="st1" d="M650,981.2h-26.5v13.5H650V981.2z M627.7,990.5v-5.1h18.1v5.1H627.7z"/>
<rect x="627.7" y="985.4" class="st2" width="18.1" height="5.1"/>
<path class="st1" d="M712.3,1108.8v-26.5h-13.5v26.5H712.3z M703.1,1086.6h5.1v18.1h-5.1V1086.6z"/>
<rect x="703.1" y="1086.6" class="st2" width="5.1" height="18.1"/>
<path class="st1" d="M574.6,1031.3v-26.5h-13.5v26.5H574.6z M565.3,1009h5.1v18.1h-5.1V1009z"/>
<rect x="565.3" y="1009" class="st2" width="5.1" height="18.1"/>
<path class="st1" d="M611.3,1119h-26.5v13.5h26.5V1119z M589.1,1128.3v-5.1h18.1v5.1H589.1z"/>
<rect x="589.1" y="1123.2" class="st2" width="18.1" height="5.1"/>
<path class="st1" d="M650,1119h-26.5v13.5H650V1119z M627.7,1128.3v-5.1h18.1v5.1H627.7z"/>
<rect x="627.7" y="1123.2" class="st2" width="18.1" height="5.1"/>
<rect x="658.1" y="1001" class="st2" width="34.4" height="34.4"/>
<rect x="619.5" y="1039.6" class="st2" width="34.4" height="34.4"/>
<rect x="580.9" y="1039.6" class="st2" width="34.4" height="34.4"/>
<rect x="658.1" y="1039.6" class="st2" width="34.4" height="34.4"/>
<rect x="619.5" y="1078.2" class="st0" width="34.4" height="34.4"/>
<path class="st1" d="M576.7,996.8v120.1h120.1V996.8H576.7z M580.9,1001h34.4v34.4h-34.4V1001z M615.3,1112.7h-34.4v-34.4h34.4
	V1112.7z M580.9,1074.1v-34.4h34.4v34.4H580.9z M653.9,1112.7h-34.4v-34.4h34.4V1112.7z M653.9,1074.1h-34.4v-34.4h34.4V1074.1z
	 M653.9,1035.4h-34.4V1001h34.4V1035.4z M692.6,1112.7h-34.4v-34.4h34.4V1112.7z M692.6,1074.1h-34.4v-34.4h34.4V1074.1z
	 M692.6,1035.4h-34.4V1001h34.4V1035.4z"/>
<rect x="580.9" y="1078.2" class="st0" width="34.4" height="34.4"/>
<rect x="658.1" y="1078.2" class="st0" width="34.4" height="34.4"/>
<rect x="888.3" y="1001" class="st0" width="34.4" height="34.4"/>
<rect x="849.7" y="1001" class="st0" width="34.4" height="34.4"/>
<path class="st1" d="M918.8,981.2h-26.5v13.5h26.5V981.2z M896.5,990.5v-5.1h18.1v5.1H896.5z"/>
<rect x="896.5" y="985.4" class="st2" width="18.1" height="5.1"/>
<path class="st1" d="M957.7,981.2h-26.5v13.5h26.5V981.2z M935.4,990.5v-5.1h18.1v5.1H935.4z"/>
<rect x="935.4" y="985.4" class="st2" width="18.1" height="5.1"/>
<path class="st1" d="M841.3,1031.3v-26.5h-13.5v26.5H841.3z M832,1009h5.1v18.1H832V1009z"/>
<rect x="832" y="1009" class="st2" width="5.1" height="18.1"/>
<path class="st1" d="M880.1,1119h-26.5v13.5h26.5V1119z M857.9,1128.3v-5.1H876v5.1H857.9z"/>
<rect x="857.9" y="1123.2" class="st2" width="18.1" height="5.1"/>
<path class="st1" d="M918.8,1119h-26.5v13.5h26.5V1119z M896.5,1128.3v-5.1h18.1v5.1H896.5z"/>
<rect x="896.5" y="1123.2" class="st2" width="18.1" height="5.1"/>
<rect x="927" y="1001" class="st0" width="34.4" height="34.4"/>
<rect x="888.3" y="1039.6" class="st2" width="34.4" height="34.4"/>
<rect x="849.7" y="1039.6" class="st2" width="34.4" height="34.4"/>
<rect x="927" y="1039.6" class="st2" width="34.4" height="34.4"/>
<rect x="888.3" y="1078.2" class="st0" width="34.4" height="34.4"/>
<path class="st1" d="M845.5,996.8v120.1h120.1V996.8H845.5z M849.7,1001h34.4v34.4h-34.4V1001z M884.1,1112.7h-34.4v-34.4h34.4
	V1112.7z M849.7,1074.1v-34.4h34.4v34.4H849.7z M922.8,1112.7h-34.4v-34.4h34.4V1112.7z M922.8,1074.1h-34.4v-34.4h34.4V1074.1z
	 M922.8,1035.4h-34.4V1001h34.4V1035.4z M961.4,1112.7H927v-34.4h34.4V1112.7z M961.4,1074.1H927v-34.4h34.4V1074.1z M961.4,1035.4
	H927V1001h34.4V1035.4z"/>
<rect x="849.7" y="1078.2" class="st0" width="34.4" height="34.4"/>
<rect x="927" y="1078.2" class="st2" width="34.4" height="34.4"/>
<rect x="1120" y="1001" class="st0" width="34.4" height="34.4"/>
<rect x="1081.4" y="1001" class="st0" width="34.4" height="34.4"/>
<path class="st1" d="M1111.8,981.2h-26.5v13.5h26.5V981.2z M1089.5,990.5v-5.1h18.1v5.1H1089.5z"/>
<rect x="1089.5" y="985.4" class="st2" width="18.1" height="5.1"/>
<path class="st1" d="M1150.5,981.2H1124v13.5h26.5V981.2z M1128.2,990.5v-5.1h18.1v5.1H1128.2z"/>
<rect x="1128.2" y="985.4" class="st2" width="18.1" height="5.1"/>
<path class="st1" d="M1212.8,1031.3v-26.5h-13.5v26.5H1212.8z M1203.6,1009h5.1v18.1h-5.1V1009z"/>
<rect x="1203.6" y="1009" class="st2" width="5.1" height="18.1"/>
<path class="st1" d="M1150.5,1119H1124v13.5h26.5V1119z M1128.2,1128.3v-5.1h18.1v5.1H1128.2z"/>
<rect x="1128.2" y="1123.2" class="st2" width="18.1" height="5.1"/>
<path class="st1" d="M1189.3,1119h-26.5v13.5h26.5V1119z M1167,1128.3v-5.1h18.1v5.1H1167z"/>
<rect x="1167" y="1123.2" class="st2" width="18.1" height="5.1"/>
<rect x="1158.6" y="1001" class="st0" width="34.4" height="34.4"/>
<rect x="1120" y="1039.6" class="st2" width="34.4" height="34.4"/>
<rect x="1081.4" y="1039.6" class="st2" width="34.4" height="34.4"/>
<rect x="1158.6" y="1039.6" class="st2" width="34.4" height="34.4"/>
<rect x="1120" y="1078.2" class="st0" width="34.4" height="34.4"/>
<path class="st1" d="M1077.2,996.8v120.1h120.1V996.8H1077.2z M1081.4,1001h34.4v34.4h-34.4V1001z M1115.8,1112.7h-34.4v-34.4h34.4
	V1112.7z M1081.4,1074.1v-34.4h34.4v34.4H1081.4z M1154.4,1112.7H1120v-34.4h34.4V1112.7z M1154.4,1074.1H1120v-34.4h34.4V1074.1z
	 M1154.4,1035.4H1120V1001h34.4V1035.4z M1193.1,1112.7h-34.4v-34.4h34.4V1112.7z M1193.1,1074.1h-34.4v-34.4h34.4V1074.1z
	 M1193.1,1035.4h-34.4V1001h34.4V1035.4z"/>
<rect x="1081.4" y="1078.2" class="st2" width="34.4" height="34.4"/>
<rect x="1158.6" y="1078.2" class="st0" width="34.4" height="34.4"/>
<rect x="1385.8" y="991.1" class="st2" width="34.4" height="34.4"/>
<rect x="1347.2" y="991.1" class="st0" width="34.4" height="34.4"/>
<path class="st1" d="M1478.7,1099v-26.5h-13.5v26.5H1478.7z M1469.4,1076.7h5.1v18.1h-5.1V1076.7z"/>
<rect x="1469.4" y="1076.7" class="st2" width="5.1" height="18.1"/>
<path class="st1" d="M1340.9,1021.5V995h-13.5v26.5H1340.9z M1331.6,999.2h5.1v18.1h-5.1V999.2z"/>
<rect x="1331.6" y="999.2" class="st2" width="5.1" height="18.1"/>
<path class="st1" d="M1340.9,1060.1v-26.5h-13.5v26.5H1340.9z M1331.6,1037.8h5.1v18.1h-5.1V1037.8z"/>
<rect x="1331.6" y="1037.8" class="st2" width="5.1" height="18.1"/>
<path class="st1" d="M1377.7,1109.1h-26.5v13.5h26.5V1109.1z M1355.4,1118.4v-5.1h18.1v5.1H1355.4z"/>
<rect x="1355.4" y="1113.3" class="st2" width="18.1" height="5.1"/>
<path class="st1" d="M1416.3,1109.1h-26.5v13.5h26.5V1109.1z M1394,1118.4v-5.1h18.1v5.1H1394z"/>
<rect x="1394" y="1113.3" class="st2" width="18.1" height="5.1"/>
<rect x="1424.5" y="991.1" class="st2" width="34.4" height="34.4"/>
<rect x="1385.8" y="1029.7" class="st2" width="34.4" height="34.4"/>
<rect x="1347.2" y="1029.7" class="st0" width="34.4" height="34.4"/>
<rect x="1424.5" y="1029.7" class="st2" width="34.4" height="34.4"/>
<rect x="1385.8" y="1068.4" class="st0" width="34.4" height="34.4"/>
<path class="st1" d="M1343,986.9V1107h120.1V986.9H1343z M1347.2,991.1h34.4v34.4h-34.4V991.1z M1381.6,1102.8h-34.4v-34.4h34.4
	V1102.8z M1347.2,1064.2v-34.4h34.4v34.4H1347.2z M1420.3,1102.8h-34.4v-34.4h34.4V1102.8z M1420.3,1064.2h-34.4v-34.4h34.4V1064.2z
	 M1420.3,1025.5h-34.4v-34.4h34.4V1025.5z M1458.9,1102.8h-34.4v-34.4h34.4V1102.8z M1458.9,1064.2h-34.4v-34.4h34.4V1064.2z
	 M1458.9,1025.5h-34.4v-34.4h34.4V1025.5z"/>
<rect x="1347.2" y="1068.4" class="st0" width="34.4" height="34.4"/>
<rect x="1424.5" y="1068.4" class="st0" width="34.4" height="34.4"/>
<rect x="1635.8" y="1010.9" class="st0" width="34.4" height="34.4"/>
<rect x="1597.2" y="1010.9" class="st0" width="34.4" height="34.4"/>
<path class="st1" d="M1627.7,991.1h-26.5v13.5h26.5V991.1z M1605.4,1000.4v-5.1h18.1v5.1H1605.4z"/>
<rect x="1605.4" y="995.3" class="st2" width="18.1" height="5.1"/>
<path class="st1" d="M1666.3,991.1h-26.5v13.5h26.5V991.1z M1644,1000.4v-5.1h18.1v5.1H1644z"/>
<rect x="1644" y="995.3" class="st2" width="18.1" height="5.1"/>
<path class="st1" d="M1728.7,1041.2v-26.5h-13.5v26.5H1728.7z M1719.4,1018.9h5.1v18.1h-5.1V1018.9z"/>
<rect x="1719.4" y="1018.9" class="st2" width="5.1" height="18.1"/>
<path class="st1" d="M1590.9,1079.9v-26.5h-13.5v26.5H1590.9z M1581.6,1057.6h5.1v18.1h-5.1V1057.6z"/>
<rect x="1581.6" y="1057.6" class="st2" width="5.1" height="18.1"/>
<path class="st1" d="M1590.9,1118.7v-26.5h-13.5v26.5H1590.9z M1581.6,1096.4h5.1v18.1h-5.1V1096.4z"/>
<rect x="1581.6" y="1096.4" class="st2" width="5.1" height="18.1"/>
<rect x="1674.5" y="1010.9" class="st0" width="34.4" height="34.4"/>
<rect x="1635.8" y="1049.5" class="st2" width="34.4" height="34.4"/>
<rect x="1597.2" y="1049.5" class="st0" width="34.4" height="34.4"/>
<rect x="1674.5" y="1049.5" class="st2" width="34.4" height="34.4"/>
<rect x="1635.8" y="1088.1" class="st2" width="34.4" height="34.4"/>
<path class="st1" d="M1593,1006.7v120.1h120.1v-120.1H1593z M1597.2,1010.9h34.4v34.4h-34.4V1010.9z M1631.6,1122.6h-34.4v-34.4
	h34.4V1122.6z M1597.2,1083.9v-34.4h34.4v34.4H1597.2z M1670.3,1122.6h-34.4v-34.4h34.4V1122.6z M1670.3,1083.9h-34.4v-34.4h34.4
	V1083.9z M1670.3,1045.3h-34.4v-34.4h34.4V1045.3z M1708.9,1122.6h-34.4v-34.4h34.4V1122.6z M1708.9,1083.9h-34.4v-34.4h34.4V1083.9
	z M1708.9,1045.3h-34.4v-34.4h34.4V1045.3z"/>
<rect x="1597.2" y="1088.1" class="st0" width="34.4" height="34.4"/>
<rect x="1674.5" y="1088.1" class="st2" width="34.4" height="34.4"/>
<rect x="1892.5" y="1001" class="st0" width="34.4" height="34.4"/>
<rect x="1853.8" y="1001" class="st0" width="34.4" height="34.4"/>
<path class="st1" d="M1884.3,981.2h-26.5v13.5h26.5V981.2z M1862,990.5v-5.1h18.1v5.1H1862z"/>
<rect x="1862" y="985.4" class="st2" width="18.1" height="5.1"/>
<path class="st1" d="M1922.9,981.2h-26.5v13.5h26.5V981.2z M1900.6,990.5v-5.1h18.1v5.1H1900.6z"/>
<rect x="1900.6" y="985.4" class="st2" width="18.1" height="5.1"/>
<path class="st1" d="M1985.3,1070v-26.5h-13.5v26.5H1985.3z M1976,1047.7h5.1v18.1h-5.1V1047.7z"/>
<rect x="1976" y="1047.7" class="st2" width="5.1" height="18.1"/>
<path class="st1" d="M1847.5,1108.8v-26.5H1834v26.5H1847.5z M1838.3,1086.6h5.1v18.1h-5.1V1086.6z"/>
<rect x="1838.3" y="1086.6" class="st2" width="5.1" height="18.1"/>
<path class="st1" d="M1961.8,1119h-26.5v13.5h26.5V1119z M1939.5,1128.3v-5.1h18.1v5.1H1939.5z"/>
<rect x="1939.5" y="1123.2" class="st2" width="18.1" height="5.1"/>
<rect x="1931.1" y="1001" class="st2" width="34.4" height="34.4"/>
<rect x="1892.5" y="1039.6" class="st2" width="34.4" height="34.4"/>
<rect x="1853.8" y="1039.6" class="st2" width="34.4" height="34.4"/>
<rect x="1931.1" y="1039.6" class="st0" width="34.4" height="34.4"/>
<rect x="1892.5" y="1078.2" class="st2" width="34.4" height="34.4"/>
<path class="st1" d="M1849.6,996.8v120.1h120.1V996.8H1849.6z M1853.8,1001h34.4v34.4h-34.4V1001z M1888.3,1112.7h-34.4v-34.4h34.4
	V1112.7z M1853.8,1074.1v-34.4h34.4v34.4H1853.8z M1926.9,1112.7h-34.4v-34.4h34.4V1112.7z M1926.9,1074.1h-34.4v-34.4h34.4V1074.1z
	 M1926.9,1035.4h-34.4V1001h34.4V1035.4z M1965.5,1112.7h-34.4v-34.4h34.4V1112.7z M1965.5,1074.1h-34.4v-34.4h34.4V1074.1z
	 M1965.5,1035.4h-34.4V1001h34.4V1035.4z"/>
<rect x="1853.8" y="1078.2" class="st0" width="34.4" height="34.4"/>
<rect x="1931.1" y="1078.2" class="st0" width="34.4" height="34.4"/>
<rect x="349.3" y="642.3" class="st2" width="34.4" height="34.4"/>
<rect x="310.6" y="642.3" class="st2" width="34.4" height="34.4"/>
<path class="st1" d="M442.1,672.7v-26.5h-13.5v26.5H442.1z M432.9,650.4h5.1v18.1h-5.1V650.4z"/>
<rect x="432.9" y="650.4" class="st2" width="5.1" height="18.1"/>
<path class="st1" d="M442.1,711.3v-26.5h-13.5v26.5H442.1z M432.9,689h5.1v18.1h-5.1V689z"/>
<rect x="432.9" y="689" class="st2" width="5.1" height="18.1"/>
<path class="st1" d="M341.1,760.4h-26.5v13.5h26.5V760.4z M318.8,769.6v-5.1h18.1v5.1H318.8z"/>
<rect x="318.8" y="764.6" class="st2" width="18.1" height="5.1"/>
<path class="st1" d="M379.7,760.4h-26.5v13.5h26.5V760.4z M357.5,769.6v-5.1h18.1v5.1H357.5z"/>
<rect x="357.5" y="764.6" class="st2" width="18.1" height="5.1"/>
<rect x="387.9" y="642.3" class="st0" width="34.4" height="34.4"/>
<rect x="349.3" y="681" class="st2" width="34.4" height="34.4"/>
<rect x="310.6" y="681" class="st2" width="34.4" height="34.4"/>
<rect x="387.9" y="681" class="st0" width="34.4" height="34.4"/>
<rect x="349.3" y="719.6" class="st0" width="34.4" height="34.4"/>
<path class="st1" d="M306.4,638.1v120.1h120.1V638.1H306.4z M310.6,642.3H345v34.4h-34.4V642.3z M345.1,754.1h-34.4v-34.4h34.4
	V754.1z M310.6,715.4V681H345v34.4H310.6z M383.7,754.1h-34.4v-34.4h34.4V754.1z M383.7,715.4h-34.4V681h34.4V715.4z M383.7,676.8
	h-34.4v-34.4h34.4V676.8z M422.4,754.1H388v-34.4h34.4V754.1z M422.4,715.4H388V681h34.4V715.4z M422.4,676.8H388v-34.4h34.4V676.8z
	"/>
<rect x="310.6" y="719.6" class="st0" width="34.4" height="34.4"/>
<rect x="387.9" y="719.6" class="st2" width="34.4" height="34.4"/>
<rect x="629.4" y="652.2" class="st2" width="34.4" height="34.4"/>
<rect x="590.7" y="652.2" class="st0" width="34.4" height="34.4"/>
<path class="st1" d="M621.2,632.5h-26.5v13.4h26.5V632.5z M598.9,641.7v-5.1H617v5.1H598.9z"/>
<rect x="598.9" y="636.7" class="st2" width="18.1" height="5.1"/>
<path class="st1" d="M584.5,721.2v-26.5H571v26.5H584.5z M575.2,698.9h5.1V717h-5.1V698.9z"/>
<rect x="575.2" y="698.9" class="st2" width="5.1" height="18.1"/>
<path class="st1" d="M621.2,770.2h-26.5v13.5h26.5V770.2z M598.9,779.5v-5.1H617v5.1H598.9z"/>
<rect x="598.9" y="774.4" class="st2" width="18.1" height="5.1"/>
<path class="st1" d="M659.9,770.2h-26.5v13.5h26.5V770.2z M637.6,779.5v-5.1h18.1v5.1H637.6z"/>
<rect x="637.6" y="774.4" class="st2" width="18.1" height="5.1"/>
<rect x="668" y="652.2" class="st2" width="34.4" height="34.4"/>
<rect x="629.4" y="690.8" class="st2" width="34.4" height="34.4"/>
<rect x="590.8" y="690.8" class="st0" width="34.4" height="34.4"/>
<rect x="668" y="690.8" class="st2" width="34.4" height="34.4"/>
<rect x="629.4" y="729.5" class="st0" width="34.4" height="34.4"/>
<path class="st1" d="M586.6,648v120.1h120.1V648H586.6z M590.8,652.2h34.4v34.4h-34.4V652.2z M625.2,763.9h-34.4v-34.4h34.4V763.9z
	 M590.8,725.3v-34.4h34.4v34.4H590.8z M663.8,763.9h-34.4v-34.4h34.4V763.9z M663.8,725.3h-34.4v-34.4h34.4V725.3z M663.8,686.6
	h-34.4v-34.4h34.4V686.6z M702.5,763.9h-34.4v-34.4h34.4V763.9z M702.5,725.3h-34.4v-34.4h34.4V725.3z M702.5,686.6h-34.4v-34.4
	h34.4V686.6z"/>
<rect x="590.7" y="729.5" class="st0" width="34.4" height="34.4"/>
<rect x="668" y="729.5" class="st2" width="34.4" height="34.4"/>
<rect x="888.3" y="652.2" class="st0" width="34.4" height="34.4"/>
<rect x="849.7" y="652.2" class="st0" width="34.4" height="34.4"/>
<path class="st1" d="M880.1,632.5h-26.5v13.4h26.5V632.5z M857.9,641.7v-5.1H876v5.1H857.9z"/>
<rect x="857.9" y="636.7" class="st2" width="18.1" height="5.1"/>
<path class="st1" d="M918.8,632.5h-26.5v13.4h26.5V632.5z M896.5,641.7v-5.1h18.1v5.1H896.5z"/>
<rect x="896.5" y="636.7" class="st2" width="18.1" height="5.1"/>
<path class="st1" d="M843.4,721.2v-26.5h-13.5v26.5H843.4z M834.1,698.9h5.1V717h-5.1V698.9z"/>
<rect x="834.1" y="698.9" class="st2" width="5.1" height="18.1"/>
<path class="st1" d="M880.1,770.2h-26.5v13.5h26.5V770.2z M857.9,779.5v-5.1H876v5.1H857.9z"/>
<rect x="857.9" y="774.4" class="st2" width="18.1" height="5.1"/>
<rect x="927" y="652.2" class="st2" width="34.4" height="34.4"/>
<rect x="888.3" y="690.8" class="st2" width="34.4" height="34.4"/>
<rect x="849.7" y="690.8" class="st0" width="34.4" height="34.4"/>
<rect x="927" y="690.8" class="st2" width="34.4" height="34.4"/>
<rect x="888.3" y="729.5" class="st2" width="34.4" height="34.4"/>
<path class="st1" d="M845.5,648v120.1h120.1V648H845.5z M849.7,652.2h34.4v34.4h-34.4V652.2z M884.1,763.9h-34.4v-34.4h34.4V763.9z
	 M849.7,725.3v-34.4h34.4v34.4H849.7z M922.8,763.9h-34.4v-34.4h34.4V763.9z M922.8,725.3h-34.4v-34.4h34.4V725.3z M922.8,686.6
	h-34.4v-34.4h34.4V686.6z M961.4,763.9H927v-34.4h34.4V763.9z M961.4,725.3H927v-34.4h34.4V725.3z M961.4,686.6H927v-34.4h34.4
	V686.6z"/>
<rect x="849.7" y="729.5" class="st0" width="34.4" height="34.4"/>
<rect x="927" y="729.5" class="st2" width="34.4" height="34.4"/>
<rect x="1120" y="652.2" class="st2" width="34.4" height="34.4"/>
<rect x="1081.4" y="652.2" class="st0" width="34.4" height="34.4"/>
<path class="st1" d="M1111.8,632.5h-26.5v13.4h26.5V632.5z M1089.5,641.7v-5.1h18.1v5.1H1089.5z"/>
<rect x="1089.5" y="636.7" class="st2" width="18.1" height="5.1"/>
<path class="st1" d="M1212.8,721.2v-26.5h-13.5v26.5H1212.8z M1203.6,698.9h5.1V717h-5.1V698.9z"/>
<rect x="1203.6" y="698.9" class="st2" width="5.1" height="18.1"/>
<path class="st1" d="M1111.8,770.2h-26.5v13.5h26.5V770.2z M1089.5,779.5v-5.1h18.1v5.1H1089.5z"/>
<rect x="1089.5" y="774.4" class="st2" width="18.1" height="5.1"/>
<path class="st1" d="M1150.5,770.2H1124v13.5h26.5V770.2z M1128.2,779.5v-5.1h18.1v5.1H1128.2z"/>
<rect x="1128.2" y="774.4" class="st2" width="18.1" height="5.1"/>
<rect x="1158.6" y="652.2" class="st2" width="34.4" height="34.4"/>
<rect x="1120" y="690.8" class="st2" width="34.4" height="34.4"/>
<rect x="1081.4" y="690.8" class="st2" width="34.4" height="34.4"/>
<rect x="1158.6" y="690.8" class="st0" width="34.4" height="34.4"/>
<rect x="1120" y="729.5" class="st0" width="34.4" height="34.4"/>
<path class="st1" d="M1077.2,648v120.1h120.1V648H1077.2z M1081.4,652.2h34.4v34.4h-34.4V652.2z M1115.8,763.9h-34.4v-34.4h34.4
	V763.9z M1081.4,725.3v-34.4h34.4v34.4H1081.4z M1154.4,763.9H1120v-34.4h34.4V763.9z M1154.4,725.3H1120v-34.4h34.4V725.3z
	 M1154.4,686.6H1120v-34.4h34.4V686.6z M1193.1,763.9h-34.4v-34.4h34.4V763.9z M1193.1,725.3h-34.4v-34.4h34.4V725.3z M1193.1,686.6
	h-34.4v-34.4h34.4V686.6z"/>
<rect x="1081.4" y="729.5" class="st0" width="34.4" height="34.4"/>
<rect x="1158.6" y="729.5" class="st2" width="34.4" height="34.4"/>
<rect x="1385.8" y="662.1" class="st0" width="34.4" height="34.4"/>
<rect x="1347.2" y="662.1" class="st2" width="34.4" height="34.4"/>
<path class="st1" d="M1416.3,642.3h-26.5v13.5h26.5V642.3z M1394,651.6v-5.1h18.1v5.1H1394z"/>
<rect x="1394" y="646.5" class="st2" width="18.1" height="5.1"/>
<path class="st1" d="M1478.7,770v-26.5h-13.5V770H1478.7z M1469.4,747.7h5.1v18.1h-5.1V747.7z"/>
<rect x="1469.4" y="747.7" class="st2" width="5.1" height="18.1"/>
<path class="st1" d="M1340.9,731.1v-26.5h-13.5v26.5H1340.9z M1331.6,708.8h5.1v18.1h-5.1V708.8z"/>
<rect x="1331.6" y="708.8" class="st2" width="5.1" height="18.1"/>
<path class="st1" d="M1340.9,770v-26.5h-13.5V770H1340.9z M1331.6,747.7h5.1v18.1h-5.1V747.7z"/>
<rect x="1331.6" y="747.7" class="st2" width="5.1" height="18.1"/>
<rect x="1424.5" y="662.1" class="st2" width="34.4" height="34.4"/>
<rect x="1385.8" y="700.7" class="st2" width="34.4" height="34.4"/>
<rect x="1347.2" y="700.7" class="st0" width="34.4" height="34.4"/>
<rect x="1424.5" y="700.7" class="st2" width="34.4" height="34.4"/>
<rect x="1385.8" y="739.4" class="st2" width="34.4" height="34.4"/>
<path class="st1" d="M1343,657.9V778h120.1V657.9H1343z M1347.2,662.1h34.4v34.4h-34.4V662.1z M1381.6,773.8h-34.4v-34.4h34.4V773.8
	z M1347.2,735.2v-34.4h34.4v34.4H1347.2z M1420.3,773.8h-34.4v-34.4h34.4V773.8z M1420.3,735.2h-34.4v-34.4h34.4V735.2z
	 M1420.3,696.5h-34.4v-34.4h34.4V696.5z M1458.9,773.8h-34.4v-34.4h34.4V773.8z M1458.9,735.2h-34.4v-34.4h34.4V735.2z
	 M1458.9,696.5h-34.4v-34.4h34.4V696.5z"/>
<rect x="1347.2" y="739.4" class="st0" width="34.4" height="34.4"/>
<rect x="1424.5" y="739.4" class="st0" width="34.4" height="34.4"/>
<rect x="1635.8" y="642.3" class="st2" width="34.4" height="34.4"/>
<rect x="1597.2" y="642.3" class="st0" width="34.4" height="34.4"/>
<path class="st1" d="M1728.7,711.3v-26.5h-13.5v26.5H1728.7z M1719.4,689h5.1v18.1h-5.1V689z"/>
<rect x="1719.4" y="689" class="st2" width="5.1" height="18.1"/>
<path class="st1" d="M1590.9,672.7v-26.5h-13.5v26.5H1590.9z M1581.6,650.4h5.1v18.1h-5.1V650.4z"/>
<rect x="1581.6" y="650.4" class="st2" width="5.1" height="18.1"/>
<path class="st1" d="M1590.9,750.2v-26.5h-13.5v26.5H1590.9z M1581.6,727.9h5.1V746h-5.1V727.9z"/>
<rect x="1581.6" y="727.9" class="st2" width="5.1" height="18.1"/>
<path class="st1" d="M1666.3,760.4h-26.5v13.5h26.5V760.4z M1644,769.6v-5.1h18.1v5.1H1644z"/>
<rect x="1644" y="764.6" class="st2" width="18.1" height="5.1"/>
<rect x="1674.5" y="642.3" class="st2" width="34.4" height="34.4"/>
<rect x="1635.8" y="681" class="st2" width="34.4" height="34.4"/>
<rect x="1597.2" y="681" class="st2" width="34.4" height="34.4"/>
<rect x="1674.5" y="681" class="st0" width="34.4" height="34.4"/>
<rect x="1635.8" y="719.6" class="st0" width="34.4" height="34.4"/>
<path class="st1" d="M1593,638.1v120.1h120.1V638.1H1593z M1597.2,642.3h34.4v34.4h-34.4V642.3z M1631.6,754.1h-34.4v-34.4h34.4
	V754.1z M1597.2,715.4V681h34.4v34.4H1597.2z M1670.3,754.1h-34.4v-34.4h34.4V754.1z M1670.3,715.4h-34.4V681h34.4V715.4z
	 M1670.3,676.8h-34.4v-34.4h34.4V676.8z M1708.9,754.1h-34.4v-34.4h34.4V754.1z M1708.9,715.4h-34.4V681h34.4V715.4z M1708.9,676.8
	h-34.4v-34.4h34.4V676.8z"/>
<rect x="1597.2" y="719.6" class="st0" width="34.4" height="34.4"/>
<rect x="1674.5" y="719.6" class="st2" width="34.4" height="34.4"/>
<rect x="1882.6" y="652.2" class="st2" width="34.4" height="34.4"/>
<rect x="1843.9" y="652.2" class="st0" width="34.4" height="34.4"/>
<path class="st1" d="M1874.4,632.5h-26.5v13.4h26.5V632.5z M1852.1,641.7v-5.1h18.1v5.1H1852.1z"/>
<rect x="1852.1" y="636.7" class="st2" width="18.1" height="5.1"/>
<path class="st1" d="M1951.9,632.5h-26.5v13.4h26.5V632.5z M1929.6,641.7v-5.1h18.1v5.1H1929.6z"/>
<rect x="1929.6" y="636.7" class="st2" width="18.1" height="5.1"/>
<path class="st1" d="M1975.4,721.2v-26.5h-13.5v26.5H1975.4z M1966.2,698.9h5.1V717h-5.1V698.9z"/>
<rect x="1966.2" y="698.9" class="st2" width="5.1" height="18.1"/>
<path class="st1" d="M1913,770.2h-26.5v13.5h26.5V770.2z M1890.8,779.5v-5.1h18.1v5.1H1890.8z"/>
<rect x="1890.8" y="774.4" class="st2" width="18.1" height="5.1"/>
<rect x="1921.2" y="652.2" class="st0" width="34.4" height="34.4"/>
<rect x="1882.6" y="690.8" class="st2" width="34.4" height="34.4"/>
<rect x="1843.9" y="690.8" class="st2" width="34.4" height="34.4"/>
<rect x="1921.2" y="690.8" class="st0" width="34.4" height="34.4"/>
<rect x="1882.6" y="729.5" class="st0" width="34.4" height="34.4"/>
<path class="st1" d="M1839.7,648v120.1h120.1V648H1839.7z M1843.9,652.2h34.4v34.4h-34.4V652.2z M1878.4,763.9H1844v-34.4h34.4
	V763.9z M1843.9,725.3v-34.4h34.4v34.4H1843.9z M1917,763.9h-34.4v-34.4h34.4V763.9z M1917,725.3h-34.4v-34.4h34.4V725.3z
	 M1917,686.6h-34.4v-34.4h34.4V686.6z M1955.7,763.9h-34.4v-34.4h34.4V763.9z M1955.7,725.3h-34.4v-34.4h34.4V725.3z M1955.7,686.6
	h-34.4v-34.4h34.4V686.6z"/>
<rect x="1843.9" y="729.5" class="st2" width="34.4" height="34.4"/>
<rect x="1921.2" y="729.5" class="st2" width="34.4" height="34.4"/>
<rect x="369.1" y="352.1" class="st0" width="34.4" height="34.4"/>
<rect x="330.4" y="352.1" class="st2" width="34.4" height="34.4"/>
<path class="st1" d="M399.5,332.4H373v13.5h26.5V332.4z M377.2,341.7v-5.1h18.1v5.1H377.2z"/>
<rect x="377.2" y="336.6" class="st2" width="18.1" height="5.1"/>
<path class="st1" d="M438.4,332.4h-26.5v13.5h26.5V332.4z M416.1,341.7v-5.1h18.1v5.1H416.1z"/>
<rect x="416.1" y="336.6" class="st2" width="18.1" height="5.1"/>
<path class="st1" d="M324.1,460v-26.5h-13.5V460H324.1z M314.8,437.7h5.1v18.1h-5.1V437.7z"/>
<rect x="314.8" y="437.7" class="st2" width="5.1" height="18.1"/>
<path class="st1" d="M399.5,470.2H373v13.5h26.5V470.2z M377.2,479.4v-5.1h18.1v5.1H377.2z"/>
<rect x="377.2" y="474.4" class="st2" width="18.1" height="5.1"/>
<rect x="407.7" y="352.1" class="st0" width="34.4" height="34.4"/>
<rect x="369.1" y="390.8" class="st2" width="34.4" height="34.4"/>
<rect x="330.4" y="390.8" class="st2" width="34.4" height="34.4"/>
<rect x="407.7" y="390.8" class="st2" width="34.4" height="34.4"/>
<rect x="369.1" y="429.4" class="st0" width="34.4" height="34.4"/>
<path class="st1" d="M326.2,348v120.1h120.1V348H326.2z M330.4,352.2h34.4v34.4h-34.4V352.2z M364.9,463.9h-34.4v-34.5h34.4V463.9z
	 M330.4,425.2v-34.4h34.4v34.4C364.8,425.2,330.4,425.2,330.4,425.2z M403.5,463.9h-34.4v-34.5h34.4V463.9z M403.5,425.2h-34.4
	v-34.4h34.4V425.2z M403.5,386.6h-34.4v-34.4h34.4V386.6z M442.1,463.9h-34.4v-34.5h34.4V463.9z M442.1,425.2h-34.4v-34.4h34.4
	V425.2z M442.1,386.6h-34.4v-34.4h34.4V386.6z"/>
<rect x="330.4" y="429.4" class="st0" width="34.4" height="34.4"/>
<rect x="407.7" y="429.4" class="st2" width="34.4" height="34.4"/>
<rect x="629.4" y="352.1" class="st0" width="34.4" height="34.4"/>
<rect x="590.7" y="352.1" class="st0" width="34.4" height="34.4"/>
<path class="st1" d="M659.9,332.4h-26.5v13.5h26.5V332.4z M637.6,341.7v-5.1h18.1v5.1H637.6z"/>
<rect x="637.6" y="336.6" class="st2" width="18.1" height="5.1"/>
<path class="st1" d="M584.5,382.5V356H571v26.5H584.5z M575.2,360.2h5.1v18.1h-5.1V360.2z"/>
<rect x="575.2" y="360.2" class="st2" width="5.1" height="18.1"/>
<path class="st1" d="M659.9,470.2h-26.5v13.5h26.5V470.2z M637.6,479.4v-5.1h18.1v5.1H637.6z"/>
<rect x="637.6" y="474.4" class="st2" width="18.1" height="5.1"/>
<path class="st1" d="M698.7,470.2h-26.5v13.5h26.5V470.2z M676.4,479.4v-5.1h18.1v5.1H676.4z"/>
<rect x="676.4" y="474.4" class="st2" width="18.1" height="5.1"/>
<rect x="668" y="352.1" class="st2" width="34.4" height="34.4"/>
<rect x="629.4" y="390.8" class="st2" width="34.4" height="34.4"/>
<rect x="590.8" y="390.8" class="st2" width="34.4" height="34.4"/>
<rect x="668" y="390.8" class="st2" width="34.4" height="34.4"/>
<rect x="629.4" y="429.4" class="st0" width="34.4" height="34.4"/>
<path class="st1" d="M586.6,348v120.1h120.1V348H586.6z M590.8,352.2h34.4v34.4h-34.4V352.2z M625.2,463.9h-34.4v-34.5h34.4V463.9z
	 M590.8,425.2v-34.4h34.4v34.4C625.2,425.2,590.8,425.2,590.8,425.2z M663.8,463.9h-34.4v-34.5h34.4V463.9z M663.8,425.2h-34.4
	v-34.4h34.4V425.2z M663.8,386.6h-34.4v-34.4h34.4V386.6z M702.5,463.9h-34.4v-34.5h34.4V463.9z M702.5,425.2h-34.4v-34.4h34.4
	V425.2z M702.5,386.6h-34.4v-34.4h34.4V386.6z"/>
<rect x="590.7" y="429.4" class="st2" width="34.4" height="34.4"/>
<rect x="668" y="429.4" class="st0" width="34.4" height="34.4"/>
<rect x="878.4" y="352.1" class="st0" width="34.4" height="34.4"/>
<rect x="839.8" y="352.1" class="st0" width="34.4" height="34.4"/>
<path class="st1" d="M870.3,332.4h-26.5v13.5h26.5V332.4z M848,341.7v-5.1h18.1v5.1H848z"/>
<rect x="848" y="336.6" class="st2" width="18.1" height="5.1"/>
<path class="st1" d="M908.9,332.4h-26.5v13.5h26.5V332.4z M886.6,341.7v-5.1h18.1v5.1H886.6z"/>
<rect x="886.6" y="336.6" class="st2" width="18.1" height="5.1"/>
<path class="st1" d="M870.3,470.2h-26.5v13.5h26.5V470.2z M848,479.4v-5.1h18.1v5.1H848z"/>
<rect x="848" y="474.4" class="st2" width="18.1" height="5.1"/>
<path class="st1" d="M908.9,470.2h-26.5v13.5h26.5V470.2z M886.6,479.4v-5.1h18.1v5.1H886.6z"/>
<rect x="886.6" y="474.4" class="st2" width="18.1" height="5.1"/>
<rect x="917.1" y="352.1" class="st2" width="34.4" height="34.4"/>
<rect x="878.4" y="390.8" class="st2" width="34.4" height="34.4"/>
<rect x="839.8" y="390.8" class="st2" width="34.4" height="34.4"/>
<rect x="917.1" y="390.8" class="st2" width="34.4" height="34.4"/>
<rect x="878.4" y="429.4" class="st0" width="34.4" height="34.4"/>
<path class="st1" d="M835.6,348v120.1h120.1V348H835.6z M839.8,352.2h34.4v34.4h-34.4V352.2z M874.2,463.9h-34.4v-34.5h34.4V463.9z
	 M839.8,425.2v-34.4h34.4v34.4C874.2,425.2,839.8,425.2,839.8,425.2z M912.9,463.9h-34.4v-34.5h34.4V463.9z M912.9,425.2h-34.4
	v-34.4h34.4V425.2z M912.9,386.6h-34.4v-34.4h34.4V386.6z M951.5,463.9h-34.4v-34.5h34.4V463.9z M951.5,425.2h-34.4v-34.4h34.4
	V425.2z M951.5,386.6h-34.4v-34.4h34.4V386.6z"/>
<rect x="839.8" y="429.4" class="st0" width="34.4" height="34.4"/>
<rect x="917.1" y="429.4" class="st2" width="34.4" height="34.4"/>
<rect x="1139.8" y="352.1" class="st0" width="34.4" height="34.4"/>
<rect x="1101.1" y="352.1" class="st0" width="34.4" height="34.4"/>
<path class="st1" d="M1170.2,332.4h-26.5v13.5h26.5V332.4z M1147.9,341.7v-5.1h18.1v5.1H1147.9z"/>
<rect x="1147.9" y="336.6" class="st2" width="18.1" height="5.1"/>
<path class="st1" d="M1094.8,382.5V356h-13.5v26.5H1094.8z M1085.6,360.2h5.1v18.1h-5.1V360.2z"/>
<rect x="1085.6" y="360.2" class="st2" width="5.1" height="18.1"/>
<path class="st1" d="M1094.8,460v-26.5h-13.5V460H1094.8z M1085.6,437.7h5.1v18.1h-5.1V437.7z"/>
<rect x="1085.6" y="437.7" class="st2" width="5.1" height="18.1"/>
<path class="st1" d="M1170.2,470.2h-26.5v13.5h26.5V470.2z M1147.9,479.4v-5.1h18.1v5.1H1147.9z"/>
<rect x="1147.9" y="474.4" class="st2" width="18.1" height="5.1"/>
<rect x="1178.4" y="352.1" class="st2" width="34.4" height="34.4"/>
<rect x="1139.8" y="390.8" class="st2" width="34.4" height="34.4"/>
<rect x="1101.1" y="390.8" class="st2" width="34.4" height="34.4"/>
<rect x="1178.4" y="390.8" class="st2" width="34.4" height="34.4"/>
<rect x="1139.8" y="429.4" class="st0" width="34.4" height="34.4"/>
<path class="st1" d="M1096.9,348v120.1H1217V348H1096.9z M1101.1,352.2h34.4v34.4h-34.4V352.2z M1135.6,463.9h-34.4v-34.5h34.4
	V463.9z M1101.1,425.2v-34.4h34.4v34.4C1135.5,425.2,1101.1,425.2,1101.1,425.2z M1174.2,463.9h-34.4v-34.5h34.4V463.9z
	 M1174.2,425.2h-34.4v-34.4h34.4V425.2z M1174.2,386.6h-34.4v-34.4h34.4V386.6z M1212.8,463.9h-34.4v-34.5h34.4V463.9z
	 M1212.8,425.2h-34.4v-34.4h34.4V425.2z M1212.8,386.6h-34.4v-34.4h34.4V386.6z"/>
<rect x="1101.1" y="429.4" class="st0" width="34.4" height="34.4"/>
<rect x="1178.4" y="429.4" class="st2" width="34.4" height="34.4"/>
<rect x="1385.8" y="352.1" class="st0" width="34.4" height="34.4"/>
<rect x="1347.2" y="352.1" class="st2" width="34.4" height="34.4"/>
<path class="st1" d="M1416.3,332.4h-26.5v13.5h26.5V332.4z M1394,341.7v-5.1h18.1v5.1H1394z"/>
<rect x="1394" y="336.6" class="st2" width="18.1" height="5.1"/>
<path class="st1" d="M1478.7,382.5V356h-13.5v26.5H1478.7z M1469.4,360.2h5.1v18.1h-5.1V360.2z"/>
<rect x="1469.4" y="360.2" class="st2" width="5.1" height="18.1"/>
<path class="st1" d="M1340.9,421.1v-26.4h-13.5v26.5h13.5V421.1z M1331.6,398.9h5.1v18h-5.1V398.9z"/>
<rect x="1331.6" y="398.9" class="st2" width="5.1" height="18.1"/>
<path class="st1" d="M1377.7,470.2h-26.5v13.5h26.5V470.2z M1355.4,479.4v-5.1h18.1v5.1H1355.4z"/>
<rect x="1355.4" y="474.4" class="st2" width="18.1" height="5.1"/>
<rect x="1424.5" y="352.1" class="st0" width="34.4" height="34.4"/>
<rect x="1385.8" y="390.8" class="st2" width="34.4" height="34.4"/>
<rect x="1347.2" y="390.8" class="st0" width="34.4" height="34.4"/>
<rect x="1424.5" y="390.8" class="st2" width="34.4" height="34.4"/>
<rect x="1385.8" y="429.4" class="st2" width="34.4" height="34.4"/>
<path class="st1" d="M1343,348v120.1h120.1V348H1343z M1347.2,352.2h34.4v34.4h-34.4V352.2z M1381.6,463.9h-34.4v-34.5h34.4V463.9z
	 M1347.2,425.2v-34.4h34.4v34.4C1381.6,425.2,1347.2,425.2,1347.2,425.2z M1420.3,463.9h-34.4v-34.5h34.4V463.9z M1420.3,425.2
	h-34.4v-34.4h34.4V425.2z M1420.3,386.6h-34.4v-34.4h34.4V386.6z M1458.9,463.9h-34.4v-34.5h34.4V463.9z M1458.9,425.2h-34.4v-34.4
	h34.4V425.2z M1458.9,386.6h-34.4v-34.4h34.4V386.6z"/>
<rect x="1347.2" y="429.4" class="st0" width="34.4" height="34.4"/>
<rect x="1424.5" y="429.4" class="st2" width="34.4" height="34.4"/>
<rect x="1625.9" y="362" class="st0" width="34.4" height="34.4"/>
<rect x="1587.3" y="362" class="st2" width="34.4" height="34.4"/>
<path class="st1" d="M1656.4,342.3h-26.5v13.5h26.5V342.3z M1634.1,351.5v-5.1h18.1v5.1H1634.1z"/>
<rect x="1634.1" y="346.5" class="st2" width="18.1" height="5.1"/>
<path class="st1" d="M1718.8,392.4v-26.5h-13.5v26.5H1718.8z M1709.5,370.1h5.1v18.1h-5.1V370.1z"/>
<rect x="1709.5" y="370.1" class="st2" width="5.1" height="18.1"/>
<path class="st1" d="M1718.8,431v-26.5h-13.5V431H1718.8z M1709.5,408.7h5.1v18.1h-5.1V408.7z"/>
<rect x="1709.5" y="408.7" class="st2" width="5.1" height="18.1"/>
<path class="st1" d="M1718.8,469.9v-26.5h-13.5v26.5H1718.8z M1709.5,447.6h5.1v18.1h-5.1V447.6z"/>
<rect x="1709.5" y="447.6" class="st2" width="5.1" height="18.1"/>
<rect x="1664.6" y="362" class="st0" width="34.4" height="34.4"/>
<rect x="1625.9" y="400.7" class="st2" width="34.4" height="34.4"/>
<rect x="1587.3" y="400.7" class="st2" width="34.4" height="34.4"/>
<rect x="1664.6" y="400.7" class="st0" width="34.4" height="34.4"/>
<rect x="1625.9" y="439.3" class="st2" width="34.4" height="34.4"/>
<path class="st1" d="M1583.1,357.8V478h120.1V357.8H1583.1z M1587.3,362h34.4v34.4h-34.4V362z M1621.7,473.8h-34.4v-34.5h34.4V473.8
	z M1587.3,435.1v-34.4h34.4v34.4H1587.3z M1660.4,473.8H1626v-34.5h34.4V473.8z M1660.4,435.1H1626v-34.4h34.4V435.1z M1660.4,396.5
	H1626v-34.4h34.4V396.5z M1699,473.8h-34.4v-34.5h34.4V473.8z M1699,435.1h-34.4v-34.4h34.4V435.1z M1699,396.5h-34.4v-34.4h34.4
	V396.5z"/>
<rect x="1587.3" y="439.3" class="st2" width="34.4" height="34.4"/>
<rect x="1664.6" y="439.3" class="st0" width="34.4" height="34.4"/>
<rect x="1902.4" y="362" class="st0" width="34.4" height="34.4"/>
<rect x="1863.7" y="362" class="st0" width="34.4" height="34.4"/>
<path class="st1" d="M1932.8,342.3h-26.5v13.5h26.5V342.3z M1910.5,351.5v-5.1h18.1v5.1H1910.5z"/>
<rect x="1910.5" y="346.5" class="st2" width="18.1" height="5.1"/>
<path class="st1" d="M1857.4,392.4v-26.5h-13.5v26.5H1857.4z M1848.1,370.1h5.1v18.1h-5.1V370.1z"/>
<rect x="1848.1" y="370.1" class="st2" width="5.1" height="18.1"/>
<path class="st1" d="M1857.4,431v-26.5h-13.5V431H1857.4z M1848.1,408.7h5.1v18.1h-5.1V408.7z"/>
<rect x="1848.1" y="408.7" class="st2" width="5.1" height="18.1"/>
<path class="st1" d="M1857.4,469.9v-26.5h-13.5v26.5H1857.4z M1848.1,447.6h5.1v18.1h-5.1V447.6z"/>
<rect x="1848.1" y="447.6" class="st2" width="5.1" height="18.1"/>
<rect x="1941" y="362" class="st2" width="34.4" height="34.4"/>
<rect x="1902.4" y="400.7" class="st2" width="34.4" height="34.4"/>
<rect x="1863.7" y="400.7" class="st0" width="34.4" height="34.4"/>
<rect x="1941" y="400.7" class="st2" width="34.4" height="34.4"/>
<rect x="1902.4" y="439.3" class="st2" width="34.4" height="34.4"/>
<path class="st1" d="M1859.5,357.8V478h120.1V357.8H1859.5z M1863.7,362h34.4v34.4h-34.4V362z M1898.2,473.8h-34.4v-34.5h34.4V473.8
	z M1863.7,435.1v-34.4h34.4v34.4H1863.7z M1936.8,473.8h-34.4v-34.5h34.4V473.8z M1936.8,435.1h-34.4v-34.4h34.4V435.1z
	 M1936.8,396.5h-34.4v-34.4h34.4V396.5z M1975.4,473.8H1941v-34.5h34.4V473.8z M1975.4,435.1H1941v-34.4h34.4V435.1z M1975.4,396.5
	H1941v-34.4h34.4V396.5z"/>
<rect x="1863.7" y="439.3" class="st0" width="34.4" height="34.4"/>
<rect x="1941" y="439.3" class="st2" width="34.4" height="34.4"/>
<rect x="58.5" y="19.7" class="st2" width="34.4" height="34.4"/>
<rect x="19.8" y="19.7" class="st2" width="34.4" height="34.4"/>
<path class="st1" d="M127.8-0.1h-26.5v13.5h26.5V-0.1z M105.5,9.2V4.1h18.1v5.1H105.5z"/>
<rect x="105.5" y="4.2" class="st2" width="18.1" height="5.1"/>
<path class="st1" d="M13.5,88.8V62.2H0v26.5H13.5z M4.3,66.4h5.1v18.1H4.3V66.4z"/>
<rect x="4.3" y="66.4" class="st2" width="5.1" height="18.1"/>
<path class="st1" d="M13.5,127.6v-26.5H0v26.5H13.5z M4.3,105.2h5.1v18.1H4.3V105.2z"/>
<rect x="4.3" y="105.2" class="st2" width="5.1" height="18.1"/>
<path class="st1" d="M50.3,137.8H23.8v13.5h26.5V137.8z M28,147.1v-5.1h18.1v5.1H28z"/>
<rect x="28" y="141.9" class="st2" width="18.1" height="5.1"/>
<rect x="97.1" y="19.7" class="st0" width="34.4" height="34.4"/>
<rect x="58.5" y="58.3" class="st2" width="34.4" height="34.4"/>
<rect x="19.8" y="58.3" class="st0" width="34.4" height="34.4"/>
<rect x="97.1" y="58.3" class="st2" width="34.4" height="34.4"/>
<rect x="58.5" y="96.9" class="st0" width="34.4" height="34.4"/>
<path class="st1" d="M15.6,15.6v120.1h120.1V15.6H15.6z M19.8,19.7h34.4v34.4H19.8V19.7z M54.3,131.4H19.9V97.1h34.4V131.4z
	 M19.8,92.8V58.3h34.4v34.4L19.8,92.8L19.8,92.8z M92.9,131.4H58.5V97.1h34.4V131.4z M92.9,92.8H58.5V58.3h34.4V92.8z M92.9,54.2
	H58.5V19.8h34.4V54.2z M131.5,131.4H97.1V97.1h34.4V131.4z M131.5,92.8H97.1V58.3h34.4V92.8z M131.5,54.2H97.1V19.8h34.4V54.2z"/>
<rect x="19.8" y="96.9" class="st0" width="34.4" height="34.4"/>
<rect x="97.1" y="96.9" class="st2" width="34.4" height="34.4"/>
<rect x="1376" y="83.2" class="st2" width="34.4" height="34.4"/>
<rect x="1337.3" y="83.2" class="st0" width="34.4" height="34.4"/>
<path class="st1" d="M1367.8,63.4h-26.5v13.5h26.5V63.4z M1345.5,72.7v-5.1h18.1v5.1H1345.5z"/>
<rect x="1345.5" y="67.6" class="st2" width="18.1" height="5.1"/>
<path class="st1" d="M1468.8,152.2v-26.5h-13.5v26.5H1468.8z M1459.5,129.9h5.1V148h-5.1V129.9z"/>
<rect x="1459.5" y="129.9" class="st2" width="5.1" height="18.1"/>
<path class="st1" d="M1468.8,191v-26.5h-13.5V191H1468.8z M1459.5,168.7h5.1v18.1h-5.1V168.7z"/>
<rect x="1459.5" y="168.7" class="st2" width="5.1" height="18.1"/>
<path class="st1" d="M1406.4,201.2h-26.5v13.5h26.5V201.2z M1384.1,210.5v-5.1h18.1v5.1H1384.1z"/>
<rect x="1384.1" y="205.4" class="st2" width="18.1" height="5.1"/>
<rect x="1414.6" y="83.2" class="st2" width="34.4" height="34.4"/>
<rect x="1376" y="121.8" class="st2" width="34.4" height="34.4"/>
<rect x="1337.3" y="121.8" class="st2" width="34.4" height="34.4"/>
<rect x="1414.6" y="121.8" class="st0" width="34.4" height="34.4"/>
<rect x="1376" y="160.4" class="st0" width="34.4" height="34.4"/>
<path class="st1" d="M1333.1,79v120.1h120.1V79H1333.1z M1337.3,83.2h34.4v34.4h-34.4V83.2z M1371.8,194.9h-34.4v-34.4h34.4V194.9z
	 M1337.3,156.2v-34.4h34.4v34.4L1337.3,156.2L1337.3,156.2z M1410.4,194.9H1376v-34.4h34.4V194.9z M1410.4,156.2H1376v-34.4h34.4
	V156.2z M1410.4,117.6H1376V83.2h34.4V117.6z M1449,194.9h-34.4v-34.4h34.4V194.9z M1449,156.2h-34.4v-34.4h34.4V156.2z M1449,117.6
	h-34.4V83.2h34.4V117.6z"/>
<rect x="1337.3" y="160.4" class="st2" width="34.4" height="34.4"/>
<rect x="1414.6" y="160.4" class="st0" width="34.4" height="34.4"/>
<rect x="1635.8" y="83.2" class="st2" width="34.4" height="34.4"/>
<rect x="1597.2" y="83.2" class="st2" width="34.4" height="34.4"/>
<path class="st1" d="M1728.7,113.5V87h-13.5v26.5H1728.7z M1719.4,91.2h5.1v18.1h-5.1V91.2z"/>
<rect x="1719.4" y="91.2" class="st2" width="5.1" height="18.1"/>
<path class="st1" d="M1728.7,152.2v-26.5h-13.5v26.5H1728.7z M1719.4,129.9h5.1V148h-5.1V129.9z"/>
<rect x="1719.4" y="129.9" class="st2" width="5.1" height="18.1"/>
<path class="st1" d="M1728.7,191v-26.5h-13.5V191H1728.7z M1719.4,168.7h5.1v18.1h-5.1V168.7z"/>
<rect x="1719.4" y="168.7" class="st2" width="5.1" height="18.1"/>
<path class="st1" d="M1590.9,152.2v-26.5h-13.5v26.5H1590.9z M1581.6,129.9h5.1V148h-5.1V129.9z"/>
<rect x="1581.6" y="129.9" class="st2" width="5.1" height="18.1"/>
<rect x="1674.5" y="83.2" class="st0" width="34.4" height="34.4"/>
<rect x="1635.8" y="121.8" class="st2" width="34.4" height="34.4"/>
<rect x="1597.2" y="121.8" class="st0" width="34.4" height="34.4"/>
<rect x="1674.5" y="121.8" class="st0" width="34.4" height="34.4"/>
<rect x="1635.8" y="160.4" class="st2" width="34.4" height="34.4"/>
<path class="st1" d="M1593,79v120.1h120.1V79H1593z M1597.2,83.2h34.4v34.4h-34.4V83.2z M1631.6,194.9h-34.4v-34.4h34.4V194.9z
	 M1597.2,156.2v-34.4h34.4v34.4L1597.2,156.2L1597.2,156.2z M1670.3,194.9h-34.4v-34.4h34.4V194.9z M1670.3,156.2h-34.4v-34.4h34.4
	V156.2z M1670.3,117.6h-34.4V83.2h34.4V117.6z M1708.9,194.9h-34.4v-34.4h34.4V194.9z M1708.9,156.2h-34.4v-34.4h34.4V156.2z
	 M1708.9,117.6h-34.4V83.2h34.4V117.6z"/>
<rect x="1597.2" y="160.4" class="st2" width="34.4" height="34.4"/>
<rect x="1674.5" y="160.4" class="st0" width="34.4" height="34.4"/>
<rect x="1892.5" y="83.2" class="st0" width="34.4" height="34.4"/>
<rect x="1853.8" y="83.2" class="st0" width="34.4" height="34.4"/>
<path class="st1" d="M1922.9,63.4h-26.5v13.5h26.5V63.4z M1900.6,72.7v-5.1h18.1v5.1H1900.6z"/>
<rect x="1900.6" y="67.6" class="st2" width="18.1" height="5.1"/>
<path class="st1" d="M1985.3,113.5V87h-13.5v26.5H1985.3z M1976,91.2h5.1v18.1h-5.1V91.2z"/>
<rect x="1976" y="91.2" class="st2" width="5.1" height="18.1"/>
<path class="st1" d="M1847.5,113.5V87H1834v26.5H1847.5z M1838.3,91.2h5.1v18.1h-5.1V91.2z"/>
<rect x="1838.3" y="91.2" class="st2" width="5.1" height="18.1"/>
<path class="st1" d="M1922.9,201.2h-26.5v13.5h26.5V201.2z M1900.6,210.5v-5.1h18.1v5.1H1900.6z"/>
<rect x="1900.6" y="205.4" class="st2" width="18.1" height="5.1"/>
<rect x="1931.1" y="83.2" class="st0" width="34.4" height="34.4"/>
<rect x="1892.5" y="121.8" class="st2" width="34.4" height="34.4"/>
<rect x="1853.8" y="121.8" class="st2" width="34.4" height="34.4"/>
<rect x="1931.1" y="121.8" class="st2" width="34.4" height="34.4"/>
<rect x="1892.5" y="160.4" class="st0" width="34.4" height="34.4"/>
<path class="st1" d="M1849.6,79v120.1h120.1V79H1849.6z M1853.8,83.2h34.4v34.4h-34.4V83.2z M1888.3,194.9h-34.4v-34.4h34.4V194.9z
	 M1853.8,156.2v-34.4h34.4v34.4L1853.8,156.2L1853.8,156.2z M1926.9,194.9h-34.4v-34.4h34.4V194.9z M1926.9,156.2h-34.4v-34.4h34.4
	V156.2z M1926.9,117.6h-34.4V83.2h34.4V117.6z M1965.5,194.9h-34.4v-34.4h34.4V194.9z M1965.5,156.2h-34.4v-34.4h34.4V156.2z
	 M1965.5,117.6h-34.4V83.2h34.4V117.6z"/>
<rect x="1853.8" y="160.4" class="st2" width="34.4" height="34.4"/>
<rect x="1931.1" y="160.4" class="st2" width="34.4" height="34.4"/>
</svg>
