<svg id="Layer_1" data-name="Layer 1" xmlns="http://www.w3.org/2000/svg" viewBox="0 0 92 92"><defs><style>.cls-1{fill:#212744;}.cls-2{fill:#fff8e7;}.cls-3{fill:#4d6bb3;}.cls-4{fill:none;stroke:#4d6bb3;stroke-miterlimit:10;stroke-width:2.84px;}</style></defs><title>FLL</title><path class="cls-1" d="M-0.13,91.79H91.52V0.14H-0.13V91.79ZM61,30.64V3.29H88.37V30.64H61Zm-29,0V3.29H59.37V30.64H32Zm-29,0V3.29H30.36V30.64H3Zm58,29V32.29H88.37V59.63H61Zm-29,0V32.29H59.37V59.63H32Zm-29,0V32.29H30.36V59.63H3Zm58,29V61.28H88.37V88.63H61Zm-29,0V61.28H59.37V88.63H32Zm-29,0V61.28H30.36V88.63H3Z"/><rect class="cls-2" x="61.02" y="61.28" width="27.35" height="27.35"/><rect class="cls-2" x="61.02" y="32.29" width="27.35" height="27.34"/><rect class="cls-2" x="61.02" y="3.29" width="27.35" height="27.35"/><rect class="cls-2" x="32.02" y="3.29" width="27.35" height="27.35"/><rect class="cls-2" x="32.02" y="32.29" width="27.35" height="27.34"/><rect class="cls-2" x="32.02" y="61.28" width="27.35" height="27.35"/><rect class="cls-2" x="3.03" y="61.28" width="27.33" height="27.35"/><rect class="cls-2" x="3.03" y="32.29" width="27.33" height="27.34"/><rect class="cls-2" x="3.03" y="3.29" width="27.33" height="27.35"/><polygon class="cls-3" points="19.89 28.26 28.13 20.03 19.8 19.94 19.89 28.26"/><polygon class="cls-3" points="80.7 66.01 69.05 66.01 74.88 71.96 80.7 66.01"/><line class="cls-4" x1="73.26" y1="73.52" x2="23.96" y2="24.2"/><line class="cls-4" x1="74.88" y1="66.01" x2="74.89" y2="19.94"/><polygon class="cls-3" points="65.87 11.13 65.87 22.77 71.82 16.95 65.87 11.13"/><line class="cls-4" x1="65.87" y1="16.95" x2="19.8" y2="16.93"/></svg>