<svg id="Layer_1" data-name="Layer 1" xmlns="http://www.w3.org/2000/svg" viewBox="0 0 92 92"><defs><style>.cls-1{fill:#212744;}.cls-2{fill:#fff8e7;}.cls-3{fill:#4d6bb3;}.cls-4,.cls-5{fill:none;}.cls-4{stroke:#4d6bb3;stroke-miterlimit:10;stroke-width:2.72px;}</style></defs><title>FLL</title><path class="cls-1" d="M91.82,0.09H0.16V91.74H91.82V0.09ZM3.32,30.59V3.24H30.66V30.59H3.32Zm29,0V3.24H59.66V30.59H32.32Zm29,0V3.24H88.65V30.59H61.33Zm-58,29V32.24H30.66V59.58H3.32Zm29,0V32.24H59.66V59.58H32.32Zm29,0V32.24H88.65V59.58H61.33Zm-58,29V61.23H30.66V88.58H3.32Zm29,0V61.23H59.66V88.58H32.32Zm29,0V61.23H88.65V88.58H61.33Z"/><rect class="cls-2" x="3.32" y="61.23" width="27.35" height="27.35"/><rect class="cls-2" x="3.32" y="32.25" width="27.35" height="27.34"/><rect class="cls-2" x="3.32" y="3.23" width="27.35" height="27.35"/><rect class="cls-2" x="32.32" y="3.24" width="27.35" height="27.35"/><rect class="cls-2" x="32.32" y="32.24" width="27.35" height="27.34"/><rect class="cls-2" x="32.32" y="61.23" width="27.35" height="27.35"/><rect class="cls-2" x="61.33" y="61.23" width="27.33" height="27.35"/><rect class="cls-2" x="61.33" y="32.24" width="27.33" height="27.34"/><rect class="cls-2" x="61.33" y="3.24" width="27.33" height="27.35"/><polygon class="cls-3" points="26.03 51.64 26.03 40 20.08 45.82 26.03 51.64"/><polygon class="cls-3" points="65.95 40 65.95 51.64 71.9 45.82 65.95 40"/><line class="cls-4" x1="67.86" y1="45.82" x2="24.29" y2="45.82"/><polygon class="cls-3" points="26.03 80.72 26.03 69.08 20.08 74.9 26.03 80.72"/><polygon class="cls-3" points="65.95 69.08 65.95 80.72 71.9 74.9 65.95 69.08"/><line class="cls-4" x1="67.86" y1="74.9" x2="24.29" y2="74.9"/><rect id="_Slice_" data-name="&lt;Slice&gt;" class="cls-5" x="0.07" y="0.16" width="92" height="92"/></svg>