<svg id="Layer_1" data-name="Layer 1" xmlns="http://www.w3.org/2000/svg" viewBox="0 0 92 92"><defs><style>.cls-1{fill:#fff8e7;}.cls-2{fill:#212744;}.cls-3{fill:#d6392b;}.cls-4,.cls-6{fill:none;stroke-miterlimit:10;stroke-width:2.84px;}.cls-4{stroke:#d6392b;}.cls-5{fill:#4d6bb3;}.cls-6{stroke:#4d6bb3;}</style></defs><title>FLL</title><rect class="cls-1" x="32.32" y="61.38" width="27.35" height="27.35"/><rect class="cls-1" x="3.33" y="32.37" width="27.35" height="27.34"/><path class="cls-2" d="M91.82,0.22H0.17V91.87H91.82V0.22ZM30.67,61.37V88.72H3.32V61.37H30.67Zm29,0V88.72H32.32V61.37H59.67Zm29,0V88.72H61.33V61.37H88.66Zm-58-29V59.72H3.32V32.38H30.67Zm29,0V59.72H32.32V32.38H59.67Zm29,0V59.72H61.33V32.38H88.66Zm-58-29V30.73H3.32V3.38H30.67Zm29,0V30.73H32.32V3.38H59.67Zm29,0V30.73H61.33V3.38H88.66Z"/><rect class="cls-1" x="3.32" y="3.38" width="27.35" height="27.35"/><rect class="cls-1" x="3.32" y="61.38" width="27.35" height="27.35"/><rect class="cls-1" x="32.33" y="32.38" width="27.35" height="27.34"/><rect class="cls-1" x="32.32" y="3.38" width="27.35" height="27.35"/><rect class="cls-1" x="61.33" y="3.38" width="27.33" height="27.35"/><rect class="cls-1" x="61.44" y="32.38" width="27.33" height="27.34"/><rect class="cls-1" x="61.33" y="61.37" width="27.33" height="27.35"/><polygon class="cls-3" points="65.92 40.18 65.92 51.82 71.87 46 65.92 40.18"/><line class="cls-4" x1="19.88" y1="46.04" x2="67.58" y2="46.04"/><polygon class="cls-5" points="20.02 28.38 28.25 20.15 19.92 20.06 20.02 28.38"/><line class="cls-6" x1="24.24" y1="24.18" x2="73.53" y2="73.58"/><polygon class="cls-5" points="22.83 66.12 11.19 66.12 17.01 72.07 22.83 66.12"/><line class="cls-6" x1="17" y1="66.12" x2="17.01" y2="20.05"/><polygon class="cls-5" points="66.06 69.21 66.06 80.86 72.01 75.03 66.06 69.21"/><line class="cls-6" x1="66.06" y1="75.05" x2="17.01" y2="75.03"/><polygon class="cls-3" points="48.95 63.69 57.19 71.92 48.87 72.01 48.95 63.69"/><polygon class="cls-3" points="51.91 66.85 53.93 68.85 72.05 50.47 72.12 46.35 51.91 66.85"/><polygon class="cls-3" points="28.22 49.08 19.99 57.32 19.9 48.99 28.22 49.08"/><polygon class="cls-3" points="23.05 54.05 40.9 72.01 44.91 72.01 25.07 52.05 23.05 54.05"/></svg>