<svg id="Layer_1" data-name="Layer 1" xmlns="http://www.w3.org/2000/svg" viewBox="0 0 92 92"><defs><style>.cls-1{fill:#fff8e7;}.cls-2{fill:#212744;}.cls-3{fill:#d6392b;}.cls-4,.cls-6{fill:none;stroke-miterlimit:10;stroke-width:2.84px;}.cls-4{stroke:#d6392b;}.cls-5{fill:#4d6bb3;}.cls-6{stroke:#4d6bb3;}</style></defs><title>FLL</title><rect class="cls-1" x="32.38" y="3.63" width="27.35" height="27.35"/><rect class="cls-1" x="3.39" y="32.64" width="27.35" height="27.34"/><path class="cls-2" d="M91.88,0.48H0.23V92.13H91.88V0.48ZM3.38,31V3.63H30.73V31H3.38Zm29,0V3.63H59.73V31H32.38Zm29,0V3.63H88.72V31H61.39Zm-58,29V32.63H30.73V60H3.38Zm29,0V32.63H59.73V60H32.38Zm29,0V32.63H88.72V60H61.39Zm-58,29V61.62H30.73V89H3.38Zm29,0V61.62H59.73V89H32.38Zm29,0V61.62H88.72V89H61.39Z"/><rect class="cls-1" x="3.4" y="61.62" width="27.35" height="27.35"/><rect class="cls-1" x="3.38" y="3.63" width="27.35" height="27.35"/><rect class="cls-1" x="32.38" y="32.63" width="27.35" height="27.34"/><rect class="cls-1" x="32.38" y="61.62" width="27.35" height="27.35"/><rect class="cls-1" x="61.39" y="61.62" width="27.33" height="27.35"/><rect class="cls-1" x="61.5" y="32.63" width="27.33" height="27.34"/><rect class="cls-1" x="61.39" y="3.63" width="27.33" height="27.35"/><polygon class="cls-3" points="65.98 52.17 65.98 40.53 71.93 46.35 65.98 52.17"/><line class="cls-4" x1="19.94" y1="46.31" x2="67.65" y2="46.31"/><polygon class="cls-5" points="20.08 63.97 28.31 72.2 19.99 72.29 20.08 63.97"/><line class="cls-6" x1="24.3" y1="68.18" x2="73.59" y2="18.77"/><polygon class="cls-5" points="22.89 26.23 11.25 26.23 17.07 20.28 22.89 26.23"/><line class="cls-6" x1="17.06" y1="26.23" x2="17.07" y2="72.3"/><polygon class="cls-5" points="66.12 23.14 66.12 11.5 72.07 17.32 66.12 23.14"/><line class="cls-6" x1="66.12" y1="17.3" x2="17.07" y2="17.32"/><polygon class="cls-3" points="49.02 28.66 57.25 20.43 48.93 20.34 49.02 28.66"/><polygon class="cls-3" points="51.97 25.5 53.99 23.5 72.11 41.88 72.18 46 51.97 25.5"/><polygon class="cls-3" points="28.28 43.27 20.05 35.04 19.96 43.36 28.28 43.27"/><polygon class="cls-3" points="23.11 38.3 40.97 20.34 44.98 20.34 25.13 40.31 23.11 38.3"/></svg>