<svg id="Layer_1" data-name="Layer 1" xmlns="http://www.w3.org/2000/svg" viewBox="0 0 92 92"><defs><style>.cls-1{fill:#fff8e7;}.cls-2{fill:#212744;}.cls-3{fill:#d6392b;}.cls-4,.cls-6{fill:none;stroke-miterlimit:10;stroke-width:2.84px;}.cls-4{stroke:#d6392b;}.cls-5{fill:#4d6bb3;}.cls-6{stroke:#4d6bb3;}</style></defs><title>FLL</title><rect class="cls-1" x="32.37" y="61.33" width="27.35" height="27.35"/><rect class="cls-1" x="3.37" y="32.34" width="27.35" height="27.34"/><path class="cls-2" d="M91.87,0.18H0.22V91.83H91.87V0.18ZM30.72,61.33V88.68H3.37V61.33H30.72Zm29,0V88.68H32.37V61.33H59.72Zm29,0V88.68H61.38V61.33H88.71Zm-58-29V59.68H3.37V32.34H30.72Zm29,0V59.68H32.37V32.34H59.72Zm29,0V59.68H61.38V32.34H88.71Zm-58-29V30.69H3.37V3.34H30.72Zm29,0V30.69H32.37V3.34H59.72Zm29,0V30.69H61.38V3.34H88.71Z"/><rect class="cls-1" x="3.37" y="3.34" width="27.35" height="27.35"/><rect class="cls-1" x="3.37" y="61.34" width="27.35" height="27.35"/><rect class="cls-1" x="32.37" y="32.34" width="27.35" height="27.34"/><rect class="cls-1" x="32.37" y="3.34" width="27.35" height="27.35"/><rect class="cls-1" x="61.38" y="3.34" width="27.33" height="27.35"/><rect class="cls-1" x="61.38" y="32.34" width="27.33" height="27.34"/><rect class="cls-1" x="61.38" y="61.33" width="27.33" height="27.35"/><polygon class="cls-3" points="51.86 66.06 40.22 66.06 46.04 72.01 51.86 66.06"/><line class="cls-4" x1="46" y1="20.02" x2="46" y2="67.72"/><polygon class="cls-5" points="20.06 28.34 28.29 20.11 19.97 20.02 20.06 28.34"/><line class="cls-6" x1="24.28" y1="24.14" x2="73.57" y2="73.55"/><polygon class="cls-5" points="22.88 66.09 11.23 66.09 17.06 72.04 22.88 66.09"/><line class="cls-6" x1="17.04" y1="66.09" x2="17.06" y2="20.01"/><polygon class="cls-5" points="66.11 69.18 66.11 80.82 72.05 75 66.11 69.18"/><line class="cls-6" x1="66.1" y1="75.01" x2="17.06" y2="75"/><polygon class="cls-3" points="28.35 49.1 20.12 57.33 20.03 49.01 28.35 49.1"/><polygon class="cls-3" points="25.19 52.05 23.19 54.07 41.57 72.19 45.69 72.26 25.19 52.05"/><polygon class="cls-3" points="42.96 28.36 34.73 20.13 43.05 20.04 42.96 28.36"/><polygon class="cls-3" points="37.99 23.19 20.03 41.05 20.03 45.05 40 25.21 37.99 23.19"/></svg>