<svg id="Layer_1" data-name="Layer 1" xmlns="http://www.w3.org/2000/svg" viewBox="0 0 92 92"><defs><style>.cls-1{fill:#fff8e7;}.cls-2{fill:#212744;}.cls-3{fill:#d6392b;}.cls-4,.cls-6{fill:none;stroke-miterlimit:10;stroke-width:2.84px;}.cls-4{stroke:#d6392b;}.cls-5{fill:#4d6bb3;}.cls-6{stroke:#4d6bb3;}</style></defs><title>FLL</title><rect class="cls-1" x="32.37" y="3.33" width="27.35" height="27.35"/><rect class="cls-1" x="3.37" y="32.34" width="27.35" height="27.34"/><path class="cls-2" d="M91.87,0.18H0.22V91.83H91.87V0.18ZM3.37,30.68V3.33H30.72V30.68H3.37Zm29,0V3.33H59.72V30.68H32.37Zm29,0V3.33H88.71V30.68H61.38Zm-58,29V32.33H30.72V59.67H3.37Zm29,0V32.33H59.72V59.67H32.37Zm29,0V32.33H88.71V59.67H61.38Zm-58,29V61.32H30.72V88.67H3.37Zm29,0V61.32H59.72V88.67H32.37Zm29,0V61.32H88.71V88.67H61.38Z"/><rect class="cls-1" x="3.37" y="61.32" width="27.35" height="27.35"/><rect class="cls-1" x="3.37" y="3.32" width="27.35" height="27.35"/><rect class="cls-1" x="32.37" y="32.33" width="27.35" height="27.34"/><rect class="cls-1" x="32.37" y="61.32" width="27.35" height="27.35"/><rect class="cls-1" x="61.38" y="61.32" width="27.33" height="27.35"/><rect class="cls-1" x="61.38" y="32.33" width="27.33" height="27.34"/><rect class="cls-1" x="61.38" y="3.33" width="27.33" height="27.35"/><polygon class="cls-3" points="51.86 25.95 40.22 25.95 46.04 20 51.86 25.95"/><line class="cls-4" x1="46" y1="72" x2="46" y2="24.29"/><polygon class="cls-5" points="20.06 63.67 28.29 71.9 19.97 71.99 20.06 63.67"/><line class="cls-6" x1="24.28" y1="67.87" x2="73.57" y2="18.47"/><polygon class="cls-5" points="22.88 25.93 11.23 25.93 17.06 19.98 22.88 25.93"/><line class="cls-6" x1="17.04" y1="25.93" x2="17.06" y2="72"/><polygon class="cls-5" points="66.11 22.84 66.11 11.19 72.05 17.02 66.11 22.84"/><line class="cls-6" x1="66.1" y1="17" x2="17.06" y2="17.02"/><polygon class="cls-3" points="28.35 42.92 20.12 34.68 20.03 43.01 28.35 42.92"/><polygon class="cls-3" points="25.19 39.96 23.19 37.94 41.57 19.82 45.69 19.76 25.19 39.96"/><polygon class="cls-3" points="42.96 63.65 34.73 71.88 43.05 71.97 42.96 63.65"/><polygon class="cls-3" points="37.99 68.82 20.03 50.97 20.03 46.96 40 66.81 37.99 68.82"/></svg>