<svg id="Layer_1" data-name="Layer 1" xmlns="http://www.w3.org/2000/svg" viewBox="0 0 92 92"><defs><style>.cls-1{fill:#212744;}.cls-2{fill:#fff8e7;}.cls-3{fill:#4d6bb3;}.cls-4{fill:none;stroke:#4d6bb3;stroke-miterlimit:10;stroke-width:2.84px;}</style></defs><title>FLL</title><path class="cls-1" d="M-0.36,91.8H91.29V0.15H-0.36V91.8ZM60.79,30.65V3.3H88.14V30.65H60.79Zm-29,0V3.3H59.14V30.65H31.79Zm-29,0V3.3H30.13V30.65H2.8Zm58,29V32.3H88.14V59.64H60.79Zm-29,0V32.3H59.14V59.64H31.79Zm-29,0V32.3H30.13V59.64H2.8Zm58,29V61.29H88.14V88.64H60.79Zm-29,0V61.29H59.14V88.64H31.79Zm-29,0V61.29H30.13V88.64H2.8Z"/><rect class="cls-2" x="60.79" y="61.28" width="27.35" height="27.35"/><rect class="cls-2" x="60.79" y="32.3" width="27.35" height="27.34"/><rect class="cls-2" x="60.79" y="3.3" width="27.35" height="27.35"/><rect class="cls-2" x="31.75" y="3.28" width="27.35" height="27.35"/><rect class="cls-2" x="31.79" y="32.3" width="27.35" height="27.34"/><rect class="cls-2" x="31.79" y="61.29" width="27.35" height="27.35"/><rect class="cls-2" x="2.8" y="61.29" width="27.33" height="27.35"/><rect class="cls-2" x="2.8" y="32.3" width="27.33" height="27.34"/><rect class="cls-2" x="2.67" y="3.28" width="27.33" height="27.35"/><polygon class="cls-3" points="19.66 28.27 27.89 20.04 19.57 19.94 19.66 28.27"/><polygon class="cls-3" points="48.52 28.27 56.75 20.04 48.43 19.94 48.52 28.27"/><polygon class="cls-3" points="71.37 63.64 63.14 71.87 71.46 71.96 71.37 63.64"/><polygon class="cls-3" points="71.37 34.65 63.14 42.88 71.46 42.97 71.37 34.65"/><line class="cls-4" x1="69.59" y1="70.09" x2="23.72" y2="24.2"/><line class="cls-4" x1="69.04" y1="40.73" x2="51.23" y2="22.91"/></svg>