<svg id="Layer_1" data-name="Layer 1" xmlns="http://www.w3.org/2000/svg" viewBox="0 0 92 92"><defs><style>.cls-1{fill:#212744;}.cls-2{fill:#fff8e7;}.cls-3{fill:#4d6bb3;}.cls-4{fill:none;stroke:#4d6bb3;stroke-miterlimit:10;stroke-width:2.84px;}</style></defs><title>pll3</title><path class="cls-1" d="M91.83,0.35H0.17V92H91.83V0.35ZM3.33,30.85V3.5H30.67V30.85H3.33Zm29,0V3.5H59.67V30.85H32.33Zm29,0V3.5H88.66V30.85H61.34Zm-58,29V32.5H30.67V59.84H3.33Zm29,0V32.5H59.67V59.84H32.33Zm29,0V32.5H88.66V59.84H61.34Zm-58,29V61.49H30.67V88.84H3.33Zm29,0V61.49H59.67V88.84H32.33Zm29,0V61.49H88.66V88.84H61.34Z"/><rect class="cls-2" x="3.33" y="61.49" width="27.35" height="27.35"/><rect class="cls-2" x="3.33" y="32.51" width="27.35" height="27.34"/><rect class="cls-2" x="3.33" y="3.5" width="27.35" height="27.35"/><rect class="cls-2" x="32.33" y="3.5" width="27.35" height="27.35"/><rect class="cls-2" x="32.33" y="32.5" width="27.35" height="27.34"/><rect class="cls-2" x="32.33" y="61.49" width="27.35" height="27.35"/><rect class="cls-2" x="61.34" y="61.49" width="27.33" height="27.35"/><rect class="cls-2" x="61.34" y="32.5" width="27.33" height="27.34"/><rect class="cls-2" x="61.34" y="3.5" width="27.33" height="27.35"/><polygon class="cls-3" points="20.14 28.5 28.38 20.26 20.05 20.17 20.14 28.5"/><polygon class="cls-3" points="71.86 63.86 63.62 72.09 71.95 72.19 71.86 63.86"/><polygon class="cls-3" points="51.82 66.05 40.18 66.05 46 72 51.82 66.05"/><polygon class="cls-3" points="40.18 26.22 51.83 26.22 46.01 20.27 40.18 26.22"/><line class="cls-4" x1="46" y1="24.21" x2="46" y2="67.79"/><line class="cls-4" x1="70.08" y1="70.31" x2="24.21" y2="24.43"/></svg>